<!-- Generated by readme-aura https://github.com/collectioneur/readme-aura -->
<svg width="860" height="140" viewBox="0 0 860 140" xmlns="http://www.w3.org/2000/svg"><defs><clipPath id="satori_bc-id"><path x="0" y="0" width="860" height="140" d="M16,0 h828 a16,16 0 0 1 16,16 v108 a16,16 0 0 1 -16,16 h-828 a16,16 0 0 1 -16,-16 v-108 a16,16 0 0 1 16,-16"/></clipPath></defs><clipPath id="satori_cp-id"><path x="0" y="0" width="860" height="140" d="M16,0 h828 a16,16 0 0 1 16,16 v108 a16,16 0 0 1 -16,16 h-828 a16,16 0 0 1 -16,-16 v-108 a16,16 0 0 1 16,-16"/></clipPath><mask id="satori_om-id"><rect x="1" y="1" width="858" height="138" fill="#fff"/><path width="860" height="140" fill="none" stroke="#000" stroke-width="2" d="M4.686,4.686 A16,16 0 0 1 16,0 h828 a16,16 0 0 1 16,16 v108 a16,16 0 0 1 -16,16 h-828 a16,16 0 0 1 -16,-16 v-108 A16,16 0 0 1 4.686,4.686"/></mask><path x="0" y="0" width="860" height="140" fill="#0a0d0a" d="M16,0 h828 a16,16 0 0 1 16,16 v108 a16,16 0 0 1 -16,16 h-828 a16,16 0 0 1 -16,-16 v-108 a16,16 0 0 1 16,-16"/><path width="860" height="140" clip-path="url(#satori_bc-id)" fill="none" stroke="rgba(16,185,129,0.18)" stroke-width="2" d="M4.686,4.686 A16,16 0 0 1 16,0 h828 a16,16 0 0 1 16,16 v108 a16,16 0 0 1 -16,16 h-828 a16,16 0 0 1 -16,-16 v-108 A16,16 0 0 1 4.686,4.686"/><clipPath id="satori_cp-id-0" clip-path="url(#satori_cp-id)"><rect x="1" y="1" width="860" height="140"/></clipPath><mask id="satori_om-id-0"><rect x="1" y="1" width="860" height="140" fill="#fff" mask="url(#satori_om-id)"/></mask><svg x="1" y="1" width="860" height="140" preserveAspectRatio="none" clip-path="url(#satori_cp-id-0)" mask="url(#satori_om-id-0)"><defs><radialGradient id="n4" cx="50%" cy="50%" r="50%"><stop offset="0%" stop-color="rgba(245,158,11,0.2)"></stop><stop offset="100%" stop-color="rgba(245,158,11,0)"></stop></radialGradient><radialGradient id="n5" cx="50%" cy="50%" r="50%"><stop offset="0%" stop-color="rgba(16,185,129,0.2)"></stop><stop offset="100%" stop-color="rgba(16,185,129,0)"></stop></radialGradient></defs><g><circle cx="120" cy="20" r="1.5" fill="#fff" style="animation:pulse 3s infinite 0.5s"></circle><circle cx="450" cy="110" r="1" fill="#fff" style="animation:pulse 4s infinite 2s"></circle><circle cx="780" cy="30" r="2" fill="#fff" style="animation:pulse 5s infinite 1s"></circle></g><g stroke="rgba(255,255,255,0.2)" stroke-width="1" fill="none"><path d="M0,40 Q250,70 450,30 T860,60" style="animation:flowFast 10s linear infinite"></path></g><g style="animation:driftA 18s ease-in-out infinite"><ellipse cx="150" cy="70" rx="130" ry="50" fill="url(#n5)"></ellipse></g><g style="animation:driftB 22s ease-in-out infinite"><ellipse cx="710" cy="70" rx="140" ry="60" fill="url(#n4)"></ellipse></g><style>

      @keyframes driftA { 0%,100%{transform:translate(0,0)} 50%{transform:translate(-30px,15px)} }
      @keyframes driftB { 0%,100%{transform:translate(0,0)} 50%{transform:translate(40px,-10px)} }
      @keyframes pulse { 0%,100%{opacity:0.1;transform:scale(0.8)} 50%{opacity:0.8;transform:scale(1.2)} }
      @keyframes flowFast { 0%{transform:translateX(-10%);opacity:0} 20%{opacity:0.2} 80%{opacity:0.2} 100%{transform:translateX(100%);opacity:0} }
    
</style>
</svg><mask id="satori_om-id-0-0"><rect x="1" y="1" width="0" height="140" fill="#fff" mask="url(#satori_om-id)"/></mask><mask id="satori_om-id-0-0-0"><rect x="1" y="1" width="0" height="140" fill="#fff" mask="url(#satori_om-id)"/></mask><mask id="satori_om-id-0-0-0-0"><rect x="1" y="1" width="0" height="140" fill="#fff" mask="url(#satori_om-id)"/></mask><mask id="satori_om-id-0-0-0-1"><rect x="1" y="1" width="0" height="140" fill="#fff" mask="url(#satori_om-id)"/></mask><mask id="satori_om-id-0-0-1"><rect x="1" y="1" width="0" height="140" fill="#fff" mask="url(#satori_om-id)"/></mask><mask id="satori_om-id-0-0-1-0"><rect x="1" y="1" width="0" height="140" fill="#fff" mask="url(#satori_om-id)"/></mask><mask id="satori_om-id-0-0-1-1"><rect x="1" y="1" width="0" height="140" fill="#fff" mask="url(#satori_om-id)"/></mask><mask id="satori_om-id-0-1"><rect x="1" y="1" width="0" height="140" fill="#fff" mask="url(#satori_om-id)"/></mask><mask id="satori_om-id-0-1-0"><rect x="1" y="1" width="0" height="140" fill="#fff" mask="url(#satori_om-id)"/></mask><mask id="satori_om-id-0-1-1"><rect x="1" y="1" width="0" height="140" fill="#fff" mask="url(#satori_om-id)"/></mask><mask id="satori_om-id-0-1-2"><rect x="1" y="1" width="0" height="140" fill="#fff" mask="url(#satori_om-id)"/></mask><mask id="satori_om-id-0-2"><rect x="1" y="1" width="0" height="140" fill="#fff" mask="url(#satori_om-id)"/></mask><mask id="satori_om-id-0-2-0"><rect x="1" y="1" width="0" height="140" fill="#fff" mask="url(#satori_om-id)"/></mask><mask id="satori_om-id-0-3"><rect x="1" y="1" width="0" height="140" fill="#fff" mask="url(#satori_om-id)"/></mask><mask id="satori_om-id-0-3-0"><rect x="1" y="1" width="0" height="140" fill="#fff" mask="url(#satori_om-id)"/></mask><mask id="satori_om-id-0-4"><rect x="1" y="1" width="0" height="140" fill="#fff" mask="url(#satori_om-id)"/></mask><mask id="satori_om-id-0-4-0"><rect x="1" y="1" width="0" height="140" fill="#fff" mask="url(#satori_om-id)"/></mask><defs><clipPath id="satori_bc-id-1" clip-path="url(#satori_cp-id)"><rect x="1" y="30" width="142" height="80"/></clipPath></defs><mask id="satori_om-id-1"><rect x="1" y="30" width="141" height="80" fill="#fff" mask="url(#satori_om-id)"/><path width="142" height="80" fill="none" stroke="#000" stroke-width="2" d="M143,30 A0,0 0 0 1 143,30 v80 A0,0 0 0 1 143,110"/></mask><path width="142" height="80" clip-path="url(#satori_bc-id-1)" fill="none" stroke="rgba(255,255,255,0.06)" stroke-width="2" d="M143,30 A0,0 0 0 1 143,30 v80 A0,0 0 0 1 143,110"/><mask id="satori_om-id-1-0"><rect x="53" y="46" width="38" height="30" fill="#fff" mask="url(#satori_om-id)"/></mask><g mask="url(#satori_om-id)" clip-path="url(#satori_cp-id)"><path fill="#34d399" d="M70.3 72L54.8 72L54.8 68.8L62.6 61.5Q63.5 60.6 64.2 59.8Q64.9 59.0 65.3 58.2Q65.6 57.5 65.6 56.6L65.6 56.6Q65.6 55.6 65.2 54.9Q64.7 54.2 64.0 53.8Q63.2 53.5 62.2 53.5L62.2 53.5Q61.2 53.5 60.5 53.9Q59.7 54.3 59.3 55.0Q58.9 55.8 58.9 56.9L58.9 56.9L54.6 56.9Q54.6 54.7 55.6 53.2Q56.6 51.6 58.3 50.7Q60.0 49.9 62.3 49.9L62.3 49.9Q64.6 49.9 66.3 50.7Q68.0 51.5 69.0 53.0Q70.0 54.4 70.0 56.3L70.0 56.3Q70.0 57.5 69.5 58.7Q69.0 59.9 67.8 61.4Q66.6 62.9 64.3 64.9L64.3 64.9L61.0 68.2L61.0 68.3L70.3 68.3L70.3 72ZM81.1 72.3L81.1 72.3Q78.9 72.3 77.1 71.5Q75.4 70.6 74.3 69.2Q73.3 67.7 73.3 65.9L73.3 65.9L77.6 65.9Q77.7 66.7 78.1 67.4Q78.6 68.0 79.4 68.4Q80.2 68.7 81.1 68.7L81.1 68.7Q82.2 68.7 83.0 68.3Q83.9 67.8 84.4 66.9Q84.8 66.0 84.8 64.9L84.8 64.9Q84.8 63.7 84.4 62.8Q83.9 61.9 83.0 61.4Q82.2 60.9 81.0 60.9L81.0 60.9Q80.0 60.9 79.1 61.3Q78.2 61.7 77.7 62.3L77.7 62.3L73.7 61.6L74.8 50.2L88.0 50.2L88.0 53.9L78.5 53.9L77.9 59.4L78.0 59.4Q78.6 58.6 79.8 58.1Q80.9 57.6 82.3 57.6L82.3 57.6Q83.8 57.6 85.1 58.1Q86.3 58.6 87.2 59.6Q88.2 60.5 88.7 61.9Q89.2 63.2 89.2 64.7L89.2 64.7Q89.2 66.9 88.2 68.6Q87.1 70.3 85.3 71.3Q83.5 72.3 81.1 72.3Z "/></g><mask id="satori_om-id-1-1"><rect x="49" y="81" width="45" height="13" fill="#fff" mask="url(#satori_om-id)"/></mask><g mask="url(#satori_om-id)" clip-path="url(#satori_cp-id)"><path fill="rgba(167,243,208,0.45)" d="M51.4 92L49.7 92L49.7 84.0L52.8 84.0Q53.8 84.0 54.4 84.3Q55.0 84.6 55.4 85.2Q55.7 85.8 55.7 86.6Q55.7 87.4 55.4 88.0Q55.0 88.5 54.4 88.8L54.4 88.8Q54.3 88.9 54.3 88.9L54.3 88.9L56.0 92L54.2 92L52.6 89.1L51.4 89.1L51.4 92ZM51.4 85.4L51.4 87.8L52.5 87.8Q53.0 87.8 53.4 87.7Q53.7 87.5 53.9 87.3Q54.0 87.0 54.0 86.6L54.0 86.6Q54.0 86.2 53.9 85.9Q53.7 85.6 53.4 85.5Q53.0 85.4 52.5 85.4L52.5 85.4L51.4 85.4ZM63.8 92L58.4 92L58.4 84.0L63.8 84.0L63.8 85.4L60.1 85.4L60.1 87.3L63.5 87.3L63.5 88.6L60.1 88.6L60.1 90.6L63.8 90.6L63.8 92ZM68.3 92L66.6 92L66.6 84.0L69.8 84.0Q70.7 84.0 71.3 84.3Q71.9 84.7 72.3 85.3Q72.6 85.9 72.6 86.7L72.6 86.7Q72.6 87.5 72.3 88.1Q71.9 88.7 71.3 89.0Q70.6 89.4 69.7 89.4L69.7 89.4L68.3 89.4L68.3 92ZM68.3 85.4L68.3 88.1L69.5 88.1Q70.0 88.1 70.3 87.9Q70.6 87.7 70.8 87.4Q70.9 87.1 70.9 86.7Q70.9 86.3 70.8 86.0Q70.6 85.7 70.3 85.5Q70.0 85.4 69.4 85.4L69.4 85.4L68.3 85.4ZM78.8 92.1L78.8 92.1Q77.7 92.1 76.9 91.6Q76.0 91.1 75.5 90.2Q75.0 89.3 75.0 88.0L75.0 88.0Q75.0 86.7 75.5 85.8Q76.0 84.9 76.9 84.4Q77.7 83.9 78.8 83.9L78.8 83.9Q79.8 83.9 80.7 84.4Q81.5 84.9 82.0 85.8Q82.5 86.7 82.5 88.0L82.5 88.0Q82.5 89.3 82.0 90.2Q81.5 91.1 80.7 91.6Q79.8 92.1 78.8 92.1ZM78.8 90.7L78.8 90.7Q79.4 90.7 79.9 90.3Q80.3 90.0 80.6 89.5Q80.8 88.9 80.8 88.0L80.8 88.0Q80.8 87.1 80.6 86.5Q80.3 86.0 79.9 85.6Q79.4 85.3 78.8 85.3L78.8 85.3Q78.2 85.3 77.7 85.7Q77.2 86.0 77.0 86.6Q76.7 87.1 76.7 88.0L76.7 88.0Q76.7 88.9 77.0 89.4Q77.2 90.0 77.7 90.3Q78.2 90.7 78.8 90.7ZM88.2 92.1L88.2 92.1Q87.2 92.1 86.5 91.8Q85.8 91.5 85.4 90.9Q85.0 90.4 85.0 89.5L85.0 89.5L86.6 89.5Q86.6 89.9 86.8 90.2Q87.0 90.5 87.4 90.6Q87.7 90.7 88.2 90.7L88.2 90.7Q88.6 90.7 88.9 90.6Q89.2 90.5 89.4 90.2Q89.6 90.0 89.6 89.7L89.6 89.7Q89.6 89.4 89.4 89.3Q89.3 89.1 89.0 88.9Q88.7 88.8 88.2 88.7L88.2 88.7L87.3 88.5Q86.3 88.2 85.8 87.7Q85.2 87.2 85.2 86.3L85.2 86.3Q85.2 85.6 85.6 85.0Q86.0 84.5 86.6 84.2Q87.3 83.9 88.2 83.9L88.2 83.9Q89.1 83.9 89.7 84.2Q90.4 84.5 90.8 85.0Q91.1 85.6 91.1 86.3L91.1 86.3L89.6 86.3Q89.5 85.8 89.2 85.5Q88.8 85.3 88.2 85.3L88.2 85.3Q87.8 85.3 87.5 85.4Q87.2 85.5 87.0 85.7Q86.9 85.9 86.9 86.2L86.9 86.2Q86.9 86.5 87.0 86.7Q87.2 86.9 87.5 87.0Q87.8 87.1 88.1 87.2L88.1 87.2L88.9 87.4Q89.4 87.5 89.8 87.7Q90.2 87.9 90.6 88.2Q90.9 88.4 91.1 88.8Q91.3 89.2 91.3 89.7L91.3 89.7Q91.3 90.4 90.9 91.0Q90.5 91.5 89.8 91.8Q89.1 92.1 88.2 92.1Z "/></g><defs><clipPath id="satori_bc-id-2" clip-path="url(#satori_cp-id)"><rect x="143" y="30" width="150" height="80"/></clipPath></defs><mask id="satori_om-id-2"><rect x="143" y="30" width="149" height="80" fill="#fff" mask="url(#satori_om-id)"/><path width="150" height="80" fill="none" stroke="#000" stroke-width="2" d="M293,30 A0,0 0 0 1 293,30 v80 A0,0 0 0 1 293,110"/></mask><path width="150" height="80" clip-path="url(#satori_bc-id-2)" fill="none" stroke="rgba(255,255,255,0.06)" stroke-width="2" d="M293,30 A0,0 0 0 1 293,30 v80 A0,0 0 0 1 293,110"/><mask id="satori_om-id-2-0"><rect x="191" y="46" width="52" height="30" fill="#fff" mask="url(#satori_om-id)"/></mask><g mask="url(#satori_om-id)" clip-path="url(#satori_cp-id)"><path fill="#fbbf24" d="M197.2 50.2L202.0 50.2L202.0 72L197.5 72L197.5 54.1L197.4 54.1L192.4 57.7L192.4 53.6L197.2 50.2ZM221.2 72L205.8 72L205.8 68.8L213.5 61.5Q214.5 60.6 215.2 59.8Q215.8 59.0 216.2 58.2Q216.6 57.5 216.6 56.6L216.6 56.6Q216.6 55.6 216.1 54.9Q215.7 54.2 214.9 53.8Q214.2 53.5 213.2 53.5L213.2 53.5Q212.2 53.5 211.4 53.9Q210.6 54.3 210.2 55.0Q209.8 55.8 209.8 56.9L209.8 56.9L205.5 56.9Q205.5 54.7 206.5 53.2Q207.5 51.6 209.2 50.7Q211.0 49.9 213.2 49.9L213.2 49.9Q215.5 49.9 217.3 50.7Q219.0 51.5 219.9 53.0Q220.9 54.4 220.9 56.3L220.9 56.3Q220.9 57.5 220.4 58.7Q219.9 59.9 218.7 61.4Q217.5 62.9 215.3 64.9L215.3 64.9L212.0 68.2L212.0 68.3L221.2 68.3L221.2 72ZM232.6 72.3L232.6 72.3Q230.1 72.3 228.3 71.5Q226.4 70.7 225.3 69.3Q224.2 67.9 224.2 66.1L224.2 66.1Q224.2 64.8 224.8 63.6Q225.5 62.5 226.5 61.7Q227.6 60.9 228.9 60.7L228.9 60.7L228.9 60.6Q227.2 60.2 226.1 58.9Q225.0 57.5 225.0 55.7L225.0 55.7Q225.0 54.1 226.0 52.7Q227.0 51.4 228.7 50.6Q230.4 49.9 232.6 49.9L232.6 49.9Q234.8 49.9 236.5 50.6Q238.2 51.4 239.2 52.7Q240.2 54.1 240.2 55.7L240.2 55.7Q240.2 57.5 239.1 58.9Q238.0 60.2 236.3 60.6L236.3 60.6L236.3 60.7Q237.6 60.9 238.7 61.7Q239.7 62.5 240.4 63.6Q241.0 64.8 241.0 66.1L241.0 66.1Q241.0 67.9 239.9 69.3Q238.8 70.7 236.9 71.5Q235.0 72.3 232.6 72.3ZM232.6 69.0L232.6 69.0Q233.7 69.0 234.5 68.6Q235.4 68.2 235.9 67.5Q236.3 66.7 236.3 65.8L236.3 65.8Q236.3 64.8 235.8 64.1Q235.4 63.3 234.5 62.9Q233.7 62.5 232.6 62.5L232.6 62.5Q231.5 62.5 230.7 62.9Q229.8 63.3 229.3 64.1Q228.9 64.8 228.9 65.8L228.9 65.8Q228.9 66.7 229.3 67.4Q229.8 68.2 230.6 68.6Q231.5 69.0 232.6 69.0ZM232.6 59.2L232.6 59.2Q233.5 59.2 234.2 58.8Q235.0 58.4 235.4 57.8Q235.8 57.1 235.8 56.2L235.8 56.2Q235.8 55.3 235.4 54.7Q235.0 54.0 234.3 53.7Q233.5 53.3 232.6 53.3L232.6 53.3Q231.6 53.3 230.9 53.7Q230.2 54.0 229.8 54.7Q229.4 55.3 229.4 56.2L229.4 56.2Q229.4 57.1 229.8 57.8Q230.2 58.4 230.9 58.8Q231.6 59.2 232.6 59.2Z "/></g><mask id="satori_om-id-2-1"><rect x="195" y="81" width="45" height="13" fill="#fff" mask="url(#satori_om-id)"/></mask><g mask="url(#satori_om-id)" clip-path="url(#satori_cp-id)"><path fill="rgba(167,243,208,0.45)" d="M198.7 92.1L198.7 92.1Q197.7 92.1 197.0 91.8Q196.3 91.5 195.9 90.9Q195.5 90.4 195.5 89.5L195.5 89.5L197.1 89.5Q197.1 89.9 197.3 90.2Q197.5 90.5 197.9 90.6Q198.2 90.7 198.6 90.7L198.6 90.7Q199.1 90.7 199.4 90.6Q199.7 90.5 199.9 90.2Q200.1 90.0 200.1 89.7L200.1 89.7Q200.1 89.4 199.9 89.3Q199.8 89.1 199.5 88.9Q199.2 88.8 198.7 88.7L198.7 88.7L197.8 88.5Q196.8 88.2 196.2 87.7Q195.7 87.2 195.7 86.3L195.7 86.3Q195.7 85.6 196.1 85.0Q196.5 84.5 197.1 84.2Q197.8 83.9 198.7 83.9L198.7 83.9Q199.6 83.9 200.2 84.2Q200.9 84.5 201.3 85.0Q201.6 85.6 201.6 86.3L201.6 86.3L200.1 86.3Q200.0 85.8 199.6 85.5Q199.3 85.3 198.7 85.3L198.7 85.3Q198.2 85.3 198.0 85.4Q197.7 85.5 197.5 85.7Q197.4 85.9 197.4 86.2L197.4 86.2Q197.4 86.5 197.5 86.7Q197.7 86.9 198.0 87.0Q198.3 87.1 198.6 87.2L198.6 87.2L199.4 87.4Q199.9 87.5 200.3 87.7Q200.7 87.9 201.1 88.2Q201.4 88.4 201.6 88.8Q201.7 89.2 201.7 89.7L201.7 89.7Q201.7 90.4 201.4 91.0Q201.0 91.5 200.3 91.8Q199.6 92.1 198.7 92.1ZM206.6 85.4L204.1 85.4L204.1 84.0L210.6 84.0L210.6 85.4L208.2 85.4L208.2 92L206.6 92L206.6 85.4ZM214.6 92L212.8 92L215.5 84.0L217.7 84.0L220.5 92L218.7 92L218.1 90.1L215.2 90.1L214.6 92ZM215.6 88.9L217.6 88.9L217.4 88.1Q217.2 87.4 216.9 86.5L216.9 86.5Q216.8 85.9 216.6 85.3L216.6 85.3Q216.4 85.9 216.3 86.5L216.3 86.5Q216.1 87.4 215.9 88.1L215.9 88.1L215.6 88.9ZM224.6 92L223.0 92L223.0 84.0L226.1 84.0Q227.0 84.0 227.7 84.3Q228.3 84.6 228.6 85.2Q229.0 85.8 229.0 86.6Q229.0 87.4 228.6 88.0Q228.3 88.5 227.6 88.8L227.6 88.8Q227.6 88.9 227.5 88.9L227.5 88.9L229.3 92L227.4 92L225.9 89.1L224.6 89.1L224.6 92ZM224.6 85.4L224.6 87.8L225.8 87.8Q226.3 87.8 226.6 87.7Q227.0 87.5 227.1 87.3Q227.3 87.0 227.3 86.6L227.3 86.6Q227.3 86.2 227.1 85.9Q227.0 85.6 226.6 85.5Q226.3 85.4 225.8 85.4L225.8 85.4L224.6 85.4ZM234.6 92.1L234.6 92.1Q233.7 92.1 233.0 91.8Q232.3 91.5 231.9 90.9Q231.5 90.4 231.4 89.5L231.4 89.5L233.0 89.5Q233.1 89.9 233.3 90.2Q233.5 90.5 233.8 90.6Q234.2 90.7 234.6 90.7L234.6 90.7Q235.1 90.7 235.4 90.6Q235.7 90.5 235.9 90.2Q236.1 90.0 236.1 89.7L236.1 89.7Q236.1 89.4 235.9 89.3Q235.8 89.1 235.4 88.9Q235.1 88.8 234.7 88.7L234.7 88.7L233.8 88.5Q232.8 88.2 232.2 87.7Q231.7 87.2 231.7 86.3L231.7 86.3Q231.7 85.6 232.0 85.0Q232.4 84.5 233.1 84.2Q233.8 83.9 234.7 83.9L234.7 83.9Q235.5 83.9 236.2 84.2Q236.9 84.5 237.2 85.0Q237.6 85.6 237.6 86.3L237.6 86.3L236.0 86.3Q236.0 85.8 235.6 85.5Q235.3 85.3 234.6 85.3L234.6 85.3Q234.2 85.3 233.9 85.4Q233.6 85.5 233.5 85.7Q233.3 85.9 233.3 86.2L233.3 86.2Q233.3 86.5 233.5 86.7Q233.7 86.9 234.0 87.0Q234.3 87.1 234.6 87.2L234.6 87.2L235.3 87.4Q235.8 87.5 236.3 87.7Q236.7 87.9 237.0 88.2Q237.4 88.4 237.5 88.8Q237.7 89.2 237.7 89.7L237.7 89.7Q237.7 90.4 237.4 91.0Q237.0 91.5 236.3 91.8Q235.6 92.1 234.6 92.1Z "/></g><defs><clipPath id="satori_bc-id-3" clip-path="url(#satori_cp-id)"><rect x="293" y="30" width="167" height="80"/></clipPath></defs><mask id="satori_om-id-3"><rect x="293" y="30" width="166" height="80" fill="#fff" mask="url(#satori_om-id)"/><path width="167" height="80" fill="none" stroke="#000" stroke-width="2" d="M460,30 A0,0 0 0 1 460,30 v80 A0,0 0 0 1 460,110"/></mask><path width="167" height="80" clip-path="url(#satori_bc-id-3)" fill="none" stroke="rgba(255,255,255,0.06)" stroke-width="2" d="M460,30 A0,0 0 0 1 460,30 v80 A0,0 0 0 1 460,110"/><mask id="satori_om-id-3-0"><rect x="341" y="46" width="70" height="30" fill="#fff" mask="url(#satori_om-id)"/></mask><g mask="url(#satori_om-id)" clip-path="url(#satori_cp-id)"><path fill="#f59e0b" d="M347.2 50.2L352.0 50.2L352.0 72L347.5 72L347.5 54.1L347.4 54.1L342.4 57.7L342.4 53.6L347.2 50.2ZM363.1 72.3L363.1 72.3Q360.9 72.3 359.1 71.5Q357.4 70.6 356.4 69.2Q355.4 67.7 355.3 65.9L355.3 65.9L359.7 65.9Q359.7 66.7 360.2 67.4Q360.7 68.0 361.4 68.4Q362.2 68.7 363.1 68.7L363.1 68.7Q364.2 68.7 365.1 68.3Q365.9 67.8 366.4 66.9Q366.9 66.0 366.9 64.9L366.9 64.9Q366.9 63.7 366.4 62.8Q365.9 61.9 365.0 61.4Q364.2 60.9 363.1 60.9L363.1 60.9Q362.1 60.9 361.2 61.3Q360.3 61.7 359.8 62.3L359.8 62.3L355.8 61.6L356.8 50.2L370.0 50.2L370.0 53.9L360.5 53.9L360.0 59.4L360.1 59.4Q360.7 58.6 361.8 58.1Q363.0 57.6 364.4 57.6L364.4 57.6Q365.8 57.6 367.1 58.1Q368.3 58.6 369.3 59.6Q370.2 60.5 370.7 61.9Q371.2 63.2 371.2 64.7L371.2 64.7Q371.2 66.9 370.2 68.6Q369.2 70.3 367.4 71.3Q365.5 72.3 363.1 72.3ZM384.5 68.1L374.1 68.1L374.1 64.6L383.2 50.2L388.8 50.2L388.8 64.5L391.5 64.5L391.5 68.1L388.8 68.1L388.8 72L384.5 72L384.5 68.1ZM378.6 64.5L384.6 64.5L384.6 55.1L384.4 55.1L378.6 64.3L378.6 64.5ZM400.1 72L395.5 72L404.6 54.0L404.6 53.9L394.0 53.9L394.0 50.2L409.2 50.2L409.2 53.9L400.1 72Z "/></g><mask id="satori_om-id-3-1"><rect x="343" y="81" width="66" height="13" fill="#fff" mask="url(#satori_om-id)"/></mask><g mask="url(#satori_om-id)" clip-path="url(#satori_cp-id)"><path fill="rgba(167,243,208,0.45)" d="M347.2 92.1L347.2 92.1Q346.2 92.1 345.3 91.6Q344.5 91.1 344.0 90.2Q343.5 89.3 343.5 88.0L343.5 88.0Q343.5 86.7 344.0 85.8Q344.5 84.9 345.3 84.4Q346.2 83.9 347.2 83.9L347.2 83.9Q347.9 83.9 348.5 84.1Q349.1 84.3 349.5 84.6Q350.0 85.0 350.3 85.5Q350.6 86.1 350.7 86.7L350.7 86.7L349.0 86.7Q349.0 86.4 348.8 86.1Q348.6 85.9 348.4 85.7Q348.2 85.5 347.9 85.4Q347.6 85.3 347.3 85.3L347.3 85.3Q346.6 85.3 346.2 85.7Q345.7 86.0 345.4 86.6Q345.2 87.2 345.2 88.0L345.2 88.0Q345.2 88.9 345.4 89.5Q345.7 90.1 346.2 90.4Q346.6 90.7 347.2 90.7L347.2 90.7Q347.6 90.7 347.9 90.6Q348.2 90.5 348.4 90.3Q348.6 90.1 348.8 89.8Q349.0 89.6 349.0 89.3L349.0 89.3L350.7 89.3Q350.6 89.8 350.3 90.3Q350.1 90.8 349.6 91.2Q349.2 91.6 348.6 91.9Q348.0 92.1 347.2 92.1ZM356.9 92.1L356.9 92.1Q355.8 92.1 355.0 91.6Q354.1 91.1 353.6 90.2Q353.1 89.3 353.1 88.0L353.1 88.0Q353.1 86.7 353.6 85.8Q354.1 84.9 355.0 84.4Q355.8 83.9 356.9 83.9L356.9 83.9Q357.9 83.9 358.8 84.4Q359.6 84.9 360.1 85.8Q360.6 86.7 360.6 88.0L360.6 88.0Q360.6 89.3 360.1 90.2Q359.6 91.1 358.8 91.6Q357.9 92.1 356.9 92.1ZM356.9 90.7L356.9 90.7Q357.5 90.7 358.0 90.3Q358.4 90.0 358.7 89.5Q358.9 88.9 358.9 88.0L358.9 88.0Q358.9 87.1 358.7 86.5Q358.4 86.0 358.0 85.6Q357.5 85.3 356.9 85.3L356.9 85.3Q356.3 85.3 355.8 85.7Q355.3 86.0 355.1 86.6Q354.8 87.1 354.8 88.0L354.8 88.0Q354.8 88.9 355.1 89.4Q355.3 90.0 355.8 90.3Q356.3 90.7 356.9 90.7ZM365.0 92L363.3 92L363.3 84.0L365.9 84.0L367.2 87.7Q367.2 87.9 367.3 88.3Q367.4 88.7 367.5 89.2L367.5 89.2Q367.7 89.7 367.7 90.1L367.7 90.1Q367.8 89.7 367.9 89.2L367.9 89.2Q368.0 88.8 368.2 88.3Q368.3 87.9 368.3 87.7L368.3 87.7L369.6 84.0L372.1 84.0L372.1 92L370.5 92L370.5 88.2Q370.5 88.0 370.5 87.6Q370.5 87.2 370.5 86.7Q370.5 86.3 370.5 85.8L370.5 85.8Q370.6 85.6 370.6 85.4L370.6 85.4Q370.5 85.6 370.4 85.9L370.4 85.9Q370.3 86.3 370.2 86.8Q370.1 87.2 369.9 87.6Q369.8 88.0 369.8 88.2L369.8 88.2L368.4 92L367.0 92L365.7 88.2Q365.6 88.0 365.5 87.6Q365.4 87.2 365.3 86.8Q365.1 86.4 365.0 85.9L365.0 85.9Q365.0 85.7 364.9 85.5L364.9 85.5Q364.9 85.6 364.9 85.8L364.9 85.8Q364.9 86.2 364.9 86.7Q364.9 87.2 365.0 87.6Q365.0 88.0 365.0 88.2L365.0 88.2L365.0 92ZM376.7 92L375.1 92L375.1 84.0L377.6 84.0L378.9 87.7Q379.0 87.9 379.1 88.3Q379.2 88.7 379.3 89.2L379.3 89.2Q379.4 89.7 379.5 90.1L379.5 90.1Q379.6 89.7 379.7 89.2L379.7 89.2Q379.8 88.8 379.9 88.3Q380.0 87.9 380.1 87.7L380.1 87.7L381.4 84.0L383.9 84.0L383.9 92L382.2 92L382.2 88.2Q382.2 88.0 382.2 87.6Q382.3 87.2 382.3 86.7Q382.3 86.3 382.3 85.8L382.3 85.8Q382.3 85.6 382.3 85.4L382.3 85.4Q382.2 85.6 382.2 85.9L382.2 85.9Q382.1 86.3 381.9 86.8Q381.8 87.2 381.7 87.6Q381.6 88.0 381.5 88.2L381.5 88.2L380.2 92L378.8 92L377.4 88.2Q377.4 88.0 377.3 87.6Q377.1 87.2 377.0 86.8Q376.9 86.4 376.8 85.9L376.8 85.9Q376.7 85.7 376.7 85.5L376.7 85.5Q376.7 85.6 376.7 85.8L376.7 85.8Q376.7 86.2 376.7 86.7Q376.7 87.2 376.7 87.6Q376.7 88.0 376.7 88.2L376.7 88.2L376.7 92ZM386.8 84.0L388.5 84.0L388.5 92L386.8 92L386.8 84.0ZM393.5 85.4L391.1 85.4L391.1 84.0L397.6 84.0L397.6 85.4L395.2 85.4L395.2 92L393.5 92L393.5 85.4ZM403.2 92.1L403.2 92.1Q402.2 92.1 401.5 91.8Q400.8 91.5 400.4 90.9Q400.0 90.4 400.0 89.5L400.0 89.5L401.6 89.5Q401.6 89.9 401.8 90.2Q402.0 90.5 402.4 90.6Q402.7 90.7 403.2 90.7L403.2 90.7Q403.6 90.7 403.9 90.6Q404.3 90.5 404.5 90.2Q404.6 90.0 404.6 89.7L404.6 89.7Q404.6 89.4 404.5 89.3Q404.3 89.1 404.0 88.9Q403.7 88.8 403.3 88.7L403.3 88.7L402.4 88.5Q401.4 88.2 400.8 87.7Q400.2 87.2 400.2 86.3L400.2 86.3Q400.2 85.6 400.6 85.0Q401.0 84.5 401.7 84.2Q402.3 83.9 403.2 83.9L403.2 83.9Q404.1 83.9 404.8 84.2Q405.4 84.5 405.8 85.0Q406.2 85.6 406.2 86.3L406.2 86.3L404.6 86.3Q404.6 85.8 404.2 85.5Q403.8 85.3 403.2 85.3L403.2 85.3Q402.8 85.3 402.5 85.4Q402.2 85.5 402.0 85.7Q401.9 85.9 401.9 86.2L401.9 86.2Q401.9 86.5 402.1 86.7Q402.2 86.9 402.5 87.0Q402.8 87.1 403.2 87.2L403.2 87.2L403.9 87.4Q404.4 87.5 404.8 87.7Q405.3 87.9 405.6 88.2Q405.9 88.4 406.1 88.8Q406.3 89.2 406.3 89.7L406.3 89.7Q406.3 90.4 405.9 91.0Q405.6 91.5 404.9 91.8Q404.2 92.1 403.2 92.1Z "/></g><mask id="satori_om-id-4"><rect x="460" y="30" width="399" height="80" fill="#fff" mask="url(#satori_om-id)"/></mask><mask id="satori_om-id-4-0"><rect x="508" y="46" width="303" height="30" fill="#fff" mask="url(#satori_om-id)"/></mask><g mask="url(#satori_om-id)" clip-path="url(#satori_cp-id)"><path fill="#10b981" d="M520.6 72.8L520.6 76.1Q519.0 76.1 517.6 75.9Q516.3 75.7 515.3 75.0Q514.4 74.4 513.8 73.3Q513.3 72.1 513.3 70.1L513.3 70.1L513.3 67.6Q513.3 65.9 512.6 65.2L512.6 65.2Q512.0 64.5 510.5 64.5L510.5 64.5L510.1 64.5L510.1 60.5L510.5 60.5Q512.0 60.4 512.6 59.7L512.6 59.7Q513.3 59.0 513.3 57.4L513.3 57.4L513.3 54.8Q513.3 52.9 513.8 51.7Q514.4 50.5 515.3 49.9Q516.3 49.3 517.6 49.1Q519.0 48.8 520.6 48.8L520.6 48.8L520.6 52.2Q518.7 52.2 518.0 52.9Q517.4 53.6 517.4 55.2L517.4 55.2L517.4 58.4Q517.4 59.2 517.1 60.0Q516.8 60.8 516.1 61.4L516.1 61.4Q515.3 62.0 513.9 62.3L513.9 62.3L513.9 62.6Q515.3 63.0 516.1 63.6L516.1 63.6Q516.8 64.2 517.1 64.9Q517.4 65.7 517.4 66.5L517.4 66.5L517.4 69.7Q517.4 71.3 518.0 72.0Q518.7 72.8 520.6 72.8L520.6 72.8ZM534.6 72.8L534.6 76.1Q533.0 76.1 531.7 75.9Q530.4 75.7 529.4 75.0Q528.4 74.4 527.9 73.3Q527.4 72.1 527.4 70.1L527.4 70.1L527.4 67.6Q527.4 65.9 526.7 65.2L526.7 65.2Q526.0 64.5 524.6 64.5L524.6 64.5L524.1 64.5L524.1 60.5L524.6 60.5Q526.0 60.4 526.7 59.7L526.7 59.7Q527.4 59.0 527.4 57.4L527.4 57.4L527.4 54.8Q527.4 52.9 527.9 51.7Q528.4 50.5 529.4 49.9Q530.4 49.3 531.7 49.1Q533.0 48.8 534.6 48.8L534.6 48.8L534.6 52.2Q532.7 52.2 532.1 52.9Q531.5 53.6 531.5 55.2L531.5 55.2L531.5 58.4Q531.5 59.2 531.2 60.0Q530.9 60.8 530.1 61.4L530.1 61.4Q529.4 62.0 528.0 62.3L528.0 62.3L528.0 62.6Q529.4 63.0 530.1 63.6L530.1 63.6Q530.9 64.2 531.2 64.9Q531.5 65.7 531.5 66.5L531.5 66.5L531.5 69.7Q531.5 71.3 532.1 72.0Q532.7 72.8 534.6 72.8L534.6 72.8ZM550.3 72L544.5 72L536.8 50.2L541.8 50.2L545.3 60.7Q545.9 62.7 546.6 65.1L546.6 65.1Q547.0 66.7 547.4 68.4L547.4 68.4Q547.9 66.6 548.3 65.1L548.3 65.1Q548.9 62.7 549.5 60.7L549.5 60.7L552.9 50.2L557.8 50.2L550.3 72ZM560.5 50.2L565.0 50.2L565.0 72L560.5 72L560.5 50.2ZM576.9 72.3L576.9 72.3Q574.3 72.3 572.4 71.5Q570.4 70.7 569.3 69.1Q568.2 67.5 568.2 65.2L568.2 65.2L572.5 65.2Q572.6 66.3 573.2 67.1Q573.8 67.8 574.7 68.2Q575.7 68.5 576.9 68.5L576.9 68.5Q578.1 68.5 579.0 68.2Q579.9 67.9 580.3 67.2Q580.8 66.6 580.8 65.8L580.8 65.8Q580.8 65.0 580.4 64.5Q580.0 64.0 579.1 63.6Q578.3 63.3 577.1 63.0L577.1 63.0L574.7 62.4Q571.9 61.7 570.3 60.3Q568.8 58.8 568.8 56.5L568.8 56.5Q568.8 54.5 569.8 53.0Q570.9 51.5 572.8 50.7Q574.6 49.9 577.0 49.9L577.0 49.9Q579.4 49.9 581.2 50.7Q583 51.5 584.0 53.0Q585.0 54.5 585.1 56.4L585.1 56.4L580.7 56.4Q580.6 55.1 579.6 54.4Q578.6 53.6 576.9 53.6L576.9 53.6Q575.8 53.6 575.0 54.0Q574.2 54.3 573.8 54.9Q573.4 55.4 573.4 56.2L573.4 56.2Q573.4 57.0 573.8 57.5Q574.3 58.0 575.1 58.4Q575.9 58.7 576.8 58.9L576.8 58.9L578.8 59.4Q580.2 59.7 581.4 60.2Q582.6 60.8 583.5 61.5Q584.4 62.3 584.9 63.4Q585.3 64.4 585.3 65.8L585.3 65.8Q585.3 67.8 584.3 69.2Q583.4 70.7 581.5 71.5Q579.6 72.3 576.9 72.3ZM588.6 50.2L593.0 50.2L593.0 72L588.6 72L588.6 50.2ZM602.8 53.9L596.1 53.9L596.1 50.2L613.9 50.2L613.9 53.9L607.3 53.9L607.3 72L602.8 72L602.8 53.9ZM626.6 72.3L626.6 72.3Q623.7 72.3 621.4 71.0Q619.1 69.7 617.8 67.2Q616.4 64.6 616.4 61.1L616.4 61.1Q616.4 57.5 617.8 55.0Q619.1 52.5 621.4 51.2Q623.7 49.9 626.6 49.9L626.6 49.9Q629.5 49.9 631.8 51.2Q634.1 52.5 635.4 55.0Q636.8 57.5 636.8 61.1L636.8 61.1Q636.8 64.6 635.4 67.2Q634.1 69.7 631.8 71.0Q629.5 72.3 626.6 72.3ZM626.6 68.3L626.6 68.3Q628.3 68.3 629.6 67.5Q630.8 66.7 631.5 65.0Q632.2 63.4 632.2 61.1L632.2 61.1Q632.2 58.7 631.5 57.1Q630.8 55.5 629.6 54.7Q628.3 53.9 626.6 53.9L626.6 53.9Q624.9 53.9 623.6 54.7Q622.4 55.5 621.7 57.1Q621.0 58.8 621.0 61.1L621.0 61.1Q621.0 63.4 621.7 65.0Q622.4 66.7 623.6 67.5Q624.9 68.3 626.6 68.3ZM644.6 72L640.1 72L640.1 50.2L648.6 50.2Q651.1 50.2 652.9 51.1Q654.6 51.9 655.5 53.5Q656.4 55.1 656.4 57.3Q656.4 59.4 655.5 61.0Q654.6 62.6 652.8 63.4L652.8 63.4Q652.7 63.4 652.6 63.5L652.6 63.5L657.2 72L652.3 72L648.1 64.2L644.6 64.2L644.6 72ZM644.6 53.9L644.6 60.6L647.8 60.6Q649.2 60.6 650.1 60.2Q651.0 59.8 651.4 59.1Q651.8 58.4 651.8 57.3L651.8 57.3Q651.8 56.2 651.4 55.4Q651.0 54.7 650.1 54.3Q649.2 53.9 647.8 53.9L647.8 53.9L644.6 53.9ZM657.9 72L672.1 72L672.1 75.4L657.9 75.4L657.9 72ZM683.6 72.3L683.6 72.3Q680.7 72.3 678.5 71.0Q676.2 69.7 674.8 67.2Q673.5 64.6 673.5 61.1L673.5 61.1Q673.5 57.5 674.8 55.0Q676.2 52.5 678.5 51.2Q680.8 49.9 683.6 49.9L683.6 49.9Q685.5 49.9 687.1 50.4Q688.7 50.9 690.0 51.9Q691.2 52.9 692.0 54.4Q692.8 55.8 693.0 57.6L693.0 57.6L688.5 57.6Q688.4 56.7 687.9 56.0Q687.5 55.3 686.9 54.9Q686.3 54.4 685.5 54.1Q684.7 53.9 683.7 53.9L683.7 53.9Q682.0 53.9 680.8 54.7Q679.5 55.5 678.8 57.2Q678.1 58.8 678.1 61.1L678.1 61.1Q678.1 63.5 678.8 65.1Q679.5 66.7 680.8 67.5Q682.0 68.3 683.7 68.3L683.7 68.3Q684.7 68.3 685.5 68.1Q686.3 67.8 686.9 67.3Q687.5 66.8 687.9 66.1Q688.4 65.4 688.5 64.5L688.5 64.5L693.1 64.5Q692.9 66.1 692.2 67.4Q691.4 68.8 690.2 69.9Q689.0 71.0 687.4 71.7Q685.7 72.3 683.6 72.3ZM705.9 72.3L705.9 72.3Q703 72.3 700.7 71.0Q698.4 69.7 697.0 67.2Q695.7 64.6 695.7 61.1L695.7 61.1Q695.7 57.5 697.0 55.0Q698.4 52.5 700.7 51.2Q703 49.9 705.9 49.9L705.9 49.9Q708.8 49.9 711.1 51.2Q713.4 52.5 714.7 55.0Q716.1 57.5 716.1 61.1L716.1 61.1Q716.1 64.6 714.7 67.2Q713.4 69.7 711.1 71.0Q708.8 72.3 705.9 72.3ZM705.9 68.3L705.9 68.3Q707.6 68.3 708.9 67.5Q710.1 66.7 710.8 65.0Q711.5 63.4 711.5 61.1L711.5 61.1Q711.5 58.7 710.8 57.1Q710.1 55.5 708.9 54.7Q707.6 53.9 705.9 53.9L705.9 53.9Q704.2 53.9 702.9 54.7Q701.7 55.5 700.9 57.1Q700.2 58.8 700.2 61.1L700.2 61.1Q700.2 63.4 700.9 65.0Q701.7 66.7 702.9 67.5Q704.2 68.3 705.9 68.3ZM728.4 72.3L728.4 72.3Q725.7 72.3 723.7 71.3Q721.7 70.3 720.5 68.5Q719.4 66.7 719.4 64.3L719.4 64.3L719.4 50.2L723.9 50.2L723.9 64.0Q723.9 65.2 724.5 66.2Q725.0 67.2 726.0 67.8Q727.1 68.4 728.4 68.4L728.4 68.4Q729.8 68.4 730.8 67.8Q731.8 67.2 732.4 66.2Q733.0 65.2 733.0 64.0L733.0 64.0L733.0 50.2L737.4 50.2L737.4 64.3Q737.4 66.7 736.3 68.5Q735.2 70.3 733.2 71.3Q731.1 72.3 728.4 72.3ZM745.9 72L741.4 72L741.4 50.2L746.4 50.2L753.3 61.2Q753.8 62.1 754.3 63.1Q754.9 64.1 755.4 65.3L755.4 65.3Q755.7 65.9 756.0 66.6L756.0 66.6Q756.0 66.0 755.9 65.4L755.9 65.4Q755.8 64.0 755.8 62.8Q755.7 61.5 755.7 60.6L755.7 60.6L755.7 50.2L760.3 50.2L760.3 72L755.3 72L749.0 62.0Q748.3 60.9 747.8 59.8Q747.2 58.7 746.5 57.4L746.5 57.4Q746.1 56.7 745.7 55.7L745.7 55.7Q745.7 56.6 745.8 57.4L745.8 57.4Q745.8 58.9 745.9 60.0Q745.9 61.2 745.9 62.0L745.9 62.0L745.9 72ZM770.0 53.9L763.4 53.9L763.4 50.2L781.2 50.2L781.2 53.9L774.5 53.9L774.5 72L770.0 72L770.0 53.9ZM783.8 76.1L783.8 76.1L783.8 72.8Q785.7 72.8 786.3 72.0Q787.0 71.3 787.0 69.7L787.0 69.7L787.0 66.5Q787.0 65.7 787.3 64.9Q787.5 64.2 788.3 63.6L788.3 63.6Q789.0 63.0 790.4 62.6L790.4 62.6L790.4 62.3Q789.0 62.0 788.3 61.4L788.3 61.4Q787.5 60.8 787.3 60.0Q787.0 59.2 787.0 58.4L787.0 58.4L787.0 55.2Q787.0 53.6 786.3 52.9Q785.7 52.2 783.8 52.2L783.8 52.2L783.8 48.8Q785.4 48.8 786.7 49.1Q788.1 49.3 789.0 49.9Q790.0 50.5 790.5 51.7Q791.0 52.9 791.0 54.8L791.0 54.8L791.0 57.4Q791.0 59.0 791.8 59.7L791.8 59.7Q792.5 60.5 794.2 60.5L794.2 60.5L794.3 60.5L794.3 64.4Q792.5 64.5 791.8 65.2Q791.0 65.9 791.0 67.6L791.0 67.6L791.0 70.1Q791.0 72.1 790.5 73.3Q790.0 74.4 789.0 75.0Q788.1 75.7 786.7 75.9Q785.4 76.1 783.8 76.1ZM797.8 76.1L797.8 76.1L797.8 72.8Q799.8 72.8 800.4 72.0Q801.0 71.3 801.0 69.7L801.0 69.7L801.0 66.5Q801.0 65.7 801.3 64.9Q801.6 64.2 802.4 63.6L802.4 63.6Q803.1 63.0 804.5 62.6L804.5 62.6L804.5 62.3Q803.1 62.0 802.4 61.4L802.4 61.4Q801.6 60.8 801.3 60.0Q801.0 59.2 801.0 58.4L801.0 58.4L801.0 55.2Q801.0 53.6 800.4 52.9Q799.8 52.2 797.8 52.2L797.8 52.2L797.8 48.8Q799.5 48.8 800.8 49.1Q802.1 49.3 803.1 49.9Q804.1 50.5 804.6 51.7Q805.1 52.9 805.1 54.8L805.1 54.8L805.1 57.4Q805.1 59.0 805.8 59.7L805.8 59.7Q806.5 60.5 808.3 60.5L808.3 60.5L808.4 60.5L808.4 64.4Q806.5 64.5 805.8 65.2Q805.1 65.9 805.1 67.6L805.1 67.6L805.1 70.1Q805.1 72.1 804.6 73.3Q804.1 74.4 803.1 75.0Q802.1 75.7 800.8 75.9Q799.5 76.1 797.8 76.1Z "/></g><mask id="satori_om-id-4-1"><rect x="628" y="81" width="64" height="13" fill="#fff" mask="url(#satori_om-id)"/></mask><g mask="url(#satori_om-id)" clip-path="url(#satori_cp-id)"><path fill="rgba(167,243,208,0.45)" d="M633.2 92L631.1 92L628.3 84.0L630.1 84.0L631.4 87.9Q631.6 88.6 631.8 89.5L631.8 89.5Q632.0 90.0 632.1 90.7L632.1 90.7Q632.3 90.0 632.5 89.5L632.5 89.5Q632.7 88.6 632.9 87.9L632.9 87.9L634.1 84.0L635.9 84.0L633.2 92ZM638.4 84.0L640.1 84.0L640.1 92L638.4 92L638.4 84.0ZM646.0 92.1L646.0 92.1Q645.0 92.1 644.3 91.8Q643.6 91.5 643.2 90.9Q642.8 90.4 642.8 89.5L642.8 89.5L644.4 89.5Q644.4 89.9 644.6 90.2Q644.8 90.5 645.2 90.6Q645.5 90.7 645.9 90.7L645.9 90.7Q646.4 90.7 646.7 90.6Q647.0 90.5 647.2 90.2Q647.4 90.0 647.4 89.7L647.4 89.7Q647.4 89.4 647.2 89.3Q647.1 89.1 646.8 88.9Q646.5 88.8 646.0 88.7L646.0 88.7L645.1 88.5Q644.1 88.2 643.5 87.7Q643.0 87.2 643.0 86.3L643.0 86.3Q643.0 85.6 643.4 85.0Q643.8 84.5 644.4 84.2Q645.1 83.9 646.0 83.9L646.0 83.9Q646.9 83.9 647.5 84.2Q648.2 84.5 648.6 85.0Q648.9 85.6 648.9 86.3L648.9 86.3L647.4 86.3Q647.3 85.8 646.9 85.5Q646.6 85.3 646.0 85.3L646.0 85.3Q645.6 85.3 645.3 85.4Q645.0 85.5 644.8 85.7Q644.7 85.9 644.7 86.2L644.7 86.2Q644.7 86.5 644.8 86.7Q645.0 86.9 645.3 87.0Q645.6 87.1 645.9 87.2L645.9 87.2L646.7 87.4Q647.2 87.5 647.6 87.7Q648.0 87.9 648.4 88.2Q648.7 88.4 648.9 88.8Q649.0 89.2 649.0 89.7L649.0 89.7Q649.0 90.4 648.7 91.0Q648.3 91.5 647.6 91.8Q646.9 92.1 646.0 92.1ZM651.7 84.0L653.4 84.0L653.4 92L651.7 92L651.7 84.0ZM658.4 85.4L656.0 85.4L656.0 84.0L662.5 84.0L662.5 85.4L660.1 85.4L660.1 92L658.4 92L658.4 85.4ZM668.7 92.1L668.7 92.1Q667.6 92.1 666.8 91.6Q665.9 91.1 665.4 90.2Q664.9 89.3 664.9 88.0L664.9 88.0Q664.9 86.7 665.4 85.8Q665.9 84.9 666.8 84.4Q667.6 83.9 668.7 83.9L668.7 83.9Q669.7 83.9 670.6 84.4Q671.4 84.9 671.9 85.8Q672.4 86.7 672.4 88.0L672.4 88.0Q672.4 89.3 671.9 90.2Q671.4 91.1 670.6 91.6Q669.7 92.1 668.7 92.1ZM668.7 90.7L668.7 90.7Q669.3 90.7 669.8 90.3Q670.2 90.0 670.5 89.5Q670.7 88.9 670.7 88.0L670.7 88.0Q670.7 87.1 670.5 86.5Q670.2 86.0 669.8 85.6Q669.3 85.3 668.7 85.3L668.7 85.3Q668.1 85.3 667.6 85.7Q667.1 86.0 666.9 86.6Q666.6 87.1 666.6 88.0L666.6 88.0Q666.6 88.9 666.9 89.4Q667.1 90.0 667.6 90.3Q668.1 90.7 668.7 90.7ZM676.8 92L675.1 92L675.1 84.0L678.3 84.0Q679.2 84.0 679.8 84.3Q680.4 84.6 680.8 85.2Q681.1 85.8 681.1 86.6Q681.1 87.4 680.8 88.0Q680.4 88.5 679.8 88.8L679.8 88.8Q679.7 88.9 679.7 88.9L679.7 88.9L681.4 92L679.6 92L678.1 89.1L676.8 89.1L676.8 92ZM676.8 85.4L676.8 87.8L678.0 87.8Q678.5 87.8 678.8 87.7Q679.1 87.5 679.3 87.3Q679.4 87.0 679.4 86.6L679.4 86.6Q679.4 86.2 679.3 85.9Q679.1 85.6 678.8 85.5Q678.5 85.4 677.9 85.4L677.9 85.4L676.8 85.4ZM686.8 92.1L686.8 92.1Q685.8 92.1 685.1 91.8Q684.4 91.5 684.0 90.9Q683.6 90.4 683.6 89.5L683.6 89.5L685.2 89.5Q685.2 89.9 685.4 90.2Q685.6 90.5 686.0 90.6Q686.3 90.7 686.8 90.7L686.8 90.7Q687.2 90.7 687.5 90.6Q687.9 90.5 688.0 90.2Q688.2 90.0 688.2 89.7L688.2 89.7Q688.2 89.4 688.1 89.3Q687.9 89.1 687.6 88.9Q687.3 88.8 686.9 88.7L686.9 88.7L686.0 88.5Q685.0 88.2 684.4 87.7Q683.8 87.2 683.8 86.3L683.8 86.3Q683.8 85.6 684.2 85.0Q684.6 84.5 685.3 84.2Q685.9 83.9 686.8 83.9L686.8 83.9Q687.7 83.9 688.4 84.2Q689.0 84.5 689.4 85.0Q689.8 85.6 689.8 86.3L689.8 86.3L688.2 86.3Q688.1 85.8 687.8 85.5Q687.4 85.3 686.8 85.3L686.8 85.3Q686.4 85.3 686.1 85.4Q685.8 85.5 685.6 85.7Q685.5 85.9 685.5 86.2L685.5 86.2Q685.5 86.5 685.7 86.7Q685.8 86.9 686.1 87.0Q686.4 87.1 686.8 87.2L686.8 87.2L687.5 87.4Q688.0 87.5 688.4 87.7Q688.9 87.9 689.2 88.2Q689.5 88.4 689.7 88.8Q689.9 89.2 689.9 89.7L689.9 89.7Q689.9 90.4 689.5 91.0Q689.1 91.5 688.5 91.8Q687.8 92.1 686.8 92.1Z "/></g></svg>