<!-- Generated by readme-aura https://github.com/collectioneur/readme-aura -->
<svg width="860" height="120" viewBox="0 0 860 120" xmlns="http://www.w3.org/2000/svg"><defs><clipPath id="satori_bc-id"><path x="0" y="0" width="860" height="120" d="M16,0 h828 a16,16 0 0 1 16,16 v88 a16,16 0 0 1 -16,16 h-828 a16,16 0 0 1 -16,-16 v-88 a16,16 0 0 1 16,-16"/></clipPath></defs><clipPath id="satori_cp-id"><path x="0" y="0" width="860" height="120" d="M16,0 h828 a16,16 0 0 1 16,16 v88 a16,16 0 0 1 -16,16 h-828 a16,16 0 0 1 -16,-16 v-88 a16,16 0 0 1 16,-16"/></clipPath><mask id="satori_om-id"><rect x="1" y="1" width="858" height="118" fill="#fff"/><path width="860" height="120" fill="none" stroke="#000" stroke-width="2" d="M4.686,4.686 A16,16 0 0 1 16,0 h828 a16,16 0 0 1 16,16 v88 a16,16 0 0 1 -16,16 h-828 a16,16 0 0 1 -16,-16 v-88 A16,16 0 0 1 4.686,4.686"/></mask><path x="0" y="0" width="860" height="120" fill="#0d0b12" d="M16,0 h828 a16,16 0 0 1 16,16 v88 a16,16 0 0 1 -16,16 h-828 a16,16 0 0 1 -16,-16 v-88 a16,16 0 0 1 16,-16"/><path width="860" height="120" clip-path="url(#satori_bc-id)" fill="none" stroke="rgba(236, 72, 153, 0.16)" stroke-width="2" d="M4.686,4.686 A16,16 0 0 1 16,0 h828 a16,16 0 0 1 16,16 v88 a16,16 0 0 1 -16,16 h-828 a16,16 0 0 1 -16,-16 v-88 A16,16 0 0 1 4.686,4.686"/><clipPath id="satori_cp-id-0" clip-path="url(#satori_cp-id)"><rect x="1" y="1" width="860" height="120"/></clipPath><mask id="satori_om-id-0"><rect x="1" y="1" width="860" height="120" fill="#fff" mask="url(#satori_om-id)"/></mask><svg x="1" y="1" width="860" height="120" preserveAspectRatio="none" clip-path="url(#satori_cp-id-0)" mask="url(#satori_om-id-0)"><defs><radialGradient id="nproj2" cx="50%" cy="50%" r="50%"><stop offset="0%" stop-color="rgba(147, 51, 234, 0.12)"></stop><stop offset="100%" stop-color="rgba(147, 51, 234, 0)"></stop></radialGradient></defs><ellipse cx="750" cy="60" rx="120" ry="50" fill="url(#nproj2)"></ellipse></svg><mask id="satori_om-id-0-0"><rect x="1" y="1" width="0" height="120" fill="#fff" mask="url(#satori_om-id)"/></mask><mask id="satori_om-id-0-0-0"><rect x="1" y="1" width="0" height="120" fill="#fff" mask="url(#satori_om-id)"/></mask><mask id="satori_om-id-0-0-0-0"><rect x="1" y="1" width="0" height="120" fill="#fff" mask="url(#satori_om-id)"/></mask><mask id="satori_om-id-0-0-0-1"><rect x="1" y="1" width="0" height="120" fill="#fff" mask="url(#satori_om-id)"/></mask><mask id="satori_om-id-0-1"><rect x="1" y="1" width="0" height="120" fill="#fff" mask="url(#satori_om-id)"/></mask><mask id="satori_om-id-1"><rect x="33" y="28" width="580" height="64" fill="#fff" mask="url(#satori_om-id)"/></mask><mask id="satori_om-id-1-0"><rect x="33" y="28" width="580" height="22" fill="#fff" mask="url(#satori_om-id)"/></mask><g mask="url(#satori_om-id)" clip-path="url(#satori_cp-id)"><path fill="#ffffff" d="M39.7 45L34.2 45L34.2 31.9L39.4 31.9Q40.8 31.9 41.8 32.3Q42.7 32.8 43.2 33.5Q43.7 34.3 43.7 35.3L43.7 35.3Q43.7 36.0 43.4 36.6Q43.1 37.2 42.6 37.6Q42.0 37.9 41.3 38.1L41.3 38.1L41.3 38.2Q42.1 38.2 42.7 38.6Q43.4 39.0 43.8 39.7Q44.2 40.4 44.2 41.4L44.2 41.4Q44.2 42.4 43.7 43.2Q43.2 44.1 42.2 44.5Q41.2 45 39.7 45L39.7 45ZM36.9 39.2L36.9 42.8L39.2 42.8Q40.4 42.8 40.9 42.3Q41.5 41.9 41.5 41.1L41.5 41.1Q41.5 40.6 41.2 40.2Q40.9 39.7 40.4 39.5Q39.9 39.2 39.3 39.2L39.3 39.2L36.9 39.2ZM36.9 34.1L36.9 37.4L39.0 37.4Q39.6 37.4 40.0 37.2Q40.5 37.0 40.7 36.6Q41.0 36.2 41.0 35.7L41.0 35.7Q41.0 35.0 40.5 34.5Q40.0 34.1 39.0 34.1L39.0 34.1L36.9 34.1ZM46.3 31.9L49.0 31.9L49.0 45L46.3 45L46.3 31.9ZM54.9 45.1L54.9 45.1Q53.9 45.1 53.1 44.7Q52.3 44.2 51.9 43.4Q51.5 42.6 51.5 41.4L51.5 41.4L51.5 35.2L54.1 35.2L54.1 41.0Q54.1 41.9 54.6 42.4Q55.1 42.9 55.9 42.9L55.9 42.9Q56.5 42.9 56.9 42.7Q57.3 42.4 57.6 42.0Q57.8 41.5 57.8 40.9L57.8 40.9L57.8 35.2L60.5 35.2L60.5 45L58.0 45L58.0 43.0Q57.6 43.9 56.9 44.5L56.9 44.5Q56.1 45.1 54.9 45.1ZM65.7 39.3L65.7 39.3L65.7 45L63.0 45L63.0 35.2L65.5 35.2L65.5 37.2Q65.9 36.3 66.6 35.7L66.6 35.7Q67.4 35.1 68.6 35.1L68.6 35.1Q69.6 35.1 70.4 35.5Q71.1 35.9 71.6 36.8Q72.0 37.6 72.0 38.8L72.0 38.8L72.0 45L69.3 45L69.3 39.2Q69.3 38.3 68.9 37.8Q68.4 37.3 67.6 37.3L67.6 37.3Q67.0 37.3 66.6 37.5Q66.1 37.7 65.9 38.2Q65.7 38.7 65.7 39.3ZM77.6 35.2L79.4 35.2L79.4 37.2L77.6 37.2L77.6 42.1Q77.6 42.6 77.8 42.8Q78.0 43.0 78.5 43.0L78.5 43.0Q78.6 43.0 78.9 43.0Q79.2 43.0 79.3 42.9L79.3 42.9L79.7 44.9Q79.2 45.0 78.8 45.1Q78.4 45.1 78.0 45.1L78.0 45.1Q76.5 45.1 75.7 44.4Q74.9 43.7 74.9 42.4L74.9 42.4L74.9 37.2L73.6 37.2L73.6 35.2L74.9 35.2L74.9 32.8L77.6 32.8L77.6 35.2ZM81.4 31.9L84.1 31.9L84.1 45L81.4 45L81.4 31.9ZM86.5 48.5L86.5 48.5L87.1 46.5L87.5 46.6Q88.0 46.7 88.4 46.7Q88.8 46.6 89.1 46.3Q89.3 46.0 89.4 45.6L89.4 45.6L89.4 45.0L85.7 35.2L88.5 35.2L90.2 40.3Q90.5 41.2 90.7 42.2L90.7 42.2Q90.8 42.5 90.8 42.9L90.8 42.9Q90.9 42.5 91.0 42.2L91.0 42.2Q91.2 41.2 91.5 40.3L91.5 40.3L93.3 35.2L96.0 35.2L91.8 46.2Q91.6 47.0 91.1 47.5Q90.6 48.1 89.9 48.4Q89.2 48.7 88.2 48.7L88.2 48.7Q87.7 48.7 87.3 48.7Q86.8 48.6 86.5 48.5Z "/></g><mask id="satori_om-id-1-1"><rect x="33" y="56" width="580" height="36" fill="#fff" mask="url(#satori_om-id)"/></mask><g mask="url(#satori_om-id)" clip-path="url(#satori_cp-id)"><path fill="rgba(244, 220, 255, 0.75)" d="M34.6 70L33.3 70L36.8 60.5L38.2 60.5L41.6 70L40.4 70L39.4 67.4L35.5 67.4L34.6 70ZM35.9 66.3L39.0 66.3L38.4 64.4Q38.2 63.9 37.9 63.1L37.9 63.1Q37.7 62.4 37.5 61.5L37.5 61.5Q37.2 62.5 37.0 63.1L37.0 63.1Q36.7 63.9 36.6 64.4L36.6 64.4L35.9 66.3ZM44.4 65.7L44.4 65.7L44.4 70L43.3 70L43.3 62.9L44.4 62.9L44.4 64.2Q44.7 63.6 45.1 63.2L45.1 63.2Q45.7 62.8 46.5 62.8L46.5 62.8Q47.3 62.8 47.8 63.1Q48.3 63.4 48.6 64.0Q48.9 64.6 48.9 65.5L48.9 65.5L48.9 70L47.8 70L47.8 65.6Q47.8 64.8 47.4 64.3Q46.9 63.8 46.2 63.8L46.2 63.8Q45.7 63.8 45.3 64.1Q44.9 64.3 44.6 64.7Q44.4 65.1 44.4 65.7Z M55.6 70L54.3 70L57.8 60.5L59.2 60.5L62.6 70L61.4 70L60.4 67.4L56.5 67.4L55.6 70ZM56.9 66.3L60.0 66.3L59.4 64.4Q59.2 63.9 58.9 63.1L58.9 63.1Q58.7 62.4 58.5 61.5L58.5 61.5Q58.2 62.5 58.0 63.1L58.0 63.1Q57.7 63.9 57.6 64.4L57.6 64.4L56.9 66.3ZM64.4 60.5L65.6 60.5L65.6 70L64.4 70L64.4 60.5ZM68.0 65.4L72.1 65.4L72.1 66.5L68.0 66.5L68.0 65.4ZM75.5 72.7L74.3 72.7L74.3 62.9L75.4 62.9L75.4 64.0L75.6 64.0Q75.7 63.8 75.9 63.6Q76.1 63.3 76.5 63.0Q76.9 62.8 77.6 62.8L77.6 62.8Q78.5 62.8 79.2 63.3Q79.9 63.7 80.3 64.5Q80.6 65.3 80.6 66.5L80.6 66.5Q80.6 67.6 80.3 68.4Q79.9 69.3 79.2 69.7Q78.5 70.2 77.6 70.2L77.6 70.2Q77.0 70.2 76.6 69.9Q76.1 69.7 75.9 69.4Q75.7 69.1 75.6 68.9L75.6 68.9L75.5 68.9L75.5 72.7ZM77.5 69.1L77.5 69.1Q78.1 69.1 78.6 68.8Q79.0 68.4 79.3 67.8Q79.5 67.2 79.5 66.5L79.5 66.5Q79.5 65.7 79.3 65.1Q79.0 64.5 78.6 64.2Q78.1 63.8 77.5 63.8L77.5 63.8Q76.8 63.8 76.4 64.2Q75.9 64.5 75.7 65.1Q75.5 65.7 75.5 66.5L75.5 66.5Q75.5 67.2 75.7 67.8Q75.9 68.5 76.4 68.8Q76.8 69.1 77.5 69.1ZM85.5 70.2L85.5 70.2Q84.5 70.2 83.8 69.7Q83.1 69.2 82.7 68.4Q82.3 67.6 82.3 66.5L82.3 66.5Q82.3 65.4 82.7 64.6Q83.1 63.7 83.8 63.3Q84.5 62.8 85.5 62.8L85.5 62.8Q86.5 62.8 87.2 63.3Q87.9 63.7 88.3 64.6Q88.7 65.4 88.7 66.5L88.7 66.5Q88.7 67.6 88.3 68.4Q87.9 69.2 87.2 69.7Q86.5 70.2 85.5 70.2ZM85.5 69.1L85.5 69.1Q86.2 69.1 86.7 68.8Q87.1 68.4 87.4 67.8Q87.6 67.2 87.6 66.5L87.6 66.5Q87.6 65.8 87.4 65.2Q87.1 64.6 86.7 64.2Q86.2 63.8 85.5 63.8L85.5 63.8Q84.8 63.8 84.3 64.2Q83.9 64.6 83.6 65.2Q83.4 65.8 83.4 66.5L83.4 66.5Q83.4 67.2 83.6 67.8Q83.9 68.4 84.3 68.8Q84.8 69.1 85.5 69.1ZM93.4 70L92.3 70L90.1 62.9L91.4 62.9L92.2 66.0Q92.4 66.6 92.6 67.4L92.6 67.4Q92.7 68.0 92.9 68.8L92.9 68.8Q93.0 68.1 93.2 67.5L93.2 67.5Q93.4 66.7 93.6 66.0L93.6 66.0L94.4 62.9L95.6 62.9L96.5 66.0Q96.7 66.7 96.8 67.5L96.8 67.5Q97.0 68.1 97.1 68.8L97.1 68.8Q97.3 68.1 97.4 67.5L97.4 67.5Q97.6 66.7 97.8 66.0L97.8 66.0L98.7 62.9L99.9 62.9L97.7 70L96.6 70L95.7 66.8Q95.5 66.3 95.4 65.8Q95.3 65.3 95.1 64.8L95.1 64.8Q95.1 64.5 95.0 64.2L95.0 64.2Q95.0 64.5 94.9 64.7L94.9 64.7Q94.8 65.3 94.6 65.8Q94.5 66.3 94.3 66.8L94.3 66.8L93.4 70ZM104.6 70.2L104.6 70.2Q103.6 70.2 102.8 69.7Q102.1 69.2 101.7 68.4Q101.3 67.6 101.3 66.5Q101.3 65.4 101.7 64.6Q102.1 63.8 102.8 63.3Q103.5 62.8 104.5 62.8L104.5 62.8Q105.1 62.8 105.6 63.0Q106.1 63.2 106.6 63.6Q107.0 64.0 107.3 64.7Q107.6 65.4 107.6 66.4L107.6 66.4L107.6 66.8L102.4 66.8Q102.5 67.5 102.7 68.0L102.7 68.0Q103.0 68.6 103.5 68.9Q104.0 69.1 104.6 69.1L104.6 69.1Q105.0 69.1 105.4 69.0Q105.7 68.9 106.0 68.7Q106.2 68.4 106.4 68.0L106.4 68.0L107.5 68.3Q107.3 68.9 106.9 69.3Q106.5 69.7 105.9 69.9Q105.3 70.2 104.6 70.2ZM102.5 65.9L102.5 65.9L106.4 65.9Q106.4 65.4 106.2 65.0L106.2 65.0Q106.0 64.4 105.6 64.1Q105.1 63.8 104.5 63.8Q103.8 63.8 103.4 64.1Q102.9 64.5 102.7 65.0L102.7 65.0Q102.5 65.4 102.5 65.9ZM110.7 70L109.5 70L109.5 62.9L110.6 62.9L110.6 64.0L110.7 64.0Q110.9 63.5 111.4 63.1Q111.9 62.8 112.5 62.8L112.5 62.8Q112.7 62.8 112.8 62.8Q113.0 62.8 113.1 62.8L113.1 62.8L113.1 64.0Q113.1 64.0 112.9 63.9Q112.7 63.9 112.4 63.9L112.4 63.9Q111.9 63.9 111.5 64.1Q111.1 64.3 110.9 64.7Q110.7 65.1 110.7 65.6L110.7 65.6L110.7 70ZM117.7 70.2L117.7 70.2Q116.7 70.2 115.9 69.7Q115.2 69.2 114.8 68.4Q114.4 67.6 114.4 66.5Q114.4 65.4 114.8 64.6Q115.2 63.8 115.9 63.3Q116.6 62.8 117.6 62.8L117.6 62.8Q118.1 62.8 118.7 63.0Q119.2 63.2 119.7 63.6Q120.1 64.0 120.4 64.7Q120.7 65.4 120.7 66.4L120.7 66.4L120.7 66.8L115.5 66.8Q115.5 67.5 115.8 68.0L115.8 68.0Q116.1 68.6 116.6 68.9Q117.1 69.1 117.7 69.1L117.7 69.1Q118.1 69.1 118.5 69.0Q118.8 68.9 119.1 68.7Q119.3 68.4 119.4 68.0L119.4 68.0L120.5 68.3Q120.4 68.9 120.0 69.3Q119.6 69.7 119.0 69.9Q118.4 70.2 117.7 70.2ZM115.5 65.9L115.5 65.9L119.5 65.9Q119.4 65.4 119.3 65.0L119.3 65.0Q119.1 64.4 118.6 64.1Q118.2 63.8 117.6 63.8Q116.9 63.8 116.5 64.1Q116.0 64.5 115.8 65.0L115.8 65.0Q115.6 65.4 115.5 65.9ZM125.2 70.2L125.2 70.2Q124.4 70.2 123.7 69.7Q123.0 69.3 122.6 68.4Q122.2 67.6 122.2 66.5L122.2 66.5Q122.2 65.3 122.6 64.5Q123.0 63.7 123.7 63.3Q124.4 62.8 125.3 62.8L125.3 62.8Q125.9 62.8 126.4 63.0Q126.8 63.3 127.0 63.6Q127.2 63.8 127.3 64.0L127.3 64.0L127.4 64.0L127.4 60.5L128.5 60.5L128.5 70L127.4 70L127.4 68.9L127.3 68.9Q127.2 69.1 127.0 69.4Q126.7 69.7 126.3 69.9Q125.9 70.2 125.2 70.2ZM125.4 69.1L125.4 69.1Q126.1 69.1 126.5 68.8Q127.0 68.5 127.2 67.8Q127.4 67.2 127.4 66.5L127.4 66.5Q127.4 65.7 127.2 65.1Q127.0 64.5 126.5 64.2Q126.1 63.8 125.4 63.8L125.4 63.8Q124.7 63.8 124.3 64.2Q123.9 64.5 123.6 65.1Q123.4 65.7 123.4 66.5L123.4 66.5Q123.4 67.2 123.6 67.8Q123.9 68.4 124.3 68.8Q124.8 69.1 125.4 69.1Z M137.9 70.2L137.9 70.2Q136.9 70.2 136.2 69.7Q135.5 69.2 135.1 68.4Q134.7 67.6 134.7 66.5L134.7 66.5Q134.7 65.4 135.1 64.6Q135.5 63.7 136.2 63.3Q136.9 62.8 137.9 62.8L137.9 62.8Q138.4 62.8 138.9 62.9Q139.3 63.1 139.7 63.3Q140.1 63.6 140.3 63.9Q140.6 64.3 140.8 64.8L140.8 64.8L139.7 65.1Q139.6 64.8 139.4 64.6Q139.3 64.4 139.0 64.2Q138.8 64.0 138.5 63.9Q138.2 63.8 137.9 63.8L137.9 63.8Q137.2 63.8 136.7 64.2Q136.3 64.6 136.0 65.2Q135.8 65.8 135.8 66.5L135.8 66.5Q135.8 67.2 136.0 67.8Q136.3 68.4 136.7 68.8Q137.2 69.1 137.9 69.1L137.9 69.1Q138.2 69.1 138.5 69.0Q138.8 68.9 139.1 68.8Q139.3 68.6 139.5 68.3Q139.6 68.1 139.7 67.8L139.7 67.8L140.8 68.1Q140.7 68.6 140.4 69.0Q140.1 69.4 139.7 69.6Q139.3 69.9 138.9 70.0Q138.4 70.2 137.9 70.2ZM145.6 70.2L145.6 70.2Q144.7 70.2 143.9 69.7Q143.2 69.2 142.8 68.4Q142.4 67.6 142.4 66.5L142.4 66.5Q142.4 65.4 142.8 64.6Q143.2 63.7 143.9 63.3Q144.7 62.8 145.6 62.8L145.6 62.8Q146.6 62.8 147.3 63.3Q148.0 63.7 148.5 64.6Q148.9 65.4 148.9 66.5L148.9 66.5Q148.9 67.6 148.5 68.4Q148.0 69.2 147.3 69.7Q146.6 70.2 145.6 70.2ZM145.6 69.1L145.6 69.1Q146.3 69.1 146.8 68.8Q147.3 68.4 147.5 67.8Q147.7 67.2 147.7 66.5L147.7 66.5Q147.7 65.8 147.5 65.2Q147.3 64.6 146.8 64.2Q146.3 63.8 145.6 63.8L145.6 63.8Q144.9 63.8 144.4 64.2Q144.0 64.6 143.8 65.2Q143.5 65.8 143.5 66.5L143.5 66.5Q143.5 67.2 143.8 67.8Q144.0 68.4 144.4 68.8Q144.9 69.1 145.6 69.1ZM152.0 70L150.8 70L150.8 62.9L151.9 62.9L151.9 64.2Q152.1 63.8 152.3 63.5L152.3 63.5Q152.6 63.2 153.0 63.0Q153.5 62.8 153.9 62.8L153.9 62.8Q154.7 62.8 155.2 63.3L155.2 63.3Q155.6 63.6 155.7 64.2L155.7 64.2Q155.9 63.9 156.1 63.6L156.1 63.6Q156.4 63.2 156.9 63.0Q157.4 62.8 158.0 62.8L158.0 62.8Q158.6 62.8 159.1 63.0Q159.6 63.3 159.9 63.8Q160.2 64.4 160.2 65.2L160.2 65.2L160.2 70L159.1 70L159.1 65.2Q159.1 64.5 158.6 64.1Q158.2 63.8 157.6 63.8L157.6 63.8Q157.2 63.8 156.8 64.0Q156.5 64.2 156.3 64.6Q156.1 64.9 156.1 65.4L156.1 65.4L156.1 70L154.9 70L154.9 65.1Q154.9 64.5 154.6 64.2Q154.2 63.8 153.6 63.8L153.6 63.8Q153.1 63.8 152.8 64.0Q152.4 64.2 152.2 64.6Q152.0 65.0 152.0 65.5L152.0 65.5L152.0 70ZM163.7 70L162.5 70L162.5 62.9L163.6 62.9L163.6 64.2Q163.8 63.8 164.0 63.5L164.0 63.5Q164.3 63.2 164.7 63.0Q165.2 62.8 165.6 62.8L165.6 62.8Q166.4 62.8 166.9 63.3L166.9 63.3Q167.3 63.6 167.4 64.2L167.4 64.2Q167.6 63.9 167.8 63.6L167.8 63.6Q168.1 63.2 168.6 63.0Q169.1 62.8 169.7 62.8L169.7 62.8Q170.3 62.8 170.8 63.0Q171.3 63.3 171.6 63.8Q171.9 64.4 171.9 65.2L171.9 65.2L171.9 70L170.8 70L170.8 65.2Q170.8 64.5 170.3 64.1Q169.9 63.8 169.3 63.8L169.3 63.8Q168.8 63.8 168.5 64.0Q168.1 64.2 168.0 64.6Q167.8 64.9 167.8 65.4L167.8 65.4L167.8 70L166.6 70L166.6 65.1Q166.6 64.5 166.2 64.2Q165.8 63.8 165.2 63.8L165.2 63.8Q164.8 63.8 164.5 64.0Q164.1 64.2 163.9 64.6Q163.7 65.0 163.7 65.5L163.7 65.5L163.7 70ZM176.6 70.1L176.6 70.1Q175.9 70.1 175.3 69.8Q174.8 69.5 174.5 68.9Q174.2 68.3 174.2 67.4L174.2 67.4L174.2 62.9L175.3 62.9L175.3 67.3Q175.3 68.1 175.8 68.6Q176.2 69.1 176.9 69.1L176.9 69.1Q177.5 69.1 177.9 68.8Q178.3 68.6 178.5 68.2Q178.7 67.8 178.7 67.2L178.7 67.2L178.7 62.9L179.9 62.9L179.9 70L178.8 70L178.8 68.7Q178.5 69.4 178.0 69.7L178.0 69.7Q177.4 70.1 176.6 70.1ZM183.3 65.7L183.3 65.7L183.3 70L182.2 70L182.2 62.9L183.3 62.9L183.3 64.2Q183.6 63.6 184.1 63.2L184.1 63.2Q184.7 62.8 185.5 62.8L185.5 62.8Q186.2 62.8 186.7 63.1Q187.3 63.4 187.6 64.0Q187.9 64.6 187.9 65.5L187.9 65.5L187.9 70L186.7 70L186.7 65.6Q186.7 64.8 186.3 64.3Q185.9 63.8 185.1 63.8L185.1 63.8Q184.6 63.8 184.2 64.1Q183.8 64.3 183.6 64.7Q183.3 65.1 183.3 65.7ZM191.3 70L190.2 70L190.2 62.9L191.3 62.9L191.3 70ZM190.7 61.7L190.7 61.7Q190.4 61.7 190.2 61.5Q190.0 61.3 190.0 61.0L190.0 61.0Q190.0 60.7 190.2 60.4Q190.4 60.2 190.7 60.2L190.7 60.2Q191.1 60.2 191.3 60.4Q191.5 60.7 191.5 61.0L191.5 61.0Q191.5 61.3 191.3 61.5Q191.1 61.7 190.7 61.7ZM196.5 70.2L196.5 70.2Q195.5 70.2 194.8 69.7Q194.1 69.2 193.7 68.4Q193.3 67.6 193.3 66.5L193.3 66.5Q193.3 65.4 193.7 64.6Q194.1 63.7 194.8 63.3Q195.5 62.8 196.5 62.8L196.5 62.8Q197.0 62.8 197.5 62.9Q197.9 63.1 198.3 63.3Q198.7 63.6 199.0 63.9Q199.2 64.3 199.4 64.8L199.4 64.8L198.3 65.1Q198.2 64.8 198.0 64.6Q197.9 64.4 197.7 64.2Q197.4 64.0 197.1 63.9Q196.9 63.8 196.5 63.8L196.5 63.8Q195.8 63.8 195.3 64.2Q194.9 64.6 194.7 65.2Q194.4 65.8 194.4 66.5L194.4 66.5Q194.4 67.2 194.7 67.8Q194.9 68.4 195.3 68.8Q195.8 69.1 196.5 69.1L196.5 69.1Q196.9 69.1 197.2 69.0Q197.5 68.9 197.7 68.8Q197.9 68.6 198.1 68.3Q198.2 68.1 198.3 67.8L198.3 67.8L199.4 68.1Q199.3 68.6 199.0 69.0Q198.7 69.4 198.3 69.6Q198.0 69.9 197.5 70.0Q197.0 70.2 196.5 70.2ZM203.3 70.2L203.3 70.2Q202.7 70.2 202.1 69.9Q201.6 69.7 201.2 69.2Q200.9 68.7 200.9 68.0L200.9 68.0Q200.9 67.4 201.2 67.0Q201.4 66.6 201.8 66.4Q202.2 66.2 202.7 66.1Q203.2 66.0 203.7 65.9L203.7 65.9Q204.3 65.8 204.7 65.8Q205.1 65.7 205.3 65.6Q205.5 65.5 205.5 65.2L205.5 65.2L205.5 65.2Q205.5 64.8 205.3 64.5Q205.2 64.1 204.8 64.0Q204.5 63.8 204.0 63.8L204.0 63.8Q203.5 63.8 203.1 64.0Q202.8 64.1 202.6 64.4Q202.3 64.6 202.2 64.9L202.2 64.9L201.1 64.5Q201.4 63.8 201.9 63.5Q202.3 63.1 202.9 63.0Q203.4 62.8 204.0 62.8L204.0 62.8Q204.3 62.8 204.8 62.9Q205.2 63.0 205.7 63.2Q206.1 63.5 206.4 64.0Q206.6 64.5 206.6 65.3L206.6 65.3L206.6 70L205.5 70L205.5 69.0L205.4 69.0Q205.3 69.3 205.0 69.5Q204.8 69.8 204.4 70.0Q203.9 70.2 203.3 70.2ZM203.5 69.2L203.5 69.2Q204.2 69.2 204.6 68.9Q205.0 68.7 205.3 68.3Q205.5 67.9 205.5 67.4L205.5 67.4L205.5 66.5Q205.4 66.5 205.2 66.6Q205.0 66.7 204.7 66.7Q204.4 66.8 204.1 66.8Q203.8 66.8 203.6 66.9L203.6 66.9Q203.2 66.9 202.9 67.0Q202.5 67.2 202.3 67.4Q202.1 67.6 202.1 68.0L202.1 68.0Q202.1 68.4 202.3 68.7Q202.4 68.9 202.8 69.0Q203.1 69.2 203.5 69.2ZM210.3 62.9L211.7 62.9L211.7 63.9L210.3 63.9L210.3 68.2Q210.3 68.6 210.5 68.9Q210.7 69.1 211.1 69.1L211.1 69.1Q211.2 69.1 211.4 69.0Q211.6 69.0 211.7 69.0L211.7 69.0L211.9 70.0Q211.8 70.0 211.5 70.1Q211.3 70.1 211.1 70.1L211.1 70.1Q210.2 70.1 209.6 69.6Q209.1 69.1 209.1 68.2L209.1 68.2L209.1 63.9L208.1 63.9L208.1 62.9L209.1 62.9L209.1 61.2L210.3 61.2L210.3 62.9ZM214.6 70L213.5 70L213.5 62.9L214.6 62.9L214.6 70ZM214.1 61.7L214.1 61.7Q213.7 61.7 213.5 61.5Q213.3 61.3 213.3 61.0L213.3 61.0Q213.3 60.7 213.5 60.4Q213.7 60.2 214.1 60.2L214.1 60.2Q214.4 60.2 214.6 60.4Q214.9 60.7 214.9 61.0L214.9 61.0Q214.9 61.3 214.6 61.5Q214.4 61.7 214.1 61.7ZM219.8 70.2L219.8 70.2Q218.9 70.2 218.1 69.7Q217.4 69.2 217.0 68.4Q216.6 67.6 216.6 66.5L216.6 66.5Q216.6 65.4 217.0 64.6Q217.4 63.7 218.1 63.3Q218.9 62.8 219.8 62.8L219.8 62.8Q220.8 62.8 221.5 63.3Q222.3 63.7 222.7 64.6Q223.1 65.4 223.1 66.5L223.1 66.5Q223.1 67.6 222.7 68.4Q222.3 69.2 221.5 69.7Q220.8 70.2 219.8 70.2ZM219.8 69.1L219.8 69.1Q220.5 69.1 221.0 68.8Q221.5 68.4 221.7 67.8Q221.9 67.2 221.9 66.5L221.9 66.5Q221.9 65.8 221.7 65.2Q221.5 64.6 221.0 64.2Q220.5 63.8 219.8 63.8L219.8 63.8Q219.1 63.8 218.7 64.2Q218.2 64.6 218.0 65.2Q217.8 65.8 217.8 66.5L217.8 66.5Q217.8 67.2 218.0 67.8Q218.2 68.4 218.7 68.8Q219.1 69.1 219.8 69.1ZM226.2 65.7L226.2 65.7L226.2 70L225.0 70L225.0 62.9L226.1 62.9L226.1 64.2Q226.4 63.6 226.9 63.2L226.9 63.2Q227.5 62.8 228.3 62.8L228.3 62.8Q229.0 62.8 229.6 63.1Q230.1 63.4 230.4 64.0Q230.7 64.6 230.7 65.5L230.7 65.5L230.7 70L229.6 70L229.6 65.6Q229.6 64.8 229.1 64.3Q228.7 63.8 228.0 63.8L228.0 63.8Q227.5 63.8 227.1 64.1Q226.7 64.3 226.4 64.7Q226.2 65.1 226.2 65.7Z M238.1 72.7L237.0 72.7L237.0 62.9L238.1 62.9L238.1 64.0L238.2 64.0Q238.4 63.8 238.6 63.6Q238.8 63.3 239.2 63.0Q239.6 62.8 240.3 62.8L240.3 62.8Q241.2 62.8 241.9 63.3Q242.5 63.7 242.9 64.5Q243.3 65.3 243.3 66.5L243.3 66.5Q243.3 67.6 242.9 68.4Q242.5 69.3 241.9 69.7Q241.2 70.2 240.3 70.2L240.3 70.2Q239.6 70.2 239.2 69.9Q238.8 69.7 238.6 69.4Q238.4 69.1 238.2 68.9L238.2 68.9L238.1 68.9L238.1 72.7ZM240.1 69.1L240.1 69.1Q240.8 69.1 241.2 68.8Q241.7 68.4 241.9 67.8Q242.1 67.2 242.1 66.5L242.1 66.5Q242.1 65.7 241.9 65.1Q241.7 64.5 241.2 64.2Q240.8 63.8 240.1 63.8L240.1 63.8Q239.5 63.8 239.0 64.2Q238.6 64.5 238.4 65.1Q238.1 65.7 238.1 66.5L238.1 66.5Q238.1 67.2 238.4 67.8Q238.6 68.5 239.0 68.8Q239.5 69.1 240.1 69.1ZM245.3 60.5L246.4 60.5L246.4 70L245.3 70L245.3 60.5ZM250.7 70.2L250.7 70.2Q250.0 70.2 249.5 69.9Q248.9 69.7 248.6 69.2Q248.3 68.7 248.3 68.0L248.3 68.0Q248.3 67.4 248.5 67.0Q248.8 66.6 249.2 66.4Q249.6 66.2 250.1 66.1Q250.5 66.0 251.0 65.9L251.0 65.9Q251.7 65.8 252.1 65.8Q252.5 65.7 252.7 65.6Q252.9 65.5 252.9 65.2L252.9 65.2L252.9 65.2Q252.9 64.8 252.7 64.5Q252.5 64.1 252.2 64.0Q251.9 63.8 251.4 63.8L251.4 63.8Q250.9 63.8 250.5 64.0Q250.1 64.1 249.9 64.4Q249.7 64.6 249.6 64.9L249.6 64.9L248.5 64.5Q248.8 63.8 249.2 63.5Q249.7 63.1 250.2 63.0Q250.8 62.8 251.3 62.8L251.3 62.8Q251.7 62.8 252.2 62.9Q252.6 63.0 253.0 63.2Q253.5 63.5 253.7 64.0Q254.0 64.5 254.0 65.3L254.0 65.3L254.0 70L252.9 70L252.9 69.0L252.8 69.0Q252.7 69.3 252.4 69.5Q252.2 69.8 251.7 70.0Q251.3 70.2 250.7 70.2ZM250.9 69.2L250.9 69.2Q251.5 69.2 252.0 68.9Q252.4 68.7 252.6 68.3Q252.9 67.9 252.9 67.4L252.9 67.4L252.9 66.5Q252.8 66.5 252.6 66.6Q252.3 66.7 252.0 66.7Q251.7 66.8 251.4 66.8Q251.2 66.8 251.0 66.9L251.0 66.9Q250.6 66.9 250.2 67.0Q249.9 67.2 249.6 67.4Q249.4 67.6 249.4 68.0L249.4 68.0Q249.4 68.4 249.6 68.7Q249.8 68.9 250.1 69.0Q250.5 69.2 250.9 69.2ZM257.6 62.9L259.1 62.9L259.1 63.9L257.6 63.9L257.6 68.2Q257.6 68.6 257.8 68.9Q258.0 69.1 258.5 69.1L258.5 69.1Q258.6 69.1 258.8 69.0Q258.9 69.0 259.1 69.0L259.1 69.0L259.3 70.0Q259.1 70.0 258.9 70.1Q258.7 70.1 258.5 70.1L258.5 70.1Q257.5 70.1 257.0 69.6Q256.5 69.1 256.5 68.2L256.5 68.2L256.5 63.9L255.4 63.9L255.4 62.9L256.5 62.9L256.5 61.2L257.6 61.2L257.6 62.9ZM262.5 62.9L264.2 62.9L264.2 63.9L262.5 63.9L262.5 70L261.4 70L261.4 63.9L260.0 63.9L260.0 62.9L261.4 62.9L261.4 62.0Q261.4 61.3 261.7 60.9Q262.0 60.5 262.4 60.3Q262.9 60.1 263.4 60.1L263.4 60.1Q263.8 60.1 264.1 60.2Q264.3 60.2 264.5 60.3L264.5 60.3L264.2 61.3Q264.1 61.2 263.9 61.2Q263.8 61.2 263.5 61.2L263.5 61.2Q263.0 61.2 262.8 61.4Q262.5 61.7 262.5 62.2L262.5 62.2L262.5 62.9ZM268.9 70.2L268.9 70.2Q267.9 70.2 267.2 69.7Q266.4 69.2 266.0 68.4Q265.6 67.6 265.6 66.5L265.6 66.5Q265.6 65.4 266.0 64.6Q266.4 63.7 267.2 63.3Q267.9 62.8 268.9 62.8L268.9 62.8Q269.8 62.8 270.6 63.3Q271.3 63.7 271.7 64.6Q272.1 65.4 272.1 66.5L272.1 66.5Q272.1 67.6 271.7 68.4Q271.3 69.2 270.6 69.7Q269.8 70.2 268.9 70.2ZM268.9 69.1L268.9 69.1Q269.6 69.1 270.0 68.8Q270.5 68.4 270.7 67.8Q271.0 67.2 271.0 66.5L271.0 66.5Q271.0 65.8 270.7 65.2Q270.5 64.6 270.0 64.2Q269.6 63.8 268.9 63.8L268.9 63.8Q268.2 63.8 267.7 64.2Q267.2 64.6 267.0 65.2Q266.8 65.8 266.8 66.5L266.8 66.5Q266.8 67.2 267.0 67.8Q267.2 68.4 267.7 68.8Q268.2 69.1 268.9 69.1ZM275.2 70L274.1 70L274.1 62.9L275.2 62.9L275.2 64.0L275.3 64.0Q275.4 63.5 276.0 63.1Q276.5 62.8 277.1 62.8L277.1 62.8Q277.2 62.8 277.4 62.8Q277.6 62.8 277.7 62.8L277.7 62.8L277.7 64.0Q277.6 64.0 277.4 63.9Q277.2 63.9 277.0 63.9L277.0 63.9Q276.5 63.9 276.1 64.1Q275.7 64.3 275.4 64.7Q275.2 65.1 275.2 65.6L275.2 65.6L275.2 70ZM280.4 70L279.3 70L279.3 62.9L280.4 62.9L280.4 64.2Q280.5 63.8 280.8 63.5L280.8 63.5Q281.1 63.2 281.5 63.0Q281.9 62.8 282.4 62.8L282.4 62.8Q283.1 62.8 283.6 63.3L283.6 63.3Q284.0 63.6 284.2 64.2L284.2 64.2Q284.3 63.9 284.6 63.6L284.6 63.6Q284.9 63.2 285.4 63.0Q285.8 62.8 286.4 62.8L286.4 62.8Q287.0 62.8 287.5 63.0Q288.0 63.3 288.3 63.8Q288.6 64.4 288.6 65.2L288.6 65.2L288.6 70L287.5 70L287.5 65.2Q287.5 64.5 287.1 64.1Q286.6 63.8 286.1 63.8L286.1 63.8Q285.6 63.8 285.2 64.0Q284.9 64.2 284.7 64.6Q284.5 64.9 284.5 65.4L284.5 65.4L284.5 70L283.4 70L283.4 65.1Q283.4 64.5 283.0 64.2Q282.6 63.8 282.0 63.8L282.0 63.8Q281.6 63.8 281.2 64.0Q280.9 64.2 280.6 64.6Q280.4 65.0 280.4 65.5L280.4 65.5L280.4 70Z M298.3 70.2L298.3 70.2Q297.6 70.2 297.2 69.9Q296.8 69.7 296.6 69.4Q296.4 69.1 296.2 68.9L296.2 68.9L296.1 68.9L296.1 70L295.0 70L295.0 60.5L296.1 60.5L296.1 64.0L296.2 64.0Q296.4 63.8 296.6 63.6Q296.8 63.3 297.2 63.0Q297.6 62.8 298.3 62.8L298.3 62.8Q299.2 62.8 299.9 63.3Q300.5 63.7 300.9 64.5Q301.3 65.3 301.3 66.5L301.3 66.5Q301.3 67.6 300.9 68.4Q300.5 69.3 299.9 69.7Q299.2 70.2 298.3 70.2ZM298.1 69.1L298.1 69.1Q298.8 69.1 299.2 68.8Q299.7 68.4 299.9 67.8Q300.1 67.2 300.1 66.5L300.1 66.5Q300.1 65.7 299.9 65.1Q299.7 64.5 299.2 64.2Q298.8 63.8 298.1 63.8L298.1 63.8Q297.5 63.8 297.0 64.2Q296.6 64.5 296.4 65.1Q296.1 65.7 296.1 66.5L296.1 66.5Q296.1 67.2 296.4 67.8Q296.6 68.5 297.0 68.8Q297.5 69.1 298.1 69.1ZM305.7 70.1L305.7 70.1Q305.0 70.1 304.4 69.8Q303.9 69.5 303.6 68.9Q303.3 68.3 303.3 67.4L303.3 67.4L303.3 62.9L304.4 62.9L304.4 67.3Q304.4 68.1 304.8 68.6Q305.3 69.1 306.0 69.1L306.0 69.1Q306.5 69.1 306.9 68.8Q307.3 68.6 307.6 68.2Q307.8 67.8 307.8 67.2L307.8 67.2L307.8 62.9L308.9 62.9L308.9 70L307.8 70L307.8 68.7Q307.5 69.4 307.1 69.7L307.1 69.7Q306.4 70.1 305.7 70.1ZM312.4 70L311.2 70L311.2 62.9L312.4 62.9L312.4 70ZM311.8 61.7L311.8 61.7Q311.5 61.7 311.3 61.5Q311.0 61.3 311.0 61.0L311.0 61.0Q311.0 60.7 311.3 60.4Q311.5 60.2 311.8 60.2L311.8 60.2Q312.2 60.2 312.4 60.4Q312.6 60.7 312.6 61.0L312.6 61.0Q312.6 61.3 312.4 61.5Q312.2 61.7 311.8 61.7ZM314.7 60.5L315.8 60.5L315.8 70L314.7 70L314.7 60.5ZM319.5 62.9L320.9 62.9L320.9 63.9L319.5 63.9L319.5 68.2Q319.5 68.6 319.7 68.9Q319.9 69.1 320.3 69.1L320.3 69.1Q320.4 69.1 320.6 69.0Q320.8 69.0 320.9 69.0L320.9 69.0L321.1 70.0Q321.0 70.0 320.7 70.1Q320.5 70.1 320.3 70.1L320.3 70.1Q319.4 70.1 318.9 69.6Q318.3 69.1 318.3 68.2L318.3 68.2L318.3 63.9L317.3 63.9L317.3 62.9L318.3 62.9L318.3 61.2L319.5 61.2L319.5 62.9Z M328.3 62.9L329.8 62.9L329.8 63.9L328.3 63.9L328.3 68.2Q328.3 68.6 328.5 68.9Q328.7 69.1 329.2 69.1L329.2 69.1Q329.3 69.1 329.4 69.0Q329.6 69.0 329.8 69.0L329.8 69.0L330.0 70.0Q329.8 70.0 329.6 70.1Q329.4 70.1 329.1 70.1L329.1 70.1Q328.2 70.1 327.7 69.6Q327.2 69.1 327.2 68.2L327.2 68.2L327.2 63.9L326.1 63.9L326.1 62.9L327.2 62.9L327.2 61.2L328.3 61.2L328.3 62.9ZM334.4 70.2L334.4 70.2Q333.5 70.2 332.8 69.7Q332.0 69.2 331.6 68.4Q331.2 67.6 331.2 66.5L331.2 66.5Q331.2 65.4 331.6 64.6Q332.0 63.7 332.8 63.3Q333.5 62.8 334.4 62.8L334.4 62.8Q335.4 62.8 336.1 63.3Q336.9 63.7 337.3 64.6Q337.7 65.4 337.7 66.5L337.7 66.5Q337.7 67.6 337.3 68.4Q336.9 69.2 336.1 69.7Q335.4 70.2 334.4 70.2ZM334.4 69.1L334.4 69.1Q335.2 69.1 335.6 68.8Q336.1 68.4 336.3 67.8Q336.5 67.2 336.5 66.5L336.5 66.5Q336.5 65.8 336.3 65.2Q336.1 64.6 335.6 64.2Q335.2 63.8 334.4 63.8L334.4 63.8Q333.7 63.8 333.3 64.2Q332.8 64.6 332.6 65.2Q332.4 65.8 332.4 66.5L332.4 66.5Q332.4 67.2 332.6 67.8Q332.8 68.4 333.3 68.8Q333.7 69.1 334.4 69.1Z M344.1 65.7L344.1 65.7L344.1 70L343.0 70L343.0 60.5L344.1 60.5L344.1 64.1Q344.4 63.5 344.9 63.2L344.9 63.2Q345.5 62.8 346.3 62.8L346.3 62.8Q347.0 62.8 347.5 63.1Q348.1 63.4 348.4 64.0Q348.7 64.6 348.7 65.5L348.7 65.5L348.7 70L347.5 70L347.5 65.6Q347.5 64.8 347.1 64.3Q346.7 63.8 345.9 63.8L345.9 63.8Q345.4 63.8 345.0 64.1Q344.6 64.3 344.4 64.7Q344.1 65.1 344.1 65.7ZM354.0 70.2L354.0 70.2Q352.9 70.2 352.2 69.7Q351.5 69.2 351.1 68.4Q350.6 67.6 350.6 66.5Q350.6 65.4 351.0 64.6Q351.4 63.8 352.2 63.3Q352.9 62.8 353.8 62.8L353.8 62.8Q354.4 62.8 355.0 63.0Q355.5 63.2 356.0 63.6Q356.4 64.0 356.7 64.7Q356.9 65.4 356.9 66.4L356.9 66.4L356.9 66.8L351.8 66.8Q351.8 67.5 352.1 68.0L352.1 68.0Q352.3 68.6 352.8 68.9Q353.3 69.1 354.0 69.1L354.0 69.1Q354.4 69.1 354.7 69.0Q355.1 68.9 355.3 68.7Q355.6 68.4 355.7 68.0L355.7 68.0L356.8 68.3Q356.7 68.9 356.3 69.3Q355.9 69.7 355.3 69.9Q354.7 70.2 354.0 70.2ZM351.8 65.9L351.8 65.9L355.8 65.9Q355.7 65.4 355.6 65.0L355.6 65.0Q355.3 64.4 354.9 64.1Q354.5 63.8 353.8 63.8Q353.2 63.8 352.7 64.1Q352.3 64.5 352.0 65.0L352.0 65.0Q351.8 65.4 351.8 65.9ZM358.9 60.5L360.0 60.5L360.0 70L358.9 70L358.9 60.5ZM363.5 72.7L362.3 72.7L362.3 62.9L363.4 62.9L363.4 64.0L363.5 64.0Q363.7 63.8 363.9 63.6Q364.1 63.3 364.5 63.0Q364.9 62.8 365.6 62.8L365.6 62.8Q366.5 62.8 367.2 63.3Q367.8 63.7 368.2 64.5Q368.6 65.3 368.6 66.5L368.6 66.5Q368.6 67.6 368.2 68.4Q367.9 69.3 367.2 69.7Q366.5 70.2 365.6 70.2L365.6 70.2Q364.9 70.2 364.5 69.9Q364.1 69.7 363.9 69.4Q363.7 69.1 363.5 68.9L363.5 68.9L363.5 68.9L363.5 72.7ZM365.4 69.1L365.4 69.1Q366.1 69.1 366.6 68.8Q367.0 68.4 367.2 67.8Q367.5 67.2 367.5 66.5L367.5 66.5Q367.5 65.7 367.2 65.1Q367.0 64.5 366.6 64.2Q366.1 63.8 365.4 63.8L365.4 63.8Q364.8 63.8 364.3 64.2Q363.9 64.5 363.7 65.1Q363.4 65.7 363.4 66.5L363.4 66.5Q363.4 67.2 363.7 67.8Q363.9 68.5 364.4 68.8Q364.8 69.1 365.4 69.1Z M377.4 70.1L377.4 70.1Q376.7 70.1 376.1 69.8Q375.6 69.5 375.3 68.9Q375.0 68.3 375.0 67.4L375.0 67.4L375.0 62.9L376.1 62.9L376.1 67.3Q376.1 68.1 376.6 68.6Q377.0 69.1 377.8 69.1L377.8 69.1Q378.3 69.1 378.7 68.8Q379.1 68.6 379.3 68.2Q379.5 67.8 379.5 67.2L379.5 67.2L379.5 62.9L380.7 62.9L380.7 70L379.6 70L379.6 68.7Q379.3 69.4 378.8 69.7L378.8 69.7Q378.2 70.1 377.4 70.1ZM385.4 70.2L385.4 70.2Q384.7 70.2 384.1 69.9Q383.5 69.7 383.2 69.3Q382.8 68.9 382.7 68.3L382.7 68.3L383.8 68.0Q383.9 68.6 384.3 68.9Q384.8 69.1 385.4 69.1L385.4 69.1Q386.1 69.1 386.6 68.8Q387.0 68.5 387.0 68.1L387.0 68.1Q387.0 67.7 386.8 67.5Q386.5 67.2 386.0 67.1L386.0 67.1L384.8 66.8Q383.8 66.6 383.4 66.1Q382.9 65.6 382.9 64.9L382.9 64.9Q382.9 64.3 383.2 63.8Q383.6 63.3 384.2 63.1Q384.8 62.8 385.5 62.8L385.5 62.8Q386.2 62.8 386.8 63.0Q387.3 63.3 387.6 63.6Q387.9 64.0 388.1 64.5L388.1 64.5L387.0 64.8Q386.9 64.4 386.5 64.1Q386.2 63.8 385.5 63.8L385.5 63.8Q384.9 63.8 384.5 64.1Q384.0 64.4 384.0 64.8L384.0 64.8Q384.0 65.2 384.3 65.4Q384.6 65.7 385.2 65.8L385.2 65.8L386.3 66.1Q387.3 66.3 387.7 66.8Q388.2 67.3 388.2 68.0L388.2 68.0Q388.2 68.6 387.8 69.1Q387.5 69.6 386.9 69.9Q386.2 70.2 385.4 70.2ZM393.1 70.2L393.1 70.2Q392.1 70.2 391.4 69.7Q390.6 69.2 390.2 68.4Q389.8 67.6 389.8 66.5Q389.8 65.4 390.2 64.6Q390.6 63.8 391.3 63.3Q392.0 62.8 393.0 62.8L393.0 62.8Q393.6 62.8 394.1 63.0Q394.7 63.2 395.1 63.6Q395.6 64.0 395.8 64.7Q396.1 65.4 396.1 66.4L396.1 66.4L396.1 66.8L391.0 66.8Q391.0 67.5 391.2 68.0L391.2 68.0Q391.5 68.6 392.0 68.9Q392.5 69.1 393.1 69.1L393.1 69.1Q393.6 69.1 393.9 69.0Q394.2 68.9 394.5 68.7Q394.7 68.4 394.9 68.0L394.9 68.0L396.0 68.3Q395.8 68.9 395.4 69.3Q395.0 69.7 394.4 69.9Q393.9 70.2 393.1 70.2ZM391.0 65.9L391.0 65.9L394.9 65.9Q394.9 65.4 394.7 65.0L394.7 65.0Q394.5 64.4 394.1 64.1Q393.6 63.8 393.0 63.8Q392.4 63.8 391.9 64.1Q391.4 64.5 391.2 65.0L391.2 65.0Q391.0 65.4 391.0 65.9ZM399.2 70L398.0 70L398.0 62.9L399.1 62.9L399.1 64.0L399.2 64.0Q399.4 63.5 399.9 63.1Q400.4 62.8 401.1 62.8L401.1 62.8Q401.2 62.8 401.4 62.8Q401.5 62.8 401.6 62.8L401.6 62.8L401.6 64.0Q401.6 64.0 401.4 63.9Q401.2 63.9 400.9 63.9L400.9 63.9Q400.4 63.9 400.0 64.1Q399.6 64.3 399.4 64.7Q399.2 65.1 399.2 65.6L399.2 65.6L399.2 70ZM405.6 70.2L405.6 70.2Q404.9 70.2 404.3 69.9Q403.8 69.7 403.4 69.3Q403.0 68.9 402.9 68.3L402.9 68.3L404.0 68.0Q404.1 68.6 404.6 68.9Q405.0 69.1 405.6 69.1L405.6 69.1Q406.4 69.1 406.8 68.8Q407.2 68.5 407.2 68.1L407.2 68.1Q407.2 67.7 407.0 67.5Q406.7 67.2 406.2 67.1L406.2 67.1L405.0 66.8Q404.1 66.6 403.6 66.1Q403.1 65.6 403.1 64.9L403.1 64.9Q403.1 64.3 403.5 63.8Q403.8 63.3 404.4 63.1Q405.0 62.8 405.8 62.8L405.8 62.8Q406.5 62.8 407.0 63.0Q407.5 63.3 407.8 63.6Q408.1 64.0 408.3 64.5L408.3 64.5L407.3 64.8Q407.1 64.4 406.8 64.1Q406.4 63.8 405.8 63.8L405.8 63.8Q405.1 63.8 404.7 64.1Q404.3 64.4 404.3 64.8L404.3 64.8Q404.3 65.2 404.6 65.4Q404.8 65.7 405.5 65.8L405.5 65.8L406.5 66.1Q407.5 66.3 408.0 66.8Q408.4 67.3 408.4 68.0L408.4 68.0Q408.4 68.6 408.1 69.1Q407.7 69.6 407.1 69.9Q406.5 70.2 405.6 70.2Z M417.0 70.2L417.0 70.2Q416.0 70.2 415.2 69.7Q414.5 69.2 414.1 68.4Q413.7 67.6 413.7 66.5Q413.7 65.4 414.1 64.6Q414.4 63.8 415.2 63.3Q415.9 62.8 416.9 62.8L416.9 62.8Q417.4 62.8 418.0 63.0Q418.5 63.2 419.0 63.6Q419.4 64.0 419.7 64.7Q419.9 65.4 419.9 66.4L419.9 66.4L419.9 66.8L414.8 66.8Q414.8 67.5 415.1 68.0L415.1 68.0Q415.4 68.6 415.9 68.9Q416.3 69.1 417.0 69.1L417.0 69.1Q417.4 69.1 417.8 69.0Q418.1 68.9 418.3 68.7Q418.6 68.4 418.7 68.0L418.7 68.0L419.8 68.3Q419.7 68.9 419.3 69.3Q418.9 69.7 418.3 69.9Q417.7 70.2 417.0 70.2ZM414.8 65.9L414.8 65.9L418.8 65.9Q418.7 65.4 418.6 65.0L418.6 65.0Q418.4 64.4 417.9 64.1Q417.5 63.8 416.9 63.8Q416.2 63.8 415.8 64.1Q415.3 64.5 415.1 65.0L415.1 65.0Q414.9 65.4 414.8 65.9ZM422.6 70L421.3 70L423.8 66.4L421.4 62.9L422.8 62.9L423.7 64.3Q424.0 64.8 424.2 65.3L424.2 65.3Q424.4 65.5 424.5 65.7L424.5 65.7Q424.6 65.5 424.7 65.3L424.7 65.3Q424.9 64.8 425.2 64.3L425.2 64.3L426.1 62.9L427.4 62.9L425.1 66.4L427.6 70L426.2 70L425.2 68.4Q424.9 67.9 424.6 67.4L424.6 67.4Q424.5 67.3 424.4 67.1L424.4 67.1Q424.3 67.3 424.2 67.4L424.2 67.4Q424.0 67.9 423.7 68.4L423.7 68.4L422.6 70ZM430.4 72.7L429.3 72.7L429.3 62.9L430.4 62.9L430.4 64.0L430.5 64.0Q430.6 63.8 430.8 63.6Q431.1 63.3 431.5 63.0Q431.9 62.8 432.6 62.8L432.6 62.8Q433.5 62.8 434.1 63.3Q434.8 63.7 435.2 64.5Q435.6 65.3 435.6 66.5L435.6 66.5Q435.6 67.6 435.2 68.4Q434.8 69.3 434.1 69.7Q433.5 70.2 432.6 70.2L432.6 70.2Q431.9 70.2 431.5 69.9Q431.1 69.7 430.9 69.4Q430.6 69.1 430.5 68.9L430.5 68.9L430.4 68.9L430.4 72.7ZM432.4 69.1L432.4 69.1Q433.1 69.1 433.5 68.8Q434.0 68.4 434.2 67.8Q434.4 67.2 434.4 66.5L434.4 66.5Q434.4 65.7 434.2 65.1Q434.0 64.5 433.5 64.2Q433.1 63.8 432.4 63.8L432.4 63.8Q431.7 63.8 431.3 64.2Q430.9 64.5 430.6 65.1Q430.4 65.7 430.4 66.5L430.4 66.5Q430.4 67.2 430.6 67.8Q430.9 68.5 431.3 68.8Q431.8 69.1 432.4 69.1ZM438.7 70L437.5 70L437.5 62.9L438.6 62.9L438.6 64.0L438.7 64.0Q438.9 63.5 439.4 63.1Q439.9 62.8 440.6 62.8L440.6 62.8Q440.7 62.8 440.9 62.8Q441.0 62.8 441.1 62.8L441.1 62.8L441.1 64.0Q441.1 64.0 440.9 63.9Q440.7 63.9 440.5 63.9L440.5 63.9Q439.9 63.9 439.5 64.1Q439.1 64.3 438.9 64.7Q438.7 65.1 438.7 65.6L438.7 65.6L438.7 70ZM445.7 70.2L445.7 70.2Q444.7 70.2 443.9 69.7Q443.2 69.2 442.8 68.4Q442.4 67.6 442.4 66.5Q442.4 65.4 442.8 64.6Q443.2 63.8 443.9 63.3Q444.6 62.8 445.6 62.8L445.6 62.8Q446.1 62.8 446.7 63.0Q447.2 63.2 447.7 63.6Q448.1 64.0 448.4 64.7Q448.7 65.4 448.7 66.4L448.7 66.4L448.7 66.8L443.5 66.8Q443.6 67.5 443.8 68.0L443.8 68.0Q444.1 68.6 444.6 68.9Q445.1 69.1 445.7 69.1L445.7 69.1Q446.1 69.1 446.5 69.0Q446.8 68.9 447.1 68.7Q447.3 68.4 447.5 68.0L447.5 68.0L448.6 68.3Q448.4 68.9 448.0 69.3Q447.6 69.7 447.0 69.9Q446.4 70.2 445.7 70.2ZM443.6 65.9L443.6 65.9L447.5 65.9Q447.5 65.4 447.3 65.0L447.3 65.0Q447.1 64.4 446.7 64.1Q446.2 63.8 445.6 63.8Q444.9 63.8 444.5 64.1Q444.0 64.5 443.8 65.0L443.8 65.0Q443.6 65.4 443.6 65.9ZM453.0 70.2L453.0 70.2Q452.3 70.2 451.7 69.9Q451.2 69.7 450.8 69.3Q450.4 68.9 450.3 68.3L450.3 68.3L451.4 68.0Q451.5 68.6 452.0 68.9Q452.4 69.1 453.0 69.1L453.0 69.1Q453.8 69.1 454.2 68.8Q454.6 68.5 454.6 68.1L454.6 68.1Q454.6 67.7 454.4 67.5Q454.1 67.2 453.6 67.1L453.6 67.1L452.4 66.8Q451.4 66.6 451.0 66.1Q450.5 65.6 450.5 64.9L450.5 64.9Q450.5 64.3 450.9 63.8Q451.2 63.3 451.8 63.1Q452.4 62.8 453.1 62.8L453.1 62.8Q453.9 62.8 454.4 63.0Q454.9 63.3 455.2 63.6Q455.5 64.0 455.7 64.5L455.7 64.5L454.7 64.8Q454.5 64.4 454.2 64.1Q453.8 63.8 453.1 63.8L453.1 63.8Q452.5 63.8 452.1 64.1Q451.7 64.4 451.7 64.8L451.7 64.8Q451.7 65.2 452.0 65.4Q452.2 65.7 452.9 65.8L452.9 65.8L453.9 66.1Q454.9 66.3 455.4 66.8Q455.8 67.3 455.8 68.0L455.8 68.0Q455.8 68.6 455.5 69.1Q455.1 69.6 454.5 69.9Q453.9 70.2 453.0 70.2ZM460.2 70.2L460.2 70.2Q459.5 70.2 458.9 69.9Q458.3 69.7 458.0 69.3Q457.6 68.9 457.5 68.3L457.5 68.3L458.5 68.0Q458.7 68.6 459.1 68.9Q459.5 69.1 460.2 69.1L460.2 69.1Q460.9 69.1 461.4 68.8Q461.8 68.5 461.8 68.1L461.8 68.1Q461.8 67.7 461.5 67.5Q461.3 67.2 460.8 67.1L460.8 67.1L459.6 66.8Q458.6 66.6 458.1 66.1Q457.7 65.6 457.7 64.9L457.7 64.9Q457.7 64.3 458.0 63.8Q458.4 63.3 459.0 63.1Q459.5 62.8 460.3 62.8L460.3 62.8Q461.0 62.8 461.5 63.0Q462.1 63.3 462.4 63.6Q462.7 64.0 462.9 64.5L462.9 64.5L461.8 64.8Q461.7 64.4 461.3 64.1Q461.0 63.8 460.3 63.8L460.3 63.8Q459.7 63.8 459.2 64.1Q458.8 64.4 458.8 64.8L458.8 64.8Q458.8 65.2 459.1 65.4Q459.4 65.7 460.0 65.8L460.0 65.8L461.1 66.1Q462.1 66.3 462.5 66.8Q463.0 67.3 463.0 68.0L463.0 68.0Q463.0 68.6 462.6 69.1Q462.3 69.6 461.6 69.9Q461.0 70.2 460.2 70.2Z M470.1 70L469.0 70L469.0 62.9L470.1 62.9L470.1 70ZM469.6 61.7L469.6 61.7Q469.3 61.7 469.0 61.5Q468.8 61.3 468.8 61.0L468.8 61.0Q468.8 60.7 469.0 60.4Q469.3 60.2 469.6 60.2L469.6 60.2Q469.9 60.2 470.1 60.4Q470.4 60.7 470.4 61.0L470.4 61.0Q470.4 61.3 470.1 61.5Q469.9 61.7 469.6 61.7ZM475.1 70.2L475.1 70.2Q474.2 70.2 473.5 69.7Q472.9 69.3 472.5 68.4Q472.1 67.6 472.1 66.5L472.1 66.5Q472.1 65.3 472.5 64.5Q472.9 63.7 473.6 63.3Q474.2 62.8 475.1 62.8L475.1 62.8Q475.8 62.8 476.2 63.0Q476.6 63.3 476.8 63.6Q477.1 63.8 477.2 64.0L477.2 64.0L477.3 64.0L477.3 60.5L478.4 60.5L478.4 70L477.3 70L477.3 68.9L477.2 68.9Q477.1 69.1 476.8 69.4Q476.6 69.7 476.2 69.9Q475.8 70.2 475.1 70.2ZM475.3 69.1L475.3 69.1Q475.9 69.1 476.4 68.8Q476.8 68.5 477.0 67.8Q477.3 67.2 477.3 66.5L477.3 66.5Q477.3 65.7 477.1 65.1Q476.8 64.5 476.4 64.2Q475.9 63.8 475.3 63.8L475.3 63.8Q474.6 63.8 474.2 64.2Q473.7 64.5 473.5 65.1Q473.3 65.7 473.3 66.5L473.3 66.5Q473.3 67.2 473.5 67.8Q473.7 68.4 474.2 68.8Q474.6 69.1 475.3 69.1ZM483.7 70.2L483.7 70.2Q482.7 70.2 481.9 69.7Q481.2 69.2 480.8 68.4Q480.4 67.6 480.4 66.5Q480.4 65.4 480.8 64.6Q481.2 63.8 481.9 63.3Q482.6 62.8 483.6 62.8L483.6 62.8Q484.1 62.8 484.7 63.0Q485.2 63.2 485.7 63.6Q486.1 64.0 486.4 64.7Q486.7 65.4 486.7 66.4L486.7 66.4L486.7 66.8L481.5 66.8Q481.5 67.5 481.8 68.0L481.8 68.0Q482.1 68.6 482.6 68.9Q483.1 69.1 483.7 69.1L483.7 69.1Q484.1 69.1 484.5 69.0Q484.8 68.9 485.1 68.7Q485.3 68.4 485.4 68.0L485.4 68.0L486.5 68.3Q486.4 68.9 486.0 69.3Q485.6 69.7 485.0 69.9Q484.4 70.2 483.7 70.2ZM481.5 65.9L481.5 65.9L485.5 65.9Q485.4 65.4 485.3 65.0L485.3 65.0Q485.1 64.4 484.6 64.1Q484.2 63.8 483.6 63.8Q482.9 63.8 482.5 64.1Q482.0 64.5 481.8 65.0L481.8 65.0Q481.6 65.4 481.5 65.9ZM490.6 70.2L490.6 70.2Q489.9 70.2 489.4 69.9Q488.8 69.7 488.5 69.2Q488.2 68.7 488.2 68.0L488.2 68.0Q488.2 67.4 488.4 67.0Q488.6 66.6 489.0 66.4Q489.4 66.2 489.9 66.1Q490.4 66.0 490.9 65.9L490.9 65.9Q491.6 65.8 492.0 65.8Q492.4 65.7 492.5 65.6Q492.7 65.5 492.7 65.2L492.7 65.2L492.7 65.2Q492.7 64.8 492.6 64.5Q492.4 64.1 492.1 64.0Q491.8 63.8 491.3 63.8L491.3 63.8Q490.7 63.8 490.4 64.0Q490.0 64.1 489.8 64.4Q489.6 64.6 489.5 64.9L489.5 64.9L488.4 64.5Q488.6 63.8 489.1 63.5Q489.6 63.1 490.1 63.0Q490.7 62.8 491.2 62.8L491.2 62.8Q491.6 62.8 492.0 62.9Q492.5 63.0 492.9 63.2Q493.3 63.5 493.6 64.0Q493.9 64.5 493.9 65.3L493.9 65.3L493.9 70L492.8 70L492.8 69.0L492.7 69.0Q492.6 69.3 492.3 69.5Q492.0 69.8 491.6 70.0Q491.2 70.2 490.6 70.2ZM490.8 69.2L490.8 69.2Q491.4 69.2 491.8 68.9Q492.3 68.7 492.5 68.3Q492.7 67.9 492.7 67.4L492.7 67.4L492.7 66.5Q492.7 66.5 492.4 66.6Q492.2 66.7 491.9 66.7Q491.6 66.8 491.3 66.8Q491.0 66.8 490.9 66.9L490.9 66.9Q490.5 66.9 490.1 67.0Q489.7 67.2 489.5 67.4Q489.3 67.6 489.3 68.0L489.3 68.0Q489.3 68.4 489.5 68.7Q489.7 68.9 490.0 69.0Q490.3 69.2 490.8 69.2ZM498.6 70.2L498.6 70.2Q497.9 70.2 497.3 69.9Q496.7 69.7 496.4 69.3Q496.0 68.9 495.9 68.3L495.9 68.3L497.0 68.0Q497.1 68.6 497.5 68.9Q498.0 69.1 498.6 69.1L498.6 69.1Q499.3 69.1 499.8 68.8Q500.2 68.5 500.2 68.1L500.2 68.1Q500.2 67.7 500.0 67.5Q499.7 67.2 499.2 67.1L499.2 67.1L498.0 66.8Q497.0 66.6 496.6 66.1Q496.1 65.6 496.1 64.9L496.1 64.9Q496.1 64.3 496.4 63.8Q496.8 63.3 497.4 63.1Q498.0 62.8 498.7 62.8L498.7 62.8Q499.4 62.8 500.0 63.0Q500.5 63.3 500.8 63.6Q501.1 64.0 501.3 64.5L501.3 64.5L500.2 64.8Q500.1 64.4 499.7 64.1Q499.4 63.8 498.7 63.8L498.7 63.8Q498.1 63.8 497.7 64.1Q497.2 64.4 497.2 64.8L497.2 64.8Q497.2 65.2 497.5 65.4Q497.8 65.7 498.4 65.8L498.4 65.8L499.5 66.1Q500.5 66.3 500.9 66.8Q501.4 67.3 501.4 68.0L501.4 68.0Q501.4 68.6 501.0 69.1Q500.7 69.6 500.1 69.9Q499.4 70.2 498.6 70.2Z M508.1 70L507.0 70L507.0 62.9L508.1 62.9L508.1 64.2Q508.3 63.8 508.5 63.5L508.5 63.5Q508.8 63.2 509.2 63.0Q509.6 62.8 510.1 62.8L510.1 62.8Q510.9 62.8 511.4 63.3L511.4 63.3Q511.8 63.6 511.9 64.2L511.9 64.2Q512.0 63.9 512.3 63.6L512.3 63.6Q512.6 63.2 513.1 63.0Q513.6 62.8 514.2 62.8L514.2 62.8Q514.8 62.8 515.3 63.0Q515.8 63.3 516.1 63.8Q516.4 64.4 516.4 65.2L516.4 65.2L516.4 70L515.2 70L515.2 65.2Q515.2 64.5 514.8 64.1Q514.4 63.8 513.8 63.8L513.8 63.8Q513.3 63.8 513.0 64.0Q512.6 64.2 512.5 64.6Q512.3 64.9 512.3 65.4L512.3 65.4L512.3 70L511.1 70L511.1 65.1Q511.1 64.5 510.7 64.2Q510.3 63.8 509.7 63.8L509.7 63.8Q509.3 63.8 509.0 64.0Q508.6 64.2 508.4 64.6Q508.1 65.0 508.1 65.5L508.1 65.5L508.1 70ZM521.6 70.2L521.6 70.2Q520.6 70.2 519.9 69.7Q519.2 69.2 518.8 68.4Q518.3 67.6 518.3 66.5L518.3 66.5Q518.3 65.4 518.8 64.6Q519.2 63.7 519.9 63.3Q520.6 62.8 521.6 62.8L521.6 62.8Q522.5 62.8 523.3 63.3Q524.0 63.7 524.4 64.6Q524.8 65.4 524.8 66.5L524.8 66.5Q524.8 67.6 524.4 68.4Q524.0 69.2 523.3 69.7Q522.5 70.2 521.6 70.2ZM521.6 69.1L521.6 69.1Q522.3 69.1 522.8 68.8Q523.2 68.4 523.4 67.8Q523.7 67.2 523.7 66.5L523.7 66.5Q523.7 65.8 523.4 65.2Q523.2 64.6 522.8 64.2Q522.3 63.8 521.6 63.8L521.6 63.8Q520.9 63.8 520.4 64.2Q520.0 64.6 519.7 65.2Q519.5 65.8 519.5 66.5L519.5 66.5Q519.5 67.2 519.7 67.8Q520.0 68.4 520.4 68.8Q520.9 69.1 521.6 69.1ZM527.9 70L526.8 70L526.8 62.9L527.9 62.9L527.9 64.0L528.0 64.0Q528.2 63.5 528.7 63.1Q529.2 62.8 529.8 62.8L529.8 62.8Q529.9 62.8 530.1 62.8Q530.3 62.8 530.4 62.8L530.4 62.8L530.4 64.0Q530.3 64.0 530.1 63.9Q529.9 63.9 529.7 63.9L529.7 63.9Q529.2 63.9 528.8 64.1Q528.4 64.3 528.2 64.7Q527.9 65.1 527.9 65.6L527.9 65.6L527.9 70ZM535.0 70.2L535.0 70.2Q533.9 70.2 533.2 69.7Q532.4 69.2 532.0 68.4Q531.6 67.6 531.6 66.5Q531.6 65.4 532.0 64.6Q532.4 63.8 533.1 63.3Q533.9 62.8 534.8 62.8L534.8 62.8Q535.4 62.8 535.9 63.0Q536.5 63.2 536.9 63.6Q537.4 64.0 537.7 64.7Q537.9 65.4 537.9 66.4L537.9 66.4L537.9 66.8L532.8 66.8Q532.8 67.5 533.1 68.0L533.1 68.0Q533.3 68.6 533.8 68.9Q534.3 69.1 535.0 69.1L535.0 69.1Q535.4 69.1 535.7 69.0Q536.1 68.9 536.3 68.7Q536.6 68.4 536.7 68.0L536.7 68.0L537.8 68.3Q537.6 68.9 537.2 69.3Q536.9 69.7 536.3 69.9Q535.7 70.2 535.0 70.2ZM532.8 65.9L532.8 65.9L536.8 65.9Q536.7 65.4 536.6 65.0L536.6 65.0Q536.3 64.4 535.9 64.1Q535.5 63.8 534.8 63.8Q534.2 63.8 533.7 64.1Q533.3 64.5 533.0 65.0L533.0 65.0Q532.8 65.4 532.8 65.9Z M547.0 70.2L547.0 70.2Q546.0 70.2 545.2 69.7Q544.5 69.2 544.1 68.4Q543.7 67.6 543.7 66.5Q543.7 65.4 544.1 64.6Q544.4 63.8 545.2 63.3Q545.9 62.8 546.9 62.8L546.9 62.8Q547.4 62.8 548.0 63.0Q548.5 63.2 549.0 63.6Q549.4 64.0 549.7 64.7Q549.9 65.4 549.9 66.4L549.9 66.4L549.9 66.8L544.8 66.8Q544.8 67.5 545.1 68.0L545.1 68.0Q545.4 68.6 545.9 68.9Q546.3 69.1 547.0 69.1L547.0 69.1Q547.4 69.1 547.8 69.0Q548.1 68.9 548.3 68.7Q548.6 68.4 548.7 68.0L548.7 68.0L549.8 68.3Q549.7 68.9 549.3 69.3Q548.9 69.7 548.3 69.9Q547.7 70.2 547.0 70.2ZM544.8 65.9L544.8 65.9L548.8 65.9Q548.7 65.4 548.6 65.0L548.6 65.0Q548.4 64.4 547.9 64.1Q547.5 63.8 546.9 63.8Q546.2 63.8 545.8 64.1Q545.3 64.5 545.1 65.0L545.1 65.0Q544.9 65.4 544.8 65.9ZM553.5 62.9L555.2 62.9L555.2 63.9L553.5 63.9L553.5 70L552.4 70L552.4 63.9L551.0 63.9L551.0 62.9L552.4 62.9L552.4 62.0Q552.4 61.3 552.7 60.9Q553.0 60.5 553.4 60.3Q553.9 60.1 554.4 60.1L554.4 60.1Q554.8 60.1 555.1 60.2Q555.4 60.2 555.5 60.3L555.5 60.3L555.2 61.3Q555.1 61.2 554.9 61.2Q554.8 61.2 554.6 61.2L554.6 61.2Q554.0 61.2 553.8 61.4Q553.5 61.7 553.5 62.2L553.5 62.2L553.5 62.9ZM558.7 62.9L560.3 62.9L560.3 63.9L558.7 63.9L558.7 70L557.5 70L557.5 63.9L556.1 63.9L556.1 62.9L557.5 62.9L557.5 62.0Q557.5 61.3 557.8 60.9Q558.1 60.5 558.6 60.3Q559.0 60.1 559.5 60.1L559.5 60.1Q559.9 60.1 560.2 60.2Q560.5 60.2 560.6 60.3L560.6 60.3L560.3 61.3Q560.2 61.2 560.0 61.2Q559.9 61.2 559.7 61.2L559.7 61.2Q559.1 61.2 558.9 61.4Q558.7 61.7 558.7 62.2L558.7 62.2L558.7 62.9ZM565.1 70.2L565.1 70.2Q564.1 70.2 563.3 69.7Q562.6 69.2 562.2 68.4Q561.8 67.6 561.8 66.5Q561.8 65.4 562.2 64.6Q562.5 63.8 563.3 63.3Q564.0 62.8 565.0 62.8L565.0 62.8Q565.5 62.8 566.1 63.0Q566.6 63.2 567.1 63.6Q567.5 64.0 567.8 64.7Q568.0 65.4 568.0 66.4L568.0 66.4L568.0 66.8L562.9 66.8Q562.9 67.5 563.2 68.0L563.2 68.0Q563.5 68.6 564.0 68.9Q564.4 69.1 565.1 69.1L565.1 69.1Q565.5 69.1 565.9 69.0Q566.2 68.9 566.4 68.7Q566.7 68.4 566.8 68.0L566.8 68.0L567.9 68.3Q567.8 68.9 567.4 69.3Q567.0 69.7 566.4 69.9Q565.8 70.2 565.1 70.2ZM562.9 65.9L562.9 65.9L566.9 65.9Q566.8 65.4 566.7 65.0L566.7 65.0Q566.5 64.4 566.0 64.1Q565.6 63.8 565.0 63.8Q564.3 63.8 563.9 64.1Q563.4 64.5 563.2 65.0L563.2 65.0Q563.0 65.4 562.9 65.9ZM572.9 70.2L572.9 70.2Q571.9 70.2 571.2 69.7Q570.5 69.2 570.0 68.4Q569.6 67.6 569.6 66.5L569.6 66.5Q569.6 65.4 570.0 64.6Q570.5 63.7 571.2 63.3Q571.9 62.8 572.9 62.8L572.9 62.8Q573.4 62.8 573.8 62.9Q574.3 63.1 574.7 63.3Q575.1 63.6 575.3 63.9Q575.6 64.3 575.7 64.8L575.7 64.8L574.6 65.1Q574.6 64.8 574.4 64.6Q574.3 64.4 574.0 64.2Q573.8 64.0 573.5 63.9Q573.2 63.8 572.9 63.8L572.9 63.8Q572.2 63.8 571.7 64.2Q571.2 64.6 571.0 65.2Q570.8 65.8 570.8 66.5L570.8 66.5Q570.8 67.2 571.0 67.8Q571.2 68.4 571.7 68.8Q572.2 69.1 572.9 69.1L572.9 69.1Q573.2 69.1 573.5 69.0Q573.8 68.9 574.1 68.8Q574.3 68.6 574.4 68.3Q574.6 68.1 574.7 67.8L574.7 67.8L575.8 68.1Q575.6 68.6 575.4 69.0Q575.1 69.4 574.7 69.6Q574.3 69.9 573.9 70.0Q573.4 70.2 572.9 70.2ZM579.0 62.9L580.5 62.9L580.5 63.9L579.0 63.9L579.0 68.2Q579.0 68.6 579.2 68.9Q579.4 69.1 579.9 69.1L579.9 69.1Q580.0 69.1 580.2 69.0Q580.3 69.0 580.5 69.0L580.5 69.0L580.7 70.0Q580.5 70.0 580.3 70.1Q580.1 70.1 579.9 70.1L579.9 70.1Q578.9 70.1 578.4 69.6Q577.9 69.1 577.9 68.2L577.9 68.2L577.9 63.9L576.8 63.9L576.8 62.9L577.9 62.9L577.9 61.2L579.0 61.2L579.0 62.9ZM583.4 70L582.3 70L582.3 62.9L583.4 62.9L583.4 70ZM582.8 61.7L582.8 61.7Q582.5 61.7 582.3 61.5Q582.0 61.3 582.0 61.0L582.0 61.0Q582.0 60.7 582.3 60.4Q582.5 60.2 582.8 60.2L582.8 60.2Q583.2 60.2 583.4 60.4Q583.6 60.7 583.6 61.0L583.6 61.0Q583.6 61.3 583.4 61.5Q583.2 61.7 582.8 61.7ZM589.0 70L587.8 70L585.1 62.9L586.3 62.9L587.8 67.1Q588.1 67.8 588.2 68.4L588.2 68.4Q588.3 68.7 588.4 69.0L588.4 69.0Q588.4 68.7 588.5 68.4L588.5 68.4Q588.7 67.8 588.9 67.1L588.9 67.1L590.4 62.9L591.7 62.9L589.0 70ZM596.3 70.2L596.3 70.2Q595.3 70.2 594.5 69.7Q593.8 69.2 593.4 68.4Q593.0 67.6 593.0 66.5Q593.0 65.4 593.4 64.6Q593.8 63.8 594.5 63.3Q595.2 62.8 596.2 62.8L596.2 62.8Q596.7 62.8 597.3 63.0Q597.8 63.2 598.3 63.6Q598.7 64.0 599.0 64.7Q599.3 65.4 599.3 66.4L599.3 66.4L599.3 66.8L594.1 66.8Q594.2 67.5 594.4 68.0L594.4 68.0Q594.7 68.6 595.2 68.9Q595.7 69.1 596.3 69.1L596.3 69.1Q596.7 69.1 597.1 69.0Q597.4 68.9 597.7 68.7Q597.9 68.4 598.0 68.0L598.0 68.0L599.1 68.3Q599.0 68.9 598.6 69.3Q598.2 69.7 597.6 69.9Q597.0 70.2 596.3 70.2ZM594.1 65.9L594.1 65.9L598.1 65.9Q598.1 65.4 597.9 65.0L597.9 65.0Q597.7 64.4 597.2 64.1Q596.8 63.8 596.2 63.8Q595.5 63.8 595.1 64.1Q594.6 64.5 594.4 65.0L594.4 65.0Q594.2 65.4 594.1 65.9ZM601.2 60.5L602.3 60.5L602.3 70L601.2 70L601.2 60.5ZM604.5 72.6L604.5 72.6L604.8 71.6L604.9 71.6Q605.3 71.7 605.6 71.7Q605.9 71.6 606.1 71.4Q606.3 71.1 606.5 70.6L606.5 70.6L606.7 70.0L604.0 62.9L605.2 62.9L606.7 67.1Q607.0 67.8 607.2 68.4L607.2 68.4Q607.2 68.7 607.3 69.0L607.3 69.0Q607.4 68.7 607.4 68.4L607.4 68.4Q607.6 67.8 607.8 67.1L607.8 67.1L609.4 62.9L610.6 62.9L607.5 71.1Q607.3 71.6 607.0 72.0Q606.7 72.4 606.3 72.5Q605.9 72.7 605.4 72.7L605.4 72.7Q605.1 72.7 604.8 72.7Q604.6 72.6 604.5 72.6Z M36.0 88.2L36.0 88.2Q35.3 88.2 34.8 87.9Q34.2 87.7 33.9 87.2Q33.6 86.7 33.6 86.0L33.6 86.0Q33.6 85.4 33.8 85.0Q34.1 84.6 34.5 84.4Q34.9 84.2 35.3 84.1Q35.8 84.0 36.3 83.9L36.3 83.9Q37.0 83.8 37.4 83.8Q37.8 83.7 38.0 83.6Q38.2 83.5 38.2 83.2L38.2 83.2L38.2 83.2Q38.2 82.8 38.0 82.5Q37.8 82.1 37.5 82.0Q37.2 81.8 36.7 81.8L36.7 81.8Q36.2 81.8 35.8 82.0Q35.4 82.1 35.2 82.4Q35.0 82.6 34.9 82.9L34.9 82.9L33.8 82.5Q34.0 81.8 34.5 81.5Q35.0 81.1 35.5 81.0Q36.1 80.8 36.6 80.8L36.6 80.8Q37.0 80.8 37.4 80.9Q37.9 81.0 38.3 81.2Q38.7 81.5 39.0 82.0Q39.3 82.5 39.3 83.3L39.3 83.3L39.3 88L38.2 88L38.2 87.0L38.1 87.0Q38.0 87.3 37.7 87.5Q37.4 87.8 37.0 88.0Q36.6 88.2 36.0 88.2ZM36.2 87.2L36.2 87.2Q36.8 87.2 37.3 86.9Q37.7 86.7 37.9 86.3Q38.2 85.9 38.2 85.4L38.2 85.4L38.2 84.5Q38.1 84.5 37.8 84.6Q37.6 84.7 37.3 84.7Q37.0 84.8 36.7 84.8Q36.4 84.8 36.3 84.9L36.3 84.9Q35.9 84.9 35.5 85.0Q35.2 85.2 34.9 85.4Q34.7 85.6 34.7 86.0L34.7 86.0Q34.7 86.4 34.9 86.7Q35.1 86.9 35.4 87.0Q35.8 87.2 36.2 87.2ZM42.7 83.7L42.7 83.7L42.7 88L41.6 88L41.6 80.9L42.7 80.9L42.7 82.2Q43.0 81.6 43.5 81.2L43.5 81.2Q44.1 80.8 44.9 80.8L44.9 80.8Q45.6 80.8 46.1 81.1Q46.7 81.4 47.0 82.0Q47.3 82.6 47.3 83.5L47.3 83.5L47.3 88L46.1 88L46.1 83.6Q46.1 82.8 45.7 82.3Q45.3 81.8 44.5 81.8L44.5 81.8Q44.0 81.8 43.6 82.1Q43.2 82.3 43.0 82.7Q42.7 83.1 42.7 83.7ZM52.2 88.2L52.2 88.2Q51.4 88.2 50.7 87.7Q50.0 87.3 49.6 86.4Q49.2 85.6 49.2 84.5L49.2 84.5Q49.2 83.3 49.6 82.5Q50.0 81.7 50.7 81.3Q51.4 80.8 52.2 80.8L52.2 80.8Q52.9 80.8 53.3 81.0Q53.8 81.3 54.0 81.6Q54.2 81.8 54.3 82.0L54.3 82.0L54.4 82.0L54.4 78.5L55.5 78.5L55.5 88L54.4 88L54.4 86.9L54.3 86.9Q54.2 87.1 54.0 87.4Q53.7 87.7 53.3 87.9Q52.9 88.2 52.2 88.2ZM52.4 87.1L52.4 87.1Q53.1 87.1 53.5 86.8Q54.0 86.5 54.2 85.8Q54.4 85.2 54.4 84.5L54.4 84.5Q54.4 83.7 54.2 83.1Q54.0 82.5 53.5 82.2Q53.1 81.8 52.4 81.8L52.4 81.8Q51.7 81.8 51.3 82.2Q50.8 82.5 50.6 83.1Q50.4 83.7 50.4 84.5L50.4 84.5Q50.4 85.2 50.6 85.8Q50.9 86.4 51.3 86.8Q51.8 87.1 52.4 87.1Z M64.9 88.2L64.9 88.2Q63.9 88.2 63.2 87.7Q62.5 87.2 62.1 86.4Q61.7 85.6 61.7 84.5L61.7 84.5Q61.7 83.4 62.1 82.6Q62.5 81.7 63.2 81.3Q63.9 80.8 64.9 80.8L64.9 80.8Q65.4 80.8 65.9 80.9Q66.3 81.1 66.7 81.3Q67.1 81.6 67.3 81.9Q67.6 82.3 67.8 82.8L67.8 82.8L66.7 83.1Q66.6 82.8 66.4 82.6Q66.3 82.4 66.0 82.2Q65.8 82.0 65.5 81.9Q65.2 81.8 64.9 81.8L64.9 81.8Q64.2 81.8 63.7 82.2Q63.3 82.6 63.0 83.2Q62.8 83.8 62.8 84.5L62.8 84.5Q62.8 85.2 63.0 85.8Q63.3 86.4 63.7 86.8Q64.2 87.1 64.9 87.1L64.9 87.1Q65.2 87.1 65.5 87.0Q65.8 86.9 66.1 86.8Q66.3 86.6 66.5 86.3Q66.6 86.1 66.7 85.8L66.7 85.8L67.8 86.1Q67.7 86.6 67.4 87.0Q67.1 87.4 66.7 87.6Q66.3 87.9 65.9 88.0Q65.4 88.2 64.9 88.2ZM72.6 88.2L72.6 88.2Q71.7 88.2 70.9 87.7Q70.2 87.2 69.8 86.4Q69.4 85.6 69.4 84.5L69.4 84.5Q69.4 83.4 69.8 82.6Q70.2 81.7 70.9 81.3Q71.7 80.8 72.6 80.8L72.6 80.8Q73.6 80.8 74.3 81.3Q75.0 81.7 75.5 82.6Q75.9 83.4 75.9 84.5L75.9 84.5Q75.9 85.6 75.5 86.4Q75.0 87.2 74.3 87.7Q73.6 88.2 72.6 88.2ZM72.6 87.1L72.6 87.1Q73.3 87.1 73.8 86.8Q74.3 86.4 74.5 85.8Q74.7 85.2 74.7 84.5L74.7 84.5Q74.7 83.8 74.5 83.2Q74.3 82.6 73.8 82.2Q73.3 81.8 72.6 81.8L72.6 81.8Q71.9 81.8 71.4 82.2Q71.0 82.6 70.8 83.2Q70.5 83.8 70.5 84.5L70.5 84.5Q70.5 85.2 70.8 85.8Q71.0 86.4 71.4 86.8Q71.9 87.1 72.6 87.1ZM79.0 88L77.8 88L77.8 80.9L78.9 80.9L78.9 82.2Q79.1 81.8 79.3 81.5L79.3 81.5Q79.6 81.2 80.0 81.0Q80.5 80.8 80.9 80.8L80.9 80.8Q81.7 80.8 82.2 81.3L82.2 81.3Q82.6 81.6 82.7 82.2L82.7 82.2Q82.9 81.9 83.1 81.6L83.1 81.6Q83.4 81.2 83.9 81.0Q84.4 80.8 85.0 80.8L85.0 80.8Q85.6 80.8 86.1 81.0Q86.6 81.3 86.9 81.8Q87.2 82.4 87.2 83.2L87.2 83.2L87.2 88L86.1 88L86.1 83.2Q86.1 82.5 85.6 82.1Q85.2 81.8 84.6 81.8L84.6 81.8Q84.2 81.8 83.8 82.0Q83.5 82.2 83.3 82.6Q83.1 82.9 83.1 83.4L83.1 83.4L83.1 88L81.9 88L81.9 83.1Q81.9 82.5 81.6 82.2Q81.2 81.8 80.6 81.8L80.6 81.8Q80.1 81.8 79.8 82.0Q79.4 82.2 79.2 82.6Q79.0 83.0 79.0 83.5L79.0 83.5L79.0 88ZM90.7 88L89.5 88L89.5 80.9L90.6 80.9L90.6 82.2Q90.8 81.8 91.0 81.5L91.0 81.5Q91.3 81.2 91.7 81.0Q92.2 80.8 92.6 80.8L92.6 80.8Q93.4 80.8 93.9 81.3L93.9 81.3Q94.3 81.6 94.4 82.2L94.4 82.2Q94.6 81.9 94.8 81.6L94.8 81.6Q95.1 81.2 95.6 81.0Q96.1 80.8 96.7 80.8L96.7 80.8Q97.3 80.8 97.8 81.0Q98.3 81.3 98.6 81.8Q98.9 82.4 98.9 83.2L98.9 83.2L98.9 88L97.8 88L97.8 83.2Q97.8 82.5 97.3 82.1Q96.9 81.8 96.3 81.8L96.3 81.8Q95.8 81.8 95.5 82.0Q95.1 82.2 95.0 82.6Q94.8 82.9 94.8 83.4L94.8 83.4L94.8 88L93.6 88L93.6 83.1Q93.6 82.5 93.2 82.2Q92.8 81.8 92.2 81.8L92.2 81.8Q91.8 81.8 91.5 82.0Q91.1 82.2 90.9 82.6Q90.7 83.0 90.7 83.5L90.7 83.5L90.7 88ZM103.6 88.1L103.6 88.1Q102.9 88.1 102.3 87.8Q101.8 87.5 101.5 86.9Q101.2 86.3 101.2 85.4L101.2 85.4L101.2 80.9L102.3 80.9L102.3 85.3Q102.3 86.1 102.8 86.6Q103.2 87.1 103.9 87.1L103.9 87.1Q104.5 87.1 104.9 86.8Q105.3 86.6 105.5 86.2Q105.7 85.8 105.7 85.2L105.7 85.2L105.7 80.9L106.9 80.9L106.9 88L105.8 88L105.8 86.7Q105.5 87.4 105.0 87.7L105.0 87.7Q104.4 88.1 103.6 88.1ZM110.3 83.7L110.3 83.7L110.3 88L109.2 88L109.2 80.9L110.3 80.9L110.3 82.2Q110.6 81.6 111.1 81.2L111.1 81.2Q111.7 80.8 112.5 80.8L112.5 80.8Q113.2 80.8 113.7 81.1Q114.3 81.4 114.6 82.0Q114.9 82.6 114.9 83.5L114.9 83.5L114.9 88L113.7 88L113.7 83.6Q113.7 82.8 113.3 82.3Q112.9 81.8 112.1 81.8L112.1 81.8Q111.6 81.8 111.2 82.1Q110.8 82.3 110.6 82.7Q110.3 83.1 110.3 83.7ZM118.3 88L117.2 88L117.2 80.9L118.3 80.9L118.3 88ZM117.7 79.7L117.7 79.7Q117.4 79.7 117.2 79.5Q117.0 79.3 117.0 79.0L117.0 79.0Q117.0 78.7 117.2 78.4Q117.4 78.2 117.7 78.2L117.7 78.2Q118.1 78.2 118.3 78.4Q118.5 78.7 118.5 79.0L118.5 79.0Q118.5 79.3 118.3 79.5Q118.1 79.7 117.7 79.7ZM123.5 88.2L123.5 88.2Q122.5 88.2 121.8 87.7Q121.1 87.2 120.7 86.4Q120.3 85.6 120.3 84.5L120.3 84.5Q120.3 83.4 120.7 82.6Q121.1 81.7 121.8 81.3Q122.5 80.8 123.5 80.8L123.5 80.8Q124.0 80.8 124.5 80.9Q124.9 81.1 125.3 81.3Q125.7 81.6 126.0 81.9Q126.2 82.3 126.4 82.8L126.4 82.8L125.3 83.1Q125.2 82.8 125.0 82.6Q124.9 82.4 124.7 82.2Q124.4 82.0 124.1 81.9Q123.9 81.8 123.5 81.8L123.5 81.8Q122.8 81.8 122.3 82.2Q121.9 82.6 121.7 83.2Q121.4 83.8 121.4 84.5L121.4 84.5Q121.4 85.2 121.7 85.8Q121.9 86.4 122.3 86.8Q122.8 87.1 123.5 87.1L123.5 87.1Q123.9 87.1 124.2 87.0Q124.5 86.9 124.7 86.8Q124.9 86.6 125.1 86.3Q125.2 86.1 125.3 85.8L125.3 85.8L126.4 86.1Q126.3 86.6 126.0 87.0Q125.7 87.4 125.3 87.6Q125.0 87.9 124.5 88.0Q124.0 88.2 123.5 88.2ZM130.3 88.2L130.3 88.2Q129.7 88.2 129.1 87.9Q128.6 87.7 128.2 87.2Q127.9 86.7 127.9 86.0L127.9 86.0Q127.9 85.4 128.2 85.0Q128.4 84.6 128.8 84.4Q129.2 84.2 129.7 84.1Q130.2 84.0 130.7 83.9L130.7 83.9Q131.3 83.8 131.7 83.8Q132.1 83.7 132.3 83.6Q132.5 83.5 132.5 83.2L132.5 83.2L132.5 83.2Q132.5 82.8 132.3 82.5Q132.2 82.1 131.8 82.0Q131.5 81.8 131.0 81.8L131.0 81.8Q130.5 81.8 130.1 82.0Q129.8 82.1 129.6 82.4Q129.3 82.6 129.2 82.9L129.2 82.9L128.1 82.5Q128.4 81.8 128.9 81.5Q129.3 81.1 129.9 81.0Q130.4 80.8 131.0 80.8L131.0 80.8Q131.3 80.8 131.8 80.9Q132.2 81.0 132.7 81.2Q133.1 81.5 133.4 82.0Q133.6 82.5 133.6 83.3L133.6 83.3L133.6 88L132.5 88L132.5 87.0L132.4 87.0Q132.3 87.3 132.0 87.5Q131.8 87.8 131.4 88.0Q130.9 88.2 130.3 88.2ZM130.5 87.2L130.5 87.2Q131.2 87.2 131.6 86.9Q132.0 86.7 132.3 86.3Q132.5 85.9 132.5 85.4L132.5 85.4L132.5 84.5Q132.4 84.5 132.2 84.6Q132.0 84.7 131.7 84.7Q131.4 84.8 131.1 84.8Q130.8 84.8 130.6 84.9L130.6 84.9Q130.2 84.9 129.9 85.0Q129.5 85.2 129.3 85.4Q129.1 85.6 129.1 86.0L129.1 86.0Q129.1 86.4 129.3 86.7Q129.4 86.9 129.8 87.0Q130.1 87.2 130.5 87.2ZM137.3 80.9L138.7 80.9L138.7 81.9L137.3 81.9L137.3 86.2Q137.3 86.6 137.5 86.9Q137.7 87.1 138.1 87.1L138.1 87.1Q138.2 87.1 138.4 87.0Q138.6 87.0 138.7 87.0L138.7 87.0L138.9 88.0Q138.8 88.0 138.5 88.1Q138.3 88.1 138.1 88.1L138.1 88.1Q137.2 88.1 136.6 87.6Q136.1 87.1 136.1 86.2L136.1 86.2L136.1 81.9L135.1 81.9L135.1 80.9L136.1 80.9L136.1 79.2L137.3 79.2L137.3 80.9ZM143.5 88.2L143.5 88.2Q142.5 88.2 141.7 87.7Q141.0 87.2 140.6 86.4Q140.2 85.6 140.2 84.5Q140.2 83.4 140.5 82.6Q140.9 81.8 141.7 81.3Q142.4 80.8 143.3 80.8L143.3 80.8Q143.9 80.8 144.5 81.0Q145.0 81.2 145.5 81.6Q145.9 82.0 146.2 82.7Q146.4 83.4 146.4 84.4L146.4 84.4L146.4 84.8L141.3 84.8Q141.3 85.5 141.6 86.0L141.6 86.0Q141.9 86.6 142.3 86.9Q142.8 87.1 143.5 87.1L143.5 87.1Q143.9 87.1 144.2 87.0Q144.6 86.9 144.8 86.7Q145.1 86.4 145.2 86.0L145.2 86.0L146.3 86.3Q146.2 86.9 145.8 87.3Q145.4 87.7 144.8 87.9Q144.2 88.2 143.5 88.2ZM141.3 83.9L141.3 83.9L145.3 83.9Q145.2 83.4 145.1 83.0L145.1 83.0Q144.9 82.4 144.4 82.1Q144.0 81.8 143.3 81.8Q142.7 81.8 142.2 82.1Q141.8 82.5 141.5 83.0L141.5 83.0Q141.3 83.4 141.3 83.9Z M154.7 88L153.6 88L151.4 80.9L152.7 80.9L153.5 84.0Q153.7 84.6 153.9 85.4L153.9 85.4Q154.1 86.0 154.2 86.8L154.2 86.8Q154.3 86.1 154.5 85.5L154.5 85.5Q154.7 84.7 154.9 84.0L154.9 84.0L155.7 80.9L156.9 80.9L157.8 84.0Q158.0 84.7 158.2 85.5L158.2 85.5Q158.3 86.1 158.4 86.8L158.4 86.8Q158.6 86.1 158.7 85.5L158.7 85.5Q158.9 84.7 159.1 84.0L159.1 84.0L160.0 80.9L161.2 80.9L159.0 88L157.9 88L157.0 84.8Q156.8 84.3 156.7 83.8Q156.6 83.3 156.5 82.8L156.5 82.8Q156.4 82.5 156.3 82.2L156.3 82.2Q156.3 82.5 156.2 82.7L156.2 82.7Q156.1 83.3 155.9 83.8Q155.8 84.3 155.7 84.8L155.7 84.8L154.7 88ZM164.1 88L162.9 88L162.9 80.9L164.1 80.9L164.1 88ZM163.5 79.7L163.5 79.7Q163.2 79.7 163.0 79.5Q162.7 79.3 162.7 79.0L162.7 79.0Q162.7 78.7 163.0 78.4Q163.2 78.2 163.5 78.2L163.5 78.2Q163.8 78.2 164.1 78.4Q164.3 78.7 164.3 79.0L164.3 79.0Q164.3 79.3 164.1 79.5Q163.8 79.7 163.5 79.7ZM167.7 80.9L169.2 80.9L169.2 81.9L167.7 81.9L167.7 86.2Q167.7 86.6 167.9 86.9Q168.1 87.1 168.6 87.1L168.6 87.1Q168.7 87.1 168.8 87.0Q169.0 87.0 169.1 87.0L169.1 87.0L169.4 88.0Q169.2 88.0 169.0 88.1Q168.8 88.1 168.5 88.1L168.5 88.1Q167.6 88.1 167.1 87.6Q166.6 87.1 166.6 86.2L166.6 86.2L166.6 81.9L165.5 81.9L165.5 80.9L166.6 80.9L166.6 79.2L167.7 79.2L167.7 80.9ZM172.1 83.7L172.1 83.7L172.1 88L170.9 88L170.9 78.5L172.1 78.5L172.1 82.1Q172.4 81.5 172.8 81.2L172.8 81.2Q173.4 80.8 174.2 80.8L174.2 80.8Q174.9 80.8 175.5 81.1Q176.0 81.4 176.3 82.0Q176.6 82.6 176.6 83.5L176.6 83.5L176.6 88L175.5 88L175.5 83.6Q175.5 82.8 175.0 82.3Q174.6 81.8 173.9 81.8L173.9 81.8Q173.4 81.8 173.0 82.1Q172.6 82.3 172.3 82.7Q172.1 83.1 172.1 83.7Z M185.9 90.8L185.9 90.8Q185.1 90.8 184.5 90.6Q183.9 90.4 183.6 90.1Q183.2 89.7 183.0 89.4L183.0 89.4L183.9 88.8Q184.0 89.0 184.3 89.2Q184.5 89.5 184.9 89.6Q185.3 89.8 185.9 89.8L185.9 89.8Q186.7 89.8 187.3 89.4Q187.8 89.0 187.8 88.1L187.8 88.1L187.8 86.7L187.7 86.7Q187.6 86.9 187.4 87.2Q187.2 87.5 186.8 87.7Q186.3 87.9 185.7 87.9L185.7 87.9Q184.8 87.9 184.1 87.5Q183.4 87.1 183.1 86.3Q182.7 85.5 182.7 84.4L182.7 84.4Q182.7 83.3 183.0 82.5Q183.4 81.7 184.1 81.3Q184.8 80.8 185.7 80.8L185.7 80.8Q186.4 80.8 186.8 81.0Q187.2 81.3 187.4 81.6Q187.6 81.8 187.8 82.0L187.8 82.0L187.9 82.0L187.9 80.9L189.0 80.9L189.0 88.2Q189.0 89.1 188.6 89.7Q188.1 90.3 187.4 90.5Q186.7 90.8 185.9 90.8ZM185.8 86.9L185.8 86.9Q186.5 86.9 186.9 86.6Q187.4 86.3 187.6 85.7Q187.8 85.2 187.8 84.4L187.8 84.4Q187.8 83.6 187.6 83.1Q187.4 82.5 186.9 82.2Q186.5 81.8 185.8 81.8L185.8 81.8Q185.2 81.8 184.7 82.2Q184.3 82.5 184.0 83.1Q183.8 83.7 183.8 84.4L183.8 84.4Q183.8 85.1 184.1 85.7Q184.3 86.2 184.7 86.6Q185.2 86.9 185.8 86.9ZM192.4 88L191.3 88L191.3 80.9L192.4 80.9L192.4 82.0L192.5 82.0Q192.7 81.5 193.2 81.1Q193.7 80.8 194.3 80.8L194.3 80.8Q194.4 80.8 194.6 80.8Q194.8 80.8 194.9 80.8L194.9 80.8L194.9 82.0Q194.8 82.0 194.6 81.9Q194.4 81.9 194.2 81.9L194.2 81.9Q193.7 81.9 193.3 82.1Q192.9 82.3 192.6 82.7Q192.4 83.1 192.4 83.6L192.4 83.6L192.4 88ZM199.5 88.2L199.5 88.2Q198.4 88.2 197.7 87.7Q196.9 87.2 196.5 86.4Q196.1 85.6 196.1 84.5Q196.1 83.4 196.5 82.6Q196.9 81.8 197.6 81.3Q198.4 80.8 199.3 80.8L199.3 80.8Q199.9 80.8 200.4 81.0Q201.0 81.2 201.4 81.6Q201.9 82.0 202.1 82.7Q202.4 83.4 202.4 84.4L202.4 84.4L202.4 84.8L197.3 84.8Q197.3 85.5 197.6 86.0L197.6 86.0Q197.8 86.6 198.3 86.9Q198.8 87.1 199.5 87.1L199.5 87.1Q199.9 87.1 200.2 87.0Q200.6 86.9 200.8 86.7Q201.1 86.4 201.2 86.0L201.2 86.0L202.3 86.3Q202.1 86.9 201.7 87.3Q201.3 87.7 200.8 87.9Q200.2 88.2 199.5 88.2ZM197.3 83.9L197.3 83.9L201.2 83.9Q201.2 83.4 201.0 83.0L201.0 83.0Q200.8 82.4 200.4 82.1Q200.0 81.8 199.3 81.8Q198.7 81.8 198.2 82.1Q197.8 82.5 197.5 83.0L197.5 83.0Q197.3 83.4 197.3 83.9ZM206.3 88.2L206.3 88.2Q205.7 88.2 205.1 87.9Q204.6 87.7 204.2 87.2Q203.9 86.7 203.9 86.0L203.9 86.0Q203.9 85.4 204.2 85.0Q204.4 84.6 204.8 84.4Q205.2 84.2 205.7 84.1Q206.2 84.0 206.7 83.9L206.7 83.9Q207.3 83.8 207.7 83.8Q208.1 83.7 208.3 83.6Q208.5 83.5 208.5 83.2L208.5 83.2L208.5 83.2Q208.5 82.8 208.3 82.5Q208.2 82.1 207.8 82.0Q207.5 81.8 207.0 81.8L207.0 81.8Q206.5 81.8 206.1 82.0Q205.8 82.1 205.6 82.4Q205.3 82.6 205.2 82.9L205.2 82.9L204.1 82.5Q204.4 81.8 204.9 81.5Q205.3 81.1 205.9 81.0Q206.4 80.8 207.0 80.8L207.0 80.8Q207.3 80.8 207.8 80.9Q208.2 81.0 208.7 81.2Q209.1 81.5 209.4 82.0Q209.6 82.5 209.6 83.3L209.6 83.3L209.6 88L208.5 88L208.5 87.0L208.4 87.0Q208.3 87.3 208.1 87.5Q207.8 87.8 207.4 88.0Q206.9 88.2 206.3 88.2ZM206.5 87.2L206.5 87.2Q207.2 87.2 207.6 86.9Q208.0 86.7 208.3 86.3Q208.5 85.9 208.5 85.4L208.5 85.4L208.5 84.5Q208.4 84.5 208.2 84.6Q208.0 84.7 207.7 84.7Q207.4 84.8 207.1 84.8Q206.8 84.8 206.6 84.9L206.6 84.9Q206.2 84.9 205.9 85.0Q205.5 85.2 205.3 85.4Q205.1 85.6 205.1 86.0L205.1 86.0Q205.1 86.4 205.3 86.7Q205.4 86.9 205.8 87.0Q206.1 87.2 206.5 87.2ZM213.3 80.9L214.7 80.9L214.7 81.9L213.3 81.9L213.3 86.2Q213.3 86.6 213.5 86.9Q213.7 87.1 214.1 87.1L214.1 87.1Q214.2 87.1 214.4 87.0Q214.6 87.0 214.7 87.0L214.7 87.0L214.9 88.0Q214.8 88.0 214.5 88.1Q214.3 88.1 214.1 88.1L214.1 88.1Q213.2 88.1 212.7 87.6Q212.1 87.1 212.1 86.2L212.1 86.2L212.1 81.9L211.1 81.9L211.1 80.9L212.1 80.9L212.1 79.2L213.3 79.2L213.3 80.9ZM219.5 88.2L219.5 88.2Q218.5 88.2 217.7 87.7Q217.0 87.2 216.6 86.4Q216.2 85.6 216.2 84.5Q216.2 83.4 216.6 82.6Q216.9 81.8 217.7 81.3Q218.4 80.8 219.4 80.8L219.4 80.8Q219.9 80.8 220.5 81.0Q221.0 81.2 221.5 81.6Q221.9 82.0 222.2 82.7Q222.4 83.4 222.4 84.4L222.4 84.4L222.4 84.8L217.3 84.8Q217.3 85.5 217.6 86.0L217.6 86.0Q217.9 86.6 218.4 86.9Q218.8 87.1 219.5 87.1L219.5 87.1Q219.9 87.1 220.3 87.0Q220.6 86.9 220.8 86.7Q221.1 86.4 221.2 86.0L221.2 86.0L222.3 86.3Q222.2 86.9 221.8 87.3Q221.4 87.7 220.8 87.9Q220.2 88.2 219.5 88.2ZM217.3 83.9L217.3 83.9L221.3 83.9Q221.2 83.4 221.1 83.0L221.1 83.0Q220.9 82.4 220.4 82.1Q220.0 81.8 219.4 81.8Q218.7 81.8 218.3 82.1Q217.8 82.5 217.6 83.0L217.6 83.0Q217.4 83.4 217.3 83.9ZM225.5 88L224.4 88L224.4 80.9L225.5 80.9L225.5 82.0L225.6 82.0Q225.8 81.5 226.3 81.1Q226.8 80.8 227.4 80.8L227.4 80.8Q227.5 80.8 227.7 80.8Q227.9 80.8 228.0 80.8L228.0 80.8L228.0 82.0Q227.9 82.0 227.7 81.9Q227.5 81.9 227.3 81.9L227.3 81.9Q226.8 81.9 226.4 82.1Q226.0 82.3 225.8 82.7Q225.5 83.1 225.5 83.6L225.5 83.6L225.5 88Z M236.9 88.2L236.9 88.2Q235.9 88.2 235.2 87.7Q234.5 87.2 234.1 86.4Q233.7 85.6 233.7 84.5L233.7 84.5Q233.7 83.4 234.1 82.6Q234.5 81.7 235.2 81.3Q235.9 80.8 236.9 80.8L236.9 80.8Q237.4 80.8 237.9 80.9Q238.3 81.1 238.7 81.3Q239.1 81.6 239.3 81.9Q239.6 82.3 239.8 82.8L239.8 82.8L238.7 83.1Q238.6 82.8 238.4 82.6Q238.3 82.4 238.0 82.2Q237.8 82.0 237.5 81.9Q237.2 81.8 236.9 81.8L236.9 81.8Q236.2 81.8 235.7 82.2Q235.3 82.6 235.0 83.2Q234.8 83.8 234.8 84.5L234.8 84.5Q234.8 85.2 235.0 85.8Q235.3 86.4 235.7 86.8Q236.2 87.1 236.9 87.1L236.9 87.1Q237.2 87.1 237.5 87.0Q237.8 86.9 238.1 86.8Q238.3 86.6 238.5 86.3Q238.6 86.1 238.7 85.8L238.7 85.8L239.8 86.1Q239.7 86.6 239.4 87.0Q239.1 87.4 238.7 87.6Q238.3 87.9 237.9 88.0Q237.4 88.2 236.9 88.2ZM241.7 78.5L242.9 78.5L242.9 88L241.7 88L241.7 78.5ZM247.2 88.2L247.2 88.2Q246.5 88.2 245.9 87.9Q245.4 87.7 245.1 87.2Q244.7 86.7 244.7 86.0L244.7 86.0Q244.7 85.4 245.0 85.0Q245.2 84.6 245.6 84.4Q246.0 84.2 246.5 84.1Q247.0 84.0 247.5 83.9L247.5 83.9Q248.1 83.8 248.5 83.8Q248.9 83.7 249.1 83.6Q249.3 83.5 249.3 83.2L249.3 83.2L249.3 83.2Q249.3 82.8 249.2 82.5Q249.0 82.1 248.7 82.0Q248.3 81.8 247.8 81.8L247.8 81.8Q247.3 81.8 247.0 82.0Q246.6 82.1 246.4 82.4Q246.2 82.6 246.0 82.9L246.0 82.9L244.9 82.5Q245.2 81.8 245.7 81.5Q246.1 81.1 246.7 81.0Q247.3 80.8 247.8 80.8L247.8 80.8Q248.2 80.8 248.6 80.9Q249.1 81.0 249.5 81.2Q249.9 81.5 250.2 82.0Q250.5 82.5 250.5 83.3L250.5 83.3L250.5 88L249.3 88L249.3 87.0L249.3 87.0Q249.2 87.3 248.9 87.5Q248.6 87.8 248.2 88.0Q247.8 88.2 247.2 88.2ZM247.4 87.2L247.4 87.2Q248.0 87.2 248.4 86.9Q248.9 86.7 249.1 86.3Q249.3 85.9 249.3 85.4L249.3 85.4L249.3 84.5Q249.3 84.5 249.0 84.6Q248.8 84.7 248.5 84.7Q248.2 84.8 247.9 84.8Q247.6 84.8 247.5 84.9L247.5 84.9Q247.0 84.9 246.7 85.0Q246.3 85.2 246.1 85.4Q245.9 85.6 245.9 86.0L245.9 86.0Q245.9 86.4 246.1 86.7Q246.3 86.9 246.6 87.0Q246.9 87.2 247.4 87.2ZM253.9 88L252.8 88L252.8 80.9L253.9 80.9L253.9 82.0L254.0 82.0Q254.2 81.5 254.7 81.1Q255.2 80.8 255.8 80.8L255.8 80.8Q255.9 80.8 256.1 80.8Q256.3 80.8 256.4 80.8L256.4 80.8L256.4 82.0Q256.3 82.0 256.1 81.9Q255.9 81.9 255.7 81.9L255.7 81.9Q255.2 81.9 254.8 82.1Q254.4 82.3 254.1 82.7Q253.9 83.1 253.9 83.6L253.9 83.6L253.9 88ZM259.1 88L258.0 88L258.0 80.9L259.1 80.9L259.1 88ZM258.5 79.7L258.5 79.7Q258.2 79.7 258.0 79.5Q257.8 79.3 257.8 79.0L257.8 79.0Q257.8 78.7 258.0 78.4Q258.2 78.2 258.5 78.2L258.5 78.2Q258.9 78.2 259.1 78.4Q259.3 78.7 259.3 79.0L259.3 79.0Q259.3 79.3 259.1 79.5Q258.9 79.7 258.5 79.7ZM262.8 80.9L264.2 80.9L264.2 81.9L262.8 81.9L262.8 86.2Q262.8 86.6 262.9 86.9Q263.1 87.1 263.6 87.1L263.6 87.1Q263.7 87.1 263.9 87.0Q264.0 87.0 264.2 87.0L264.2 87.0L264.4 88.0Q264.2 88.0 264.0 88.1Q263.8 88.1 263.6 88.1L263.6 88.1Q262.6 88.1 262.1 87.6Q261.6 87.1 261.6 86.2L261.6 86.2L261.6 81.9L260.5 81.9L260.5 80.9L261.6 80.9L261.6 79.2L262.8 79.2L262.8 80.9ZM265.9 90.6L265.9 90.6L266.2 89.6L266.3 89.6Q266.6 89.7 266.9 89.7Q267.2 89.6 267.4 89.4Q267.6 89.1 267.8 88.6L267.8 88.6L268.0 88.0L265.3 80.9L266.6 80.9L268.1 85.1Q268.3 85.8 268.5 86.4L268.5 86.4Q268.6 86.7 268.6 87.0L268.6 87.0Q268.7 86.7 268.8 86.4L268.8 86.4Q268.9 85.8 269.2 85.1L269.2 85.1L270.7 80.9L271.9 80.9L268.8 89.1Q268.6 89.6 268.3 90.0Q268.0 90.4 267.6 90.5Q267.2 90.7 266.7 90.7L266.7 90.7Q266.4 90.7 266.2 90.7Q265.9 90.6 265.9 90.6ZM274.4 88.1L274.4 88.1Q274.1 88.1 273.8 87.8Q273.6 87.6 273.6 87.2L273.6 87.2Q273.6 86.9 273.8 86.6Q274.1 86.4 274.4 86.4L274.4 86.4Q274.8 86.4 275.1 86.6Q275.3 86.9 275.3 87.2L275.3 87.2Q275.3 87.6 275.1 87.8Q274.8 88.1 274.4 88.1Z "/></g><mask id="satori_om-id-2"><rect x="647" y="39" width="180" height="43" fill="#fff" mask="url(#satori_om-id)"/></mask><mask id="satori_om-id-2-0"><rect x="726" y="39" width="101" height="20" fill="#fff" mask="url(#satori_om-id)"/></mask><defs><clipPath id="satori_bc-id-2-0-0" clip-path="url(#satori_cp-id)"><path x="726" y="39" width="29" height="20" d="M730,39 h21 a4,4 0 0 1 4,4 v12 a4,4 0 0 1 -4,4 h-21 a4,4 0 0 1 -4,-4 v-12 a4,4 0 0 1 4,-4"/></clipPath></defs><mask id="satori_om-id-2-0-0"><rect x="727" y="40" width="27" height="18" fill="#fff" mask="url(#satori_om-id)"/><path width="29" height="20" fill="none" stroke="#000" stroke-width="2" d="M727.172,40.172 A4,4 0 0 1 730,39 h21 a4,4 0 0 1 4,4 v12 a4,4 0 0 1 -4,4 h-21 a4,4 0 0 1 -4,-4 v-12 A4,4 0 0 1 727.172,40.172"/></mask><path x="726" y="39" width="29" height="20" fill="rgba(147,51,234,0.12)" d="M730,39 h21 a4,4 0 0 1 4,4 v12 a4,4 0 0 1 -4,4 h-21 a4,4 0 0 1 -4,-4 v-12 a4,4 0 0 1 4,-4" clip-path="url(#satori_cp-id)" mask="url(#satori_om-id)"/><path width="29" height="20" clip-path="url(#satori_bc-id-2-0-0)" fill="none" stroke="rgba(147,51,234,0.35)" stroke-width="2" d="M727.172,40.172 A4,4 0 0 1 730,39 h21 a4,4 0 0 1 4,4 v12 a4,4 0 0 1 -4,4 h-21 a4,4 0 0 1 -4,-4 v-12 A4,4 0 0 1 727.172,40.172"/><g mask="url(#satori_om-id)" clip-path="url(#satori_cp-id)"><path fill="rgba(244,220,255,0.9)" d="M736.9 53L735.2 53L737.7 45.7L739.7 45.7L742.2 53L740.6 53L740.0 51.3L737.4 51.3L736.9 53ZM737.8 50.1L739.6 50.1L739.4 49.5Q739.2 48.8 739.0 48L739.0 48Q738.8 47.5 738.7 46.9L738.7 46.9Q738.5 47.5 738.4 48.0L738.4 48.0Q738.2 48.8 738.0 49.5L738.0 49.5L737.8 50.1ZM743.1 45.7L744.6 45.7L744.6 53L743.1 53L743.1 45.7Z "/></g><defs><clipPath id="satori_bc-id-2-0-1" clip-path="url(#satori_cp-id)"><path x="761" y="39" width="66" height="20" d="M765,39 h58 a4,4 0 0 1 4,4 v12 a4,4 0 0 1 -4,4 h-58 a4,4 0 0 1 -4,-4 v-12 a4,4 0 0 1 4,-4"/></clipPath></defs><mask id="satori_om-id-2-0-1"><rect x="762" y="40" width="64" height="18" fill="#fff" mask="url(#satori_om-id)"/><path width="66" height="20" fill="none" stroke="#000" stroke-width="2" d="M762.172,40.172 A4,4 0 0 1 765,39 h58 a4,4 0 0 1 4,4 v12 a4,4 0 0 1 -4,4 h-58 a4,4 0 0 1 -4,-4 v-12 A4,4 0 0 1 762.172,40.172"/></mask><path x="761" y="39" width="66" height="20" fill="rgba(147,51,234,0.12)" d="M765,39 h58 a4,4 0 0 1 4,4 v12 a4,4 0 0 1 -4,4 h-58 a4,4 0 0 1 -4,-4 v-12 a4,4 0 0 1 4,-4" clip-path="url(#satori_cp-id)" mask="url(#satori_om-id)"/><path width="66" height="20" clip-path="url(#satori_bc-id-2-0-1)" fill="none" stroke="rgba(147,51,234,0.35)" stroke-width="2" d="M762.172,40.172 A4,4 0 0 1 765,39 h58 a4,4 0 0 1 4,4 v12 a4,4 0 0 1 -4,4 h-58 a4,4 0 0 1 -4,-4 v-12 A4,4 0 0 1 762.172,40.172"/><g mask="url(#satori_om-id)" clip-path="url(#satori_cp-id)"><path fill="rgba(244,220,255,0.9)" d="M772.1 53L770.7 53L770.7 45.7L775.4 45.7L775.4 47.0L772.1 47.0L772.1 49.0L775.1 49.0L775.1 50.2L772.1 50.2L772.1 53ZM778.4 53.1L778.4 53.1Q777.8 53.1 777.4 52.8Q777.0 52.6 776.7 52.1Q776.5 51.7 776.5 51.0L776.5 51.0L776.5 47.5L778.0 47.5L778.0 50.8Q778.0 51.3 778.2 51.6Q778.5 51.8 778.9 51.8L778.9 51.8Q779.3 51.8 779.5 51.7Q779.7 51.6 779.9 51.3Q780.0 51.1 780.0 50.7L780.0 50.7L780.0 47.5L781.5 47.5L781.5 53L780.1 53L780.1 51.9Q779.9 52.4 779.5 52.7L779.5 52.7Q779.1 53.1 778.4 53.1ZM782.7 45.7L784.2 45.7L784.2 53L782.7 53L782.7 45.7ZM785.4 45.7L786.9 45.7L786.9 53L785.4 53L785.4 45.7Z M793.2 53.1L793.2 53.1Q792.3 53.1 791.7 52.8Q791.0 52.6 790.7 52.0Q790.3 51.5 790.3 50.7L790.3 50.7L791.7 50.7Q791.8 51.1 792.0 51.4Q792.2 51.6 792.5 51.7Q792.8 51.8 793.2 51.8L793.2 51.8Q793.6 51.8 793.9 51.7Q794.2 51.6 794.4 51.4Q794.5 51.2 794.5 50.9L794.5 50.9Q794.5 50.7 794.4 50.5Q794.2 50.3 793.9 50.2Q793.7 50.1 793.3 50.0L793.3 50.0L792.5 49.8Q791.5 49.6 791.0 49.1Q790.5 48.6 790.5 47.8L790.5 47.8Q790.5 47.2 790.8 46.7Q791.2 46.2 791.8 45.9Q792.4 45.6 793.2 45.6L793.2 45.6Q794.0 45.6 794.6 45.9Q795.2 46.2 795.6 46.7Q795.9 47.2 795.9 47.8L795.9 47.8L794.5 47.8Q794.4 47.4 794.1 47.1Q793.8 46.9 793.2 46.9L793.2 46.9Q792.8 46.9 792.6 47.0Q792.3 47.1 792.2 47.3Q792.0 47.5 792.0 47.7L792.0 47.7Q792.0 48.0 792.2 48.2Q792.3 48.3 792.6 48.5Q792.9 48.6 793.2 48.6L793.2 48.6L793.8 48.8Q794.3 48.9 794.7 49.1Q795.1 49.3 795.4 49.5Q795.7 49.8 795.9 50.1Q796.0 50.5 796.0 50.9L796.0 50.9Q796.0 51.6 795.7 52.1Q795.4 52.6 794.7 52.8Q794.1 53.1 793.2 53.1ZM798.7 47.5L799.8 47.5L799.8 48.7L798.7 48.7L798.7 51.4Q798.7 51.7 798.9 51.8Q799.0 51.9 799.2 51.9L799.2 51.9Q799.3 51.9 799.5 51.9Q799.6 51.9 799.7 51.8L799.7 51.8L799.9 52.9Q799.7 53.0 799.4 53.0Q799.2 53.1 799.0 53.1L799.0 53.1Q798.1 53.1 797.7 52.7Q797.3 52.3 797.3 51.5L797.3 51.5L797.3 48.7L796.5 48.7L796.5 47.5L797.3 47.5L797.3 46.2L798.7 46.2L798.7 47.5ZM802.2 53.1L802.2 53.1Q801.7 53.1 801.3 52.9Q800.9 52.7 800.7 52.4Q800.4 52.0 800.4 51.5L800.4 51.5Q800.4 51.0 800.6 50.7Q800.8 50.4 801.1 50.2Q801.3 50.0 801.7 49.9Q802.1 49.8 802.5 49.8L802.5 49.8Q803.0 49.7 803.2 49.7Q803.5 49.7 803.7 49.6Q803.8 49.5 803.8 49.3L803.8 49.3L803.8 49.3Q803.8 49.0 803.7 48.9Q803.6 48.7 803.4 48.6Q803.2 48.6 803.0 48.6L803.0 48.6Q802.7 48.6 802.5 48.6Q802.3 48.7 802.1 48.9Q802.0 49.0 801.9 49.2L801.9 49.2L800.6 49.0Q800.7 48.5 801.0 48.2Q801.4 47.8 801.9 47.6Q802.3 47.5 803.0 47.5L803.0 47.5Q803.4 47.5 803.8 47.6Q804.2 47.7 804.6 47.9Q804.9 48.1 805.1 48.5Q805.3 48.8 805.3 49.3L805.3 49.3L805.3 53L803.9 53L803.9 52.2L803.8 52.2Q803.7 52.5 803.5 52.7Q803.3 52.9 803.0 53.0Q802.6 53.1 802.2 53.1ZM802.7 52.1L802.7 52.1Q803.0 52.1 803.3 51.9Q803.5 51.8 803.7 51.6Q803.8 51.3 803.8 51.0L803.8 51.0L803.8 50.5Q803.8 50.5 803.6 50.5Q803.5 50.6 803.3 50.6Q803.2 50.6 803.0 50.7Q802.9 50.7 802.7 50.7L802.7 50.7Q802.5 50.7 802.3 50.8Q802.1 50.9 801.9 51.1Q801.8 51.2 801.8 51.4L801.8 51.4Q801.8 51.6 801.9 51.8Q802.0 51.9 802.2 52.0Q802.4 52.1 802.7 52.1ZM809.0 53.1L809.0 53.1Q808.1 53.1 807.5 52.8Q806.9 52.4 806.6 51.8Q806.3 51.1 806.3 50.3L806.3 50.3Q806.3 49.4 806.6 48.8Q806.9 48.2 807.5 47.8Q808.1 47.5 809.0 47.5L809.0 47.5Q809.4 47.5 809.9 47.6Q810.3 47.7 810.6 48.0Q810.9 48.2 811.1 48.5Q811.3 48.9 811.4 49.3L811.4 49.3L810.0 49.5Q810.0 49.3 809.9 49.2Q809.8 49.0 809.7 48.9Q809.5 48.8 809.4 48.7Q809.2 48.6 809.0 48.6L809.0 48.6Q808.6 48.6 808.3 48.8Q808.1 49.0 807.9 49.4Q807.8 49.8 807.8 50.3L807.8 50.3Q807.8 50.8 807.9 51.1Q808.1 51.5 808.3 51.7Q808.6 52.0 809.0 52.0L809.0 52.0Q809.2 52.0 809.4 51.9Q809.5 51.8 809.7 51.7Q809.8 51.6 809.9 51.4Q810 51.2 810.0 51.0L810.0 51.0L811.4 51.3Q811.3 51.7 811.1 52.0Q810.9 52.4 810.6 52.6Q810.3 52.9 809.9 53.0Q809.5 53.1 809.0 53.1ZM813.9 53L812.4 53L812.4 45.7L813.9 45.7L813.9 49.6L814.0 49.6L815.7 47.5L817.4 47.5L815.4 49.9L817.5 53L815.8 53L814.3 50.8L813.9 51.2L813.9 53Z "/></g><mask id="satori_om-id-2-1"><rect x="723" y="69" width="104" height="13" fill="#fff" mask="url(#satori_om-id)"/></mask><g mask="url(#satori_om-id)" clip-path="url(#satori_cp-id)"><path fill="#a855f7" d="M728.2 80L726.1 80L723.3 72.0L725.1 72.0L726.4 75.9Q726.6 76.6 726.8 77.5L726.8 77.5Q727.0 78.0 727.1 78.7L727.1 78.7Q727.3 78.0 727.5 77.5L727.5 77.5Q727.7 76.6 727.9 75.9L727.9 75.9L729.1 72.0L730.9 72.0L728.2 80ZM733.8 80L732.2 80L732.2 74.0L733.8 74.0L733.8 80ZM733.0 73.2L733.0 73.2Q732.6 73.2 732.4 73.0Q732.1 72.7 732.1 72.4L732.1 72.4Q732.1 72.0 732.4 71.8Q732.6 71.6 733.0 71.6L733.0 71.6Q733.4 71.6 733.6 71.8Q733.9 72.0 733.9 72.4L733.9 72.4Q733.9 72.7 733.6 73.0Q733.4 73.2 733.0 73.2ZM738.2 80.1L738.2 80.1Q737.3 80.1 736.6 79.7Q735.9 79.4 735.6 78.7Q735.2 78.0 735.2 77.0L735.2 77.0Q735.2 76.1 735.6 75.4Q735.9 74.7 736.6 74.3Q737.2 73.9 738.1 73.9L738.1 73.9Q738.7 73.9 739.2 74.1Q739.7 74.3 740.1 74.7Q740.5 75.1 740.7 75.6Q740.9 76.2 740.9 77.0L740.9 77.0L740.9 77.4L736.8 77.4Q736.8 77.9 737.0 78.2L737.0 78.2Q737.2 78.5 737.5 78.7Q737.8 78.9 738.2 78.9L738.2 78.9Q738.5 78.9 738.7 78.8Q739.0 78.7 739.1 78.6Q739.3 78.4 739.4 78.2L739.4 78.2L740.8 78.5Q740.7 79.0 740.3 79.3Q740.0 79.7 739.4 79.9Q738.9 80.1 738.2 80.1ZM736.8 76.4L736.8 76.4L739.4 76.4Q739.3 76.1 739.3 75.9L739.3 75.9Q739.1 75.5 738.8 75.3Q738.5 75.1 738.1 75.1L738.1 75.1Q737.7 75.1 737.4 75.3Q737.1 75.5 737.0 75.8L737.0 75.8Q736.9 76.1 736.8 76.4ZM745.2 80L743.6 80L741.8 74.0L743.5 74.0L744.0 76.2Q744.2 76.8 744.3 77.5L744.3 77.5Q744.4 78.0 744.5 78.5L744.5 78.5Q744.6 78.0 744.7 77.5L744.7 77.5Q744.9 76.8 745.0 76.2L745.0 76.2L745.6 74.0L747.1 74.0L747.6 76.2Q747.7 76.8 747.9 77.5L747.9 77.5Q748.0 78.0 748.1 78.5L748.1 78.5Q748.2 78.0 748.3 77.5L748.3 77.5Q748.5 76.8 748.6 76.2L748.6 76.2L749.1 74.0L750.8 74.0L749.0 80L747.4 80L746.7 77.7Q746.6 77.3 746.5 76.9Q746.5 76.5 746.4 76.1L746.4 76.1Q746.3 76.0 746.3 75.8L746.3 75.8Q746.3 76.0 746.3 76.1L746.3 76.1Q746.2 76.5 746.1 76.9Q746.0 77.3 745.9 77.7L745.9 77.7L745.2 80Z M756.6 80L754.9 80L754.9 72.0L758.0 72.0Q759.0 72.0 759.6 72.3Q760.2 72.6 760.6 73.2Q760.9 73.8 760.9 74.6Q760.9 75.4 760.6 76.0Q760.2 76.5 759.6 76.8L759.6 76.8Q759.5 76.9 759.5 76.9L759.5 76.9L761.2 80L759.4 80L757.8 77.1L756.6 77.1L756.6 80ZM756.6 73.4L756.6 75.8L757.7 75.8Q758.3 75.8 758.6 75.7Q758.9 75.5 759.1 75.3Q759.2 75.0 759.2 74.6L759.2 74.6Q759.2 74.2 759.1 73.9Q758.9 73.6 758.6 73.5Q758.2 73.4 757.7 73.4L757.7 73.4L756.6 73.4ZM765.1 80.1L765.1 80.1Q764.2 80.1 763.5 79.7Q762.9 79.4 762.5 78.7Q762.2 78.0 762.2 77.0L762.2 77.0Q762.2 76.1 762.5 75.4Q762.9 74.7 763.5 74.3Q764.2 73.9 765.0 73.9L765.0 73.9Q765.6 73.9 766.1 74.1Q766.7 74.3 767.0 74.7Q767.4 75.1 767.6 75.6Q767.9 76.2 767.9 77.0L767.9 77.0L767.9 77.4L763.8 77.4Q763.8 77.9 763.9 78.2L763.9 78.2Q764.1 78.5 764.4 78.7Q764.7 78.9 765.2 78.9L765.2 78.9Q765.4 78.9 765.7 78.8Q765.9 78.7 766.1 78.6Q766.2 78.4 766.3 78.2L766.3 78.2L767.8 78.5Q767.6 79.0 767.3 79.3Q766.9 79.7 766.4 79.9Q765.8 80.1 765.1 80.1ZM763.8 76.4L763.8 76.4L766.3 76.4Q766.3 76.1 766.2 75.9L766.2 75.9Q766.0 75.5 765.8 75.3Q765.5 75.1 765.1 75.1L765.1 75.1Q764.6 75.1 764.4 75.3Q764.1 75.5 763.9 75.8L763.9 75.8Q763.8 76.1 763.8 76.4ZM770.9 82.2L769.3 82.2L769.3 74.0L770.9 74.0L770.9 75.0L770.9 75.0Q771.0 74.8 771.2 74.5Q771.5 74.3 771.8 74.1Q772.1 73.9 772.6 73.9L772.6 73.9Q773.3 73.9 773.9 74.3Q774.4 74.6 774.7 75.3Q775.1 76.0 775.1 77.0L775.1 77.0Q775.1 78.0 774.8 78.7Q774.4 79.4 773.9 79.7Q773.3 80.1 772.6 80.1L772.6 80.1Q772.1 80.1 771.8 79.9Q771.5 79.8 771.3 79.5Q771.0 79.3 770.9 79.0L770.9 79.0L770.9 79.0L770.9 82.2ZM772.1 78.8L772.1 78.8Q772.6 78.8 772.8 78.6Q773.1 78.3 773.3 77.9Q773.4 77.5 773.4 77.0L773.4 77.0Q773.4 76.5 773.3 76.1Q773.1 75.7 772.8 75.4Q772.6 75.2 772.1 75.2L772.1 75.2Q771.7 75.2 771.4 75.4Q771.1 75.7 771.0 76.1Q770.8 76.5 770.8 77.0L770.8 77.0Q770.8 77.5 771.0 78.0Q771.1 78.4 771.4 78.6Q771.7 78.8 772.1 78.8ZM779.2 80.1L779.2 80.1Q778.3 80.1 777.6 79.7Q777.0 79.3 776.6 78.6Q776.2 77.9 776.2 77.0L776.2 77.0Q776.2 76.1 776.6 75.4Q777.0 74.7 777.6 74.3Q778.3 73.9 779.2 73.9L779.2 73.9Q780.1 73.9 780.8 74.3Q781.4 74.7 781.8 75.4Q782.1 76.1 782.1 77.0L782.1 77.0Q782.1 77.9 781.8 78.6Q781.4 79.3 780.8 79.7Q780.1 80.1 779.2 80.1ZM779.2 78.9L779.2 78.9Q779.6 78.9 779.9 78.6Q780.2 78.4 780.3 78.0Q780.5 77.5 780.5 77.0L780.5 77.0Q780.5 76.5 780.3 76.1Q780.2 75.7 779.9 75.4Q779.6 75.2 779.2 75.2L779.2 75.2Q778.8 75.2 778.5 75.4Q778.2 75.7 778.0 76.1Q777.9 76.5 777.9 77.0L777.9 77.0Q777.9 77.5 778.0 78.0Q778.2 78.4 778.5 78.6Q778.8 78.9 779.2 78.9ZM785.9 80.1L785.9 80.1Q785.2 80.1 784.6 79.9Q784.1 79.7 783.7 79.3Q783.4 78.9 783.3 78.4L783.3 78.4L784.8 78.1Q784.9 78.5 785.2 78.7Q785.5 78.9 786.0 78.9L786.0 78.9Q786.4 78.9 786.7 78.8Q787.0 78.6 787.0 78.3L787.0 78.3Q787.0 78.1 786.8 77.9Q786.6 77.8 786.2 77.7L786.2 77.7L785.2 77.5Q784.3 77.3 783.9 76.9Q783.4 76.5 783.4 75.8L783.4 75.8Q783.4 75.2 783.8 74.8Q784.1 74.4 784.6 74.1Q785.2 73.9 786.0 73.9L786.0 73.9Q786.7 73.9 787.2 74.1Q787.7 74.3 788.0 74.7Q788.4 75.0 788.5 75.5L788.5 75.5L787.0 75.8Q786.9 75.5 786.7 75.3Q786.4 75.1 786.0 75.1L786.0 75.1Q785.6 75.1 785.3 75.2Q785.0 75.4 785.0 75.7L785.0 75.7Q785.0 75.9 785.2 76.1Q785.4 76.2 785.8 76.3L785.8 76.3L786.9 76.5Q787.8 76.7 788.2 77.1Q788.6 77.5 788.6 78.1L788.6 78.1Q788.6 78.7 788.3 79.2Q787.9 79.6 787.3 79.9Q786.7 80.1 785.9 80.1ZM791.6 80L790.0 80L790.0 74.0L791.6 74.0L791.6 80ZM790.8 73.2L790.8 73.2Q790.4 73.2 790.2 73.0Q789.9 72.7 789.9 72.4L789.9 72.4Q789.9 72.0 790.2 71.8Q790.4 71.6 790.8 71.6L790.8 71.6Q791.2 71.6 791.4 71.8Q791.7 72.0 791.7 72.4L791.7 72.4Q791.7 72.7 791.4 73.0Q791.2 73.2 790.8 73.2ZM795.1 74.0L796.3 74.0L796.3 75.2L795.1 75.2L795.1 78.2Q795.1 78.5 795.3 78.7Q795.4 78.8 795.7 78.8L795.7 78.8Q795.8 78.8 796.0 78.8Q796.1 78.8 796.2 78.7L796.2 78.7L796.4 79.9Q796.2 80.0 795.9 80.1Q795.6 80.1 795.4 80.1L795.4 80.1Q794.5 80.1 794.0 79.6Q793.5 79.2 793.5 78.4L793.5 78.4L793.5 75.2L792.7 75.2L792.7 74.0L793.5 74.0L793.5 72.6L795.1 72.6L795.1 74.0ZM800.3 80.1L800.3 80.1Q799.4 80.1 798.7 79.7Q798.1 79.3 797.7 78.6Q797.4 77.9 797.4 77.0L797.4 77.0Q797.4 76.1 797.7 75.4Q798.1 74.7 798.7 74.3Q799.4 73.9 800.3 73.9L800.3 73.9Q801.2 73.9 801.9 74.3Q802.5 74.7 802.9 75.4Q803.2 76.1 803.2 77.0L803.2 77.0Q803.2 77.9 802.9 78.6Q802.5 79.3 801.9 79.7Q801.2 80.1 800.3 80.1ZM800.3 78.9L800.3 78.9Q800.7 78.9 801.0 78.6Q801.3 78.4 801.5 78.0Q801.6 77.5 801.6 77.0L801.6 77.0Q801.6 76.5 801.5 76.1Q801.3 75.7 801.0 75.4Q800.7 75.2 800.3 75.2L800.3 75.2Q799.9 75.2 799.6 75.4Q799.3 75.7 799.2 76.1Q799.0 76.5 799.0 77.0L799.0 77.0Q799.0 77.5 799.2 78.0Q799.3 78.4 799.6 78.6Q799.9 78.9 800.3 78.9ZM806.3 80L804.7 80L804.7 74.0L806.2 74.0L806.2 75.0L806.3 75.0Q806.5 74.5 806.8 74.2Q807.2 73.9 807.7 73.9L807.7 73.9Q807.9 73.9 808.0 73.9Q808.1 73.9 808.3 74.0L808.3 74.0L808.3 75.4Q808.1 75.4 807.9 75.3Q807.7 75.3 807.6 75.3L807.6 75.3Q807.2 75.3 806.9 75.5Q806.6 75.6 806.4 75.9Q806.3 76.2 806.3 76.6L806.3 76.6L806.3 80ZM809.4 82.1L809.4 82.1L809.8 80.9L810.0 81.0Q810.3 81.0 810.5 81.0Q810.8 81.0 810.9 80.8Q811.1 80.6 811.1 80.3L811.1 80.3L811.2 80.0L808.9 74.0L810.6 74.0L811.6 77.1Q811.8 77.7 811.9 78.3L811.9 78.3Q812.0 78.5 812.0 78.7L812.0 78.7Q812.1 78.5 812.1 78.3L812.1 78.3Q812.3 77.7 812.5 77.1L812.5 77.1L813.5 74.0L815.2 74.0L812.7 80.7Q812.5 81.2 812.2 81.5Q811.9 81.9 811.5 82.1Q811.1 82.3 810.5 82.3L810.5 82.3Q810.1 82.3 809.9 82.2Q809.6 82.2 809.4 82.1Z M824.0 70.0L824.0 82.2L820.3 82.2L820.3 70.0L824.0 70.0ZM822.5 80.3L821.3 81.0L821.3 81.4L823.1 81.4L823.1 81.0L821.9 81.0L823.1 80.3L823.1 80L821.3 80L821.3 80.3L822.5 80.3ZM823.1 78.3L821.3 78.3L821.3 79.7L823.1 79.7L823.1 78.3ZM822.7 78.6L822.7 79.3L821.7 79.3L821.7 78.6L822.7 78.6ZM821.7 76.2L821.3 76.2L821.3 77.6L823.1 77.6L823.1 76.2L822.0 76.2L822.0 76.9L822.4 76.9L822.4 76.6L822.7 76.6L822.7 77.3L821.7 77.3L821.7 76.2ZM822.7 75.5L821.3 75.5L821.3 75.9L823.1 75.9L823.1 74.7L822.7 74.7L822.7 75.5ZM822.0 74.8L821.3 74.8L821.3 75.2L822.4 75.2L822.4 74.3L823.1 74.3L823.1 74.0L821.3 74.0L821.3 74.3L822.0 74.3L822.0 74.8ZM822.0 72.8L822.0 73.3L821.7 73.3L821.7 72.8L822.0 72.8ZM822.4 72.4L821.3 72.4L821.3 73.6L823.1 73.6L823.1 73.3L822.4 73.3L822.4 72.4ZM821.9 71.8L821.3 71.8L821.3 72.1L823.1 72.1L823.1 71.8L822.3 71.8L822.3 71.2L823.1 71.2L823.1 70.9L821.3 70.9L821.3 71.2L821.9 71.2L821.9 71.8Z "/></g></svg>