<!-- Generated by readme-aura https://github.com/collectioneur/readme-aura -->
<svg width="860" height="30" viewBox="0 0 860 30" xmlns="http://www.w3.org/2000/svg"><mask id="satori_om-id"><rect x="0" y="0" width="860" height="30" fill="#fff"/></mask><mask id="satori_om-id-0"><rect x="32" y="9" width="160" height="12" fill="#fff"/></mask><g  ><path fill="rgba(216,180,254,0.35)" d="M34.1 19L32.7 19L32.7 11.7L37.4 11.7L37.4 13.0L34.1 13.0L34.1 15.0L37.1 15.0L37.1 16.2L34.1 16.2L34.1 19ZM46.4 19L41.5 19L41.5 11.7L46.4 11.7L46.4 13.0L43.0 13.0L43.0 14.7L46.1 14.7L46.1 15.9L43.0 15.9L43.0 17.8L46.4 17.8L46.4 19ZM51.8 19L50.2 19L52.7 11.7L54.6 11.7L57.2 19L55.5 19L55.0 17.3L52.4 17.3L51.8 19ZM52.7 16.1L54.6 16.1L54.3 15.5Q54.1 14.8 53.9 14L53.9 14Q53.8 13.5 53.6 12.9L53.6 12.9Q53.5 13.5 53.4 14.0L53.4 14.0Q53.2 14.8 53.0 15.5L53.0 15.5L52.7 16.1ZM63.0 13.0L60.8 13.0L60.8 11.7L66.7 11.7L66.7 13.0L64.5 13.0L64.5 19L63.0 19L63.0 13.0ZM73.7 19.1L73.7 19.1Q72.8 19.1 72.2 18.8Q71.5 18.4 71.1 17.8Q70.7 17.2 70.7 16.4L70.7 16.4L70.7 11.7L72.2 11.7L72.2 16.3Q72.2 16.7 72.4 17.1Q72.6 17.4 72.9 17.6Q73.3 17.8 73.7 17.8L73.7 17.8Q74.2 17.8 74.5 17.6Q74.9 17.4 75.1 17.1Q75.3 16.7 75.3 16.3L75.3 16.3L75.3 11.7L76.7 11.7L76.7 16.4Q76.7 17.2 76.4 17.8Q76.0 18.4 75.3 18.8Q74.6 19.1 73.7 19.1ZM82.6 19L81.1 19L81.1 11.7L83.9 11.7Q84.7 11.7 85.3 12.0Q85.9 12.3 86.2 12.8Q86.5 13.4 86.5 14.1Q86.5 14.8 86.2 15.3Q85.9 15.9 85.3 16.1L85.3 16.1Q85.3 16.1 85.2 16.2L85.2 16.2L86.8 19L85.1 19L83.7 16.4L82.6 16.4L82.6 19ZM82.6 13.0L82.6 15.2L83.6 15.2Q84.1 15.2 84.4 15.1Q84.7 14.9 84.8 14.7Q85.0 14.5 85.0 14.1L85.0 14.1Q85.0 13.7 84.8 13.5Q84.7 13.2 84.4 13.1Q84.1 13.0 83.6 13.0L83.6 13.0L82.6 13.0ZM95.5 19L90.6 19L90.6 11.7L95.5 11.7L95.5 13.0L92.1 13.0L92.1 14.7L95.2 14.7L95.2 15.9L92.1 15.9L92.1 17.8L95.5 17.8L95.5 19ZM102.3 19L102.3 19L99.7 19L99.7 11.7L102.3 11.7Q103.4 11.7 104.2 12.2Q105.0 12.6 105.4 13.4Q105.8 14.2 105.8 15.4L105.8 15.4Q105.8 16.5 105.4 17.3Q105.0 18.1 104.2 18.6Q103.4 19 102.3 19ZM101.2 13.0L101.2 17.7L102.2 17.7Q102.9 17.7 103.4 17.5Q103.8 17.2 104.1 16.7Q104.3 16.2 104.3 15.4L104.3 15.4Q104.3 14.5 104.1 14.0Q103.8 13.5 103.4 13.3Q102.9 13.0 102.2 13.0L102.2 13.0L101.2 13.0Z M116.8 19L115.3 19L115.3 11.7L118.1 11.7Q119.0 11.7 119.5 12.0Q120.1 12.4 120.4 12.9Q120.7 13.5 120.7 14.2L120.7 14.2Q120.7 14.9 120.4 15.5Q120.1 16.0 119.5 16.3Q118.9 16.6 118.1 16.6L118.1 16.6L116.8 16.6L116.8 19ZM116.8 13.0L116.8 15.4L117.9 15.4Q118.3 15.4 118.6 15.3Q118.9 15.1 119.1 14.8Q119.2 14.5 119.2 14.2Q119.2 13.8 119.1 13.5Q118.9 13.3 118.6 13.1Q118.3 13.0 117.9 13.0L117.9 13.0L116.8 13.0ZM126.3 19L124.8 19L124.8 11.7L127.6 11.7Q128.4 11.7 129.0 12.0Q129.6 12.3 129.9 12.8Q130.2 13.4 130.2 14.1Q130.2 14.8 129.9 15.3Q129.6 15.9 129.0 16.1L129.0 16.1Q129.0 16.1 128.9 16.2L128.9 16.2L130.5 19L128.8 19L127.4 16.4L126.3 16.4L126.3 19ZM126.3 13.0L126.3 15.2L127.3 15.2Q127.8 15.2 128.1 15.1Q128.4 14.9 128.5 14.7Q128.7 14.5 128.7 14.1L128.7 14.1Q128.7 13.7 128.5 13.5Q128.4 13.2 128.1 13.1Q127.8 13.0 127.3 13.0L127.3 13.0L126.3 13.0ZM137.5 19.1L137.5 19.1Q136.6 19.1 135.8 18.7Q135.0 18.2 134.6 17.4Q134.1 16.5 134.1 15.4L134.1 15.4Q134.1 14.2 134.6 13.3Q135.0 12.5 135.8 12.1Q136.6 11.6 137.5 11.6L137.5 11.6Q138.5 11.6 139.3 12.1Q140.0 12.5 140.5 13.3Q140.9 14.2 140.9 15.4L140.9 15.4Q140.9 16.5 140.5 17.4Q140.0 18.2 139.3 18.7Q138.5 19.1 137.5 19.1ZM137.5 17.8L137.5 17.8Q138.1 17.8 138.5 17.5Q138.9 17.2 139.2 16.7Q139.4 16.1 139.4 15.4L139.4 15.4Q139.4 14.6 139.2 14.0Q138.9 13.5 138.5 13.2Q138.1 13.0 137.5 13.0L137.5 13.0Q137.0 13.0 136.5 13.2Q136.1 13.5 135.9 14.0Q135.7 14.6 135.7 15.4L135.7 15.4Q135.7 16.1 135.9 16.7Q136.1 17.2 136.5 17.5Q137.0 17.8 137.5 17.8ZM147.2 19.1L147.2 19.1Q146.0 19.1 145.4 18.5Q144.7 17.9 144.7 16.8L144.7 16.8L144.7 16.4L146.2 16.4L146.2 16.8Q146.2 17.4 146.5 17.6Q146.7 17.9 147.2 17.9L147.2 17.9Q147.6 17.9 147.8 17.6Q148.1 17.4 148.1 16.8L148.1 16.8L148.1 11.7L149.6 11.7L149.6 16.8Q149.6 17.9 148.9 18.5Q148.3 19.1 147.2 19.1ZM158.8 19L153.9 19L153.9 11.7L158.8 11.7L158.8 13.0L155.4 13.0L155.4 14.7L158.5 14.7L158.5 15.9L155.4 15.9L155.4 17.8L158.8 17.8L158.8 19ZM166.1 19.1L166.1 19.1Q165.2 19.1 164.4 18.7Q163.6 18.2 163.2 17.4Q162.8 16.5 162.8 15.4L162.8 15.4Q162.8 14.2 163.2 13.3Q163.7 12.5 164.4 12.1Q165.2 11.6 166.1 11.6L166.1 11.6Q166.8 11.6 167.3 11.8Q167.8 12.0 168.2 12.3Q168.7 12.6 168.9 13.1Q169.2 13.6 169.3 14.2L169.3 14.2L167.8 14.2Q167.7 13.9 167.6 13.7Q167.4 13.4 167.2 13.3Q167.0 13.1 166.8 13.0Q166.5 13.0 166.2 13.0L166.2 13.0Q165.6 13.0 165.2 13.2Q164.8 13.5 164.5 14.1Q164.3 14.6 164.3 15.4L164.3 15.4Q164.3 16.2 164.5 16.7Q164.8 17.2 165.2 17.5Q165.6 17.8 166.2 17.8L166.2 17.8Q166.5 17.8 166.7 17.7Q167.0 17.6 167.2 17.4Q167.4 17.3 167.6 17.0Q167.7 16.8 167.8 16.5L167.8 16.5L169.3 16.5Q169.2 17.0 169.0 17.5Q168.7 17.9 168.3 18.3Q167.9 18.7 167.4 18.9Q166.8 19.1 166.1 19.1ZM175.3 13.0L173.1 13.0L173.1 11.7L179.0 11.7L179.0 13.0L176.8 13.0L176.8 19L175.3 19L175.3 13.0ZM185.7 19.1L185.7 19.1Q184.8 19.1 184.2 18.8Q183.5 18.6 183.2 18.0Q182.8 17.5 182.8 16.7L182.8 16.7L184.2 16.7Q184.3 17.1 184.5 17.4Q184.7 17.6 185.0 17.7Q185.3 17.8 185.7 17.8L185.7 17.8Q186.1 17.8 186.4 17.7Q186.7 17.6 186.8 17.4Q187.0 17.2 187.0 16.9L187.0 16.9Q187.0 16.7 186.9 16.5Q186.7 16.3 186.4 16.2Q186.2 16.1 185.8 16.0L185.8 16.0L185.0 15.8Q184.0 15.6 183.5 15.1Q183.0 14.6 183.0 13.8L183.0 13.8Q183.0 13.2 183.3 12.7Q183.7 12.2 184.3 11.9Q184.9 11.6 185.7 11.6L185.7 11.6Q186.5 11.6 187.1 11.9Q187.7 12.2 188.1 12.7Q188.4 13.2 188.4 13.8L188.4 13.8L187.0 13.8Q186.9 13.4 186.6 13.1Q186.3 12.9 185.7 12.9L185.7 12.9Q185.3 12.9 185.1 13.0Q184.8 13.1 184.7 13.3Q184.5 13.5 184.5 13.7L184.5 13.7Q184.5 14.0 184.7 14.2Q184.8 14.3 185.1 14.5Q185.4 14.6 185.7 14.6L185.7 14.6L186.3 14.8Q186.8 14.9 187.2 15.1Q187.6 15.3 187.9 15.5Q188.2 15.8 188.3 16.1Q188.5 16.5 188.5 16.9L188.5 16.9Q188.5 17.6 188.2 18.1Q187.8 18.6 187.2 18.8Q186.6 19.1 185.7 19.1Z "/></g></svg>