<!-- Generated by readme-aura https://github.com/collectioneur/readme-aura -->
<svg width="860" height="120" viewBox="0 0 860 120" xmlns="http://www.w3.org/2000/svg"><defs><clipPath id="satori_bc-id"><path x="0" y="0" width="860" height="120" d="M16,0 h828 a16,16 0 0 1 16,16 v88 a16,16 0 0 1 -16,16 h-828 a16,16 0 0 1 -16,-16 v-88 a16,16 0 0 1 16,-16"/></clipPath></defs><clipPath id="satori_cp-id"><path x="0" y="0" width="860" height="120" d="M16,0 h828 a16,16 0 0 1 16,16 v88 a16,16 0 0 1 -16,16 h-828 a16,16 0 0 1 -16,-16 v-88 a16,16 0 0 1 16,-16"/></clipPath><mask id="satori_om-id"><rect x="1" y="1" width="858" height="118" fill="#fff"/><path width="860" height="120" fill="none" stroke="#000" stroke-width="2" d="M4.686,4.686 A16,16 0 0 1 16,0 h828 a16,16 0 0 1 16,16 v88 a16,16 0 0 1 -16,16 h-828 a16,16 0 0 1 -16,-16 v-88 A16,16 0 0 1 4.686,4.686"/></mask><path x="0" y="0" width="860" height="120" fill="#0d0b12" d="M16,0 h828 a16,16 0 0 1 16,16 v88 a16,16 0 0 1 -16,16 h-828 a16,16 0 0 1 -16,-16 v-88 a16,16 0 0 1 16,-16"/><path width="860" height="120" clip-path="url(#satori_bc-id)" fill="none" stroke="rgba(236, 72, 153, 0.16)" stroke-width="2" d="M4.686,4.686 A16,16 0 0 1 16,0 h828 a16,16 0 0 1 16,16 v88 a16,16 0 0 1 -16,16 h-828 a16,16 0 0 1 -16,-16 v-88 A16,16 0 0 1 4.686,4.686"/><clipPath id="satori_cp-id-0" clip-path="url(#satori_cp-id)"><rect x="1" y="1" width="860" height="120"/></clipPath><mask id="satori_om-id-0"><rect x="1" y="1" width="860" height="120" fill="#fff" mask="url(#satori_om-id)"/></mask><svg x="1" y="1" width="860" height="120" preserveAspectRatio="none" clip-path="url(#satori_cp-id-0)" mask="url(#satori_om-id-0)"><defs><radialGradient id="nproj2" cx="50%" cy="50%" r="50%"><stop offset="0%" stop-color="rgba(147, 51, 234, 0.12)"></stop><stop offset="100%" stop-color="rgba(147, 51, 234, 0)"></stop></radialGradient></defs><ellipse cx="750" cy="60" rx="120" ry="50" fill="url(#nproj2)"></ellipse></svg><mask id="satori_om-id-0-0"><rect x="1" y="1" width="0" height="120" fill="#fff" mask="url(#satori_om-id)"/></mask><mask id="satori_om-id-0-0-0"><rect x="1" y="1" width="0" height="120" fill="#fff" mask="url(#satori_om-id)"/></mask><mask id="satori_om-id-0-0-0-0"><rect x="1" y="1" width="0" height="120" fill="#fff" mask="url(#satori_om-id)"/></mask><mask id="satori_om-id-0-0-0-1"><rect x="1" y="1" width="0" height="120" fill="#fff" mask="url(#satori_om-id)"/></mask><mask id="satori_om-id-0-1"><rect x="1" y="1" width="0" height="120" fill="#fff" mask="url(#satori_om-id)"/></mask><mask id="satori_om-id-1"><rect x="33" y="28" width="580" height="64" fill="#fff" mask="url(#satori_om-id)"/></mask><mask id="satori_om-id-1-0"><rect x="33" y="28" width="580" height="22" fill="#fff" mask="url(#satori_om-id)"/></mask><g mask="url(#satori_om-id)" clip-path="url(#satori_cp-id)"><path fill="#ffffff" d="M39.7 45L34.2 45L34.2 31.9L39.4 31.9Q40.8 31.9 41.8 32.3Q42.7 32.8 43.2 33.5Q43.7 34.3 43.7 35.3L43.7 35.3Q43.7 36.0 43.4 36.6Q43.1 37.2 42.6 37.6Q42.0 37.9 41.3 38.1L41.3 38.1L41.3 38.2Q42.1 38.2 42.7 38.6Q43.4 39.0 43.8 39.7Q44.2 40.4 44.2 41.4L44.2 41.4Q44.2 42.4 43.7 43.2Q43.2 44.1 42.2 44.5Q41.2 45 39.7 45L39.7 45ZM36.9 39.2L36.9 42.8L39.2 42.8Q40.4 42.8 40.9 42.3Q41.5 41.9 41.5 41.1L41.5 41.1Q41.5 40.6 41.2 40.2Q40.9 39.7 40.4 39.5Q39.9 39.2 39.3 39.2L39.3 39.2L36.9 39.2ZM36.9 34.1L36.9 37.4L39.0 37.4Q39.6 37.4 40.0 37.2Q40.5 37.0 40.7 36.6Q41.0 36.2 41.0 35.7L41.0 35.7Q41.0 35.0 40.5 34.5Q40.0 34.1 39.0 34.1L39.0 34.1L36.9 34.1ZM46.0 31.9L48.7 31.9L48.7 45L46.0 45L46.0 31.9ZM54.3 45.1L54.3 45.1Q53.3 45.1 52.5 44.7Q51.7 44.2 51.3 43.4Q50.9 42.6 50.9 41.4L50.9 41.4L50.9 35.2L53.5 35.2L53.5 41.0Q53.5 41.9 54.0 42.4Q54.5 42.9 55.3 42.9L55.3 42.9Q55.9 42.9 56.3 42.7Q56.7 42.4 57.0 42.0Q57.2 41.5 57.2 40.9L57.2 40.9L57.2 35.2L59.9 35.2L59.9 45L57.4 45L57.4 43.0Q57.0 43.9 56.3 44.5L56.3 44.5Q55.5 45.1 54.3 45.1ZM64.8 39.3L64.8 39.3L64.8 45L62.1 45L62.1 35.2L64.6 35.2L64.6 37.2Q65.0 36.3 65.7 35.7L65.7 35.7Q66.5 35.1 67.7 35.1L67.7 35.1Q68.7 35.1 69.5 35.5Q70.2 35.9 70.7 36.8Q71.1 37.6 71.1 38.8L71.1 38.8L71.1 45L68.4 45L68.4 39.2Q68.4 38.3 68.0 37.8Q67.5 37.3 66.7 37.3L66.7 37.3Q66.1 37.3 65.7 37.5Q65.2 37.7 65.0 38.2Q64.8 38.7 64.8 39.3ZM76.4 35.2L78.2 35.2L78.2 37.2L76.4 37.2L76.4 42.1Q76.4 42.6 76.6 42.8Q76.8 43.0 77.3 43.0L77.3 43.0Q77.4 43.0 77.7 43.0Q78.0 43.0 78.1 42.9L78.1 42.9L78.5 44.9Q78.0 45.0 77.6 45.1Q77.2 45.1 76.8 45.1L76.8 45.1Q75.3 45.1 74.5 44.4Q73.7 43.7 73.7 42.4L73.7 42.4L73.7 37.2L72.4 37.2L72.4 35.2L73.7 35.2L73.7 32.8L76.4 32.8L76.4 35.2ZM79.9 31.9L82.6 31.9L82.6 45L79.9 45L79.9 31.9ZM84.7 48.5L84.7 48.5L85.3 46.5L85.7 46.6Q86.2 46.7 86.6 46.7Q87.0 46.6 87.3 46.3Q87.5 46.0 87.6 45.6L87.6 45.6L87.6 45.0L83.9 35.2L86.7 35.2L88.4 40.3Q88.7 41.2 88.9 42.2L88.9 42.2Q89.0 42.5 89.0 42.9L89.0 42.9Q89.1 42.5 89.2 42.2L89.2 42.2Q89.4 41.2 89.7 40.3L89.7 40.3L91.5 35.2L94.2 35.2L90.0 46.2Q89.8 47.0 89.3 47.5Q88.8 48.1 88.1 48.4Q87.4 48.7 86.4 48.7L86.4 48.7Q85.9 48.7 85.5 48.7Q85.0 48.6 84.7 48.5Z "/></g><mask id="satori_om-id-1-1"><rect x="33" y="56" width="580" height="36" fill="#fff" mask="url(#satori_om-id)"/></mask><g mask="url(#satori_om-id)" clip-path="url(#satori_cp-id)"><path fill="rgba(255, 255, 255, 0.65)" d="M34.6 70L33.3 70L36.8 60.5L38.2 60.5L41.6 70L40.4 70L39.4 67.4L35.5 67.4L34.6 70ZM35.9 66.3L39.0 66.3L38.4 64.4Q38.2 63.9 37.9 63.1L37.9 63.1Q37.7 62.4 37.5 61.5L37.5 61.5Q37.2 62.5 37.0 63.1L37.0 63.1Q36.7 63.9 36.6 64.4L36.6 64.4L35.9 66.3ZM44.1 65.7L44.1 65.7L44.1 70L43.0 70L43.0 62.9L44.1 62.9L44.1 64.2Q44.4 63.6 44.8 63.2L44.8 63.2Q45.4 62.8 46.2 62.8L46.2 62.8Q47.0 62.8 47.5 63.1Q48.0 63.4 48.3 64.0Q48.6 64.6 48.6 65.5L48.6 65.5L48.6 70L47.5 70L47.5 65.6Q47.5 64.8 47.1 64.3Q46.6 63.8 45.9 63.8L45.9 63.8Q45.4 63.8 45.0 64.1Q44.6 64.3 44.3 64.7Q44.1 65.1 44.1 65.7Z M54.6 70L53.3 70L56.8 60.5L58.2 60.5L61.6 70L60.4 70L59.4 67.4L55.5 67.4L54.6 70ZM55.9 66.3L59.0 66.3L58.4 64.4Q58.2 63.9 57.9 63.1L57.9 63.1Q57.7 62.4 57.5 61.5L57.5 61.5Q57.2 62.5 57.0 63.1L57.0 63.1Q56.7 63.9 56.6 64.4L56.6 64.4L55.9 66.3ZM63.1 60.5L64.3 60.5L64.3 70L63.1 70L63.1 60.5ZM66.4 65.4L70.5 65.4L70.5 66.5L66.4 66.5L66.4 65.4ZM73.6 72.7L72.4 72.7L72.4 62.9L73.5 62.9L73.5 64.0L73.7 64.0Q73.8 63.8 74.0 63.6Q74.2 63.3 74.6 63.0Q75.0 62.8 75.7 62.8L75.7 62.8Q76.6 62.8 77.3 63.3Q78.0 63.7 78.4 64.5Q78.7 65.3 78.7 66.5L78.7 66.5Q78.7 67.6 78.4 68.4Q78.0 69.3 77.3 69.7Q76.6 70.2 75.7 70.2L75.7 70.2Q75.1 70.2 74.7 69.9Q74.2 69.7 74.0 69.4Q73.8 69.1 73.7 68.9L73.7 68.9L73.6 68.9L73.6 72.7ZM75.6 69.1L75.6 69.1Q76.2 69.1 76.7 68.8Q77.1 68.4 77.4 67.8Q77.6 67.2 77.6 66.5L77.6 66.5Q77.6 65.7 77.4 65.1Q77.1 64.5 76.7 64.2Q76.2 63.8 75.6 63.8L75.6 63.8Q74.9 63.8 74.5 64.2Q74.0 64.5 73.8 65.1Q73.6 65.7 73.6 66.5L73.6 66.5Q73.6 67.2 73.8 67.8Q74.0 68.5 74.5 68.8Q74.9 69.1 75.6 69.1ZM83.3 70.2L83.3 70.2Q82.3 70.2 81.6 69.7Q80.9 69.2 80.5 68.4Q80.1 67.6 80.1 66.5L80.1 66.5Q80.1 65.4 80.5 64.6Q80.9 63.7 81.6 63.3Q82.3 62.8 83.3 62.8L83.3 62.8Q84.3 62.8 85.0 63.3Q85.7 63.7 86.1 64.6Q86.5 65.4 86.5 66.5L86.5 66.5Q86.5 67.6 86.1 68.4Q85.7 69.2 85.0 69.7Q84.3 70.2 83.3 70.2ZM83.3 69.1L83.3 69.1Q84.0 69.1 84.5 68.8Q84.9 68.4 85.2 67.8Q85.4 67.2 85.4 66.5L85.4 66.5Q85.4 65.8 85.2 65.2Q84.9 64.6 84.5 64.2Q84.0 63.8 83.3 63.8L83.3 63.8Q82.6 63.8 82.1 64.2Q81.7 64.6 81.4 65.2Q81.2 65.8 81.2 66.5L81.2 66.5Q81.2 67.2 81.4 67.8Q81.7 68.4 82.1 68.8Q82.6 69.1 83.3 69.1ZM90.9 70L89.8 70L87.6 62.9L88.9 62.9L89.7 66.0Q89.9 66.6 90.1 67.4L90.1 67.4Q90.2 68.0 90.4 68.8L90.4 68.8Q90.5 68.1 90.7 67.5L90.7 67.5Q90.9 66.7 91.1 66.0L91.1 66.0L91.9 62.9L93.1 62.9L94.0 66.0Q94.2 66.7 94.3 67.5L94.3 67.5Q94.5 68.1 94.6 68.8L94.6 68.8Q94.8 68.1 94.9 67.5L94.9 67.5Q95.1 66.7 95.3 66.0L95.3 66.0L96.2 62.9L97.4 62.9L95.2 70L94.1 70L93.2 66.8Q93.0 66.3 92.9 65.8Q92.8 65.3 92.6 64.8L92.6 64.8Q92.6 64.5 92.5 64.2L92.5 64.2Q92.5 64.5 92.4 64.7L92.4 64.7Q92.3 65.3 92.1 65.8Q92.0 66.3 91.8 66.8L91.8 66.8L90.9 70ZM101.8 70.2L101.8 70.2Q100.8 70.2 100.0 69.7Q99.3 69.2 98.9 68.4Q98.5 67.6 98.5 66.5Q98.5 65.4 98.9 64.6Q99.3 63.8 100.0 63.3Q100.7 62.8 101.7 62.8L101.7 62.8Q102.3 62.8 102.8 63.0Q103.3 63.2 103.8 63.6Q104.2 64.0 104.5 64.7Q104.8 65.4 104.8 66.4L104.8 66.4L104.8 66.8L99.6 66.8Q99.7 67.5 99.9 68.0L99.9 68.0Q100.2 68.6 100.7 68.9Q101.2 69.1 101.8 69.1L101.8 69.1Q102.2 69.1 102.6 69.0Q102.9 68.9 103.2 68.7Q103.4 68.4 103.6 68.0L103.6 68.0L104.7 68.3Q104.5 68.9 104.1 69.3Q103.7 69.7 103.1 69.9Q102.5 70.2 101.8 70.2ZM99.7 65.9L99.7 65.9L103.6 65.9Q103.6 65.4 103.4 65.0L103.4 65.0Q103.2 64.4 102.8 64.1Q102.3 63.8 101.7 63.8Q101.0 63.8 100.6 64.1Q100.1 64.5 99.9 65.0L99.9 65.0Q99.7 65.4 99.7 65.9ZM107.6 70L106.4 70L106.4 62.9L107.5 62.9L107.5 64.0L107.6 64.0Q107.8 63.5 108.3 63.1Q108.8 62.8 109.4 62.8L109.4 62.8Q109.6 62.8 109.7 62.8Q109.9 62.8 110.0 62.8L110.0 62.8L110.0 64.0Q110.0 64.0 109.8 63.9Q109.6 63.9 109.3 63.9L109.3 63.9Q108.8 63.9 108.4 64.1Q108.0 64.3 107.8 64.7Q107.6 65.1 107.6 65.6L107.6 65.6L107.6 70ZM114.3 70.2L114.3 70.2Q113.3 70.2 112.5 69.7Q111.8 69.2 111.4 68.4Q111.0 67.6 111.0 66.5Q111.0 65.4 111.4 64.6Q111.8 63.8 112.5 63.3Q113.2 62.8 114.2 62.8L114.2 62.8Q114.7 62.8 115.3 63.0Q115.8 63.2 116.3 63.6Q116.7 64.0 117.0 64.7Q117.3 65.4 117.3 66.4L117.3 66.4L117.3 66.8L112.1 66.8Q112.1 67.5 112.4 68.0L112.4 68.0Q112.7 68.6 113.2 68.9Q113.7 69.1 114.3 69.1L114.3 69.1Q114.7 69.1 115.1 69.0Q115.4 68.9 115.7 68.7Q115.9 68.4 116.0 68.0L116.0 68.0L117.1 68.3Q117.0 68.9 116.6 69.3Q116.2 69.7 115.6 69.9Q115.0 70.2 114.3 70.2ZM112.1 65.9L112.1 65.9L116.1 65.9Q116.0 65.4 115.9 65.0L115.9 65.0Q115.7 64.4 115.2 64.1Q114.8 63.8 114.2 63.8Q113.5 63.8 113.1 64.1Q112.6 64.5 112.4 65.0L112.4 65.0Q112.2 65.4 112.1 65.9ZM121.5 70.2L121.5 70.2Q120.7 70.2 120.0 69.7Q119.3 69.3 118.9 68.4Q118.5 67.6 118.5 66.5L118.5 66.5Q118.5 65.3 118.9 64.5Q119.3 63.7 120.0 63.3Q120.7 62.8 121.6 62.8L121.6 62.8Q122.2 62.8 122.7 63.0Q123.1 63.3 123.3 63.6Q123.5 63.8 123.6 64.0L123.6 64.0L123.7 64.0L123.7 60.5L124.8 60.5L124.8 70L123.7 70L123.7 68.9L123.6 68.9Q123.5 69.1 123.3 69.4Q123.0 69.7 122.6 69.9Q122.2 70.2 121.5 70.2ZM121.7 69.1L121.7 69.1Q122.4 69.1 122.8 68.8Q123.3 68.5 123.5 67.8Q123.7 67.2 123.7 66.5L123.7 66.5Q123.7 65.7 123.5 65.1Q123.3 64.5 122.8 64.2Q122.4 63.8 121.7 63.8L121.7 63.8Q121.0 63.8 120.6 64.2Q120.2 64.5 119.9 65.1Q119.7 65.7 119.7 66.5L119.7 66.5Q119.7 67.2 119.9 67.8Q120.2 68.4 120.6 68.8Q121.1 69.1 121.7 69.1Z M133.9 70.2L133.9 70.2Q132.9 70.2 132.2 69.7Q131.5 69.2 131.1 68.4Q130.7 67.6 130.7 66.5L130.7 66.5Q130.7 65.4 131.1 64.6Q131.5 63.7 132.2 63.3Q132.9 62.8 133.9 62.8L133.9 62.8Q134.4 62.8 134.9 62.9Q135.3 63.1 135.7 63.3Q136.1 63.6 136.3 63.9Q136.6 64.3 136.8 64.8L136.8 64.8L135.7 65.1Q135.6 64.8 135.4 64.6Q135.3 64.4 135.0 64.2Q134.8 64.0 134.5 63.9Q134.2 63.8 133.9 63.8L133.9 63.8Q133.2 63.8 132.7 64.2Q132.3 64.6 132.0 65.2Q131.8 65.8 131.8 66.5L131.8 66.5Q131.8 67.2 132.0 67.8Q132.3 68.4 132.7 68.8Q133.2 69.1 133.9 69.1L133.9 69.1Q134.2 69.1 134.5 69.0Q134.8 68.9 135.1 68.8Q135.3 68.6 135.5 68.3Q135.6 68.1 135.7 67.8L135.7 67.8L136.8 68.1Q136.7 68.6 136.4 69.0Q136.1 69.4 135.7 69.6Q135.3 69.9 134.9 70.0Q134.4 70.2 133.9 70.2ZM141.3 70.2L141.3 70.2Q140.4 70.2 139.6 69.7Q138.9 69.2 138.5 68.4Q138.1 67.6 138.1 66.5L138.1 66.5Q138.1 65.4 138.5 64.6Q138.9 63.7 139.6 63.3Q140.4 62.8 141.3 62.8L141.3 62.8Q142.3 62.8 143.0 63.3Q143.7 63.7 144.2 64.6Q144.6 65.4 144.6 66.5L144.6 66.5Q144.6 67.6 144.2 68.4Q143.7 69.2 143.0 69.7Q142.3 70.2 141.3 70.2ZM141.3 69.1L141.3 69.1Q142.0 69.1 142.5 68.8Q143.0 68.4 143.2 67.8Q143.4 67.2 143.4 66.5L143.4 66.5Q143.4 65.8 143.2 65.2Q143.0 64.6 142.5 64.2Q142.0 63.8 141.3 63.8L141.3 63.8Q140.6 63.8 140.1 64.2Q139.7 64.6 139.5 65.2Q139.2 65.8 139.2 66.5L139.2 66.5Q139.2 67.2 139.5 67.8Q139.7 68.4 140.1 68.8Q140.6 69.1 141.3 69.1ZM147.4 70L146.2 70L146.2 62.9L147.3 62.9L147.3 64.2Q147.5 63.8 147.7 63.5L147.7 63.5Q148.0 63.2 148.4 63.0Q148.9 62.8 149.3 62.8L149.3 62.8Q150.1 62.8 150.6 63.3L150.6 63.3Q151.0 63.6 151.1 64.2L151.1 64.2Q151.3 63.9 151.5 63.6L151.5 63.6Q151.8 63.2 152.3 63.0Q152.8 62.8 153.4 62.8L153.4 62.8Q154.0 62.8 154.5 63.0Q155.0 63.3 155.3 63.8Q155.6 64.4 155.6 65.2L155.6 65.2L155.6 70L154.5 70L154.5 65.2Q154.5 64.5 154.0 64.1Q153.6 63.8 153.0 63.8L153.0 63.8Q152.6 63.8 152.2 64.0Q151.9 64.2 151.7 64.6Q151.5 64.9 151.5 65.4L151.5 65.4L151.5 70L150.3 70L150.3 65.1Q150.3 64.5 150.0 64.2Q149.6 63.8 149.0 63.8L149.0 63.8Q148.5 63.8 148.2 64.0Q147.8 64.2 147.6 64.6Q147.4 65.0 147.4 65.5L147.4 65.5L147.4 70ZM158.8 70L157.6 70L157.6 62.9L158.7 62.9L158.7 64.2Q158.9 63.8 159.1 63.5L159.1 63.5Q159.4 63.2 159.8 63.0Q160.3 62.8 160.7 62.8L160.7 62.8Q161.5 62.8 162.0 63.3L162.0 63.3Q162.4 63.6 162.5 64.2L162.5 64.2Q162.7 63.9 162.9 63.6L162.9 63.6Q163.2 63.2 163.7 63.0Q164.2 62.8 164.8 62.8L164.8 62.8Q165.4 62.8 165.9 63.0Q166.4 63.3 166.7 63.8Q167.0 64.4 167.0 65.2L167.0 65.2L167.0 70L165.9 70L165.9 65.2Q165.9 64.5 165.4 64.1Q165.0 63.8 164.4 63.8L164.4 63.8Q163.9 63.8 163.6 64.0Q163.2 64.2 163.1 64.6Q162.9 64.9 162.9 65.4L162.9 65.4L162.9 70L161.7 70L161.7 65.1Q161.7 64.5 161.3 64.2Q160.9 63.8 160.3 63.8L160.3 63.8Q159.9 63.8 159.6 64.0Q159.2 64.2 159.0 64.6Q158.8 65.0 158.8 65.5L158.8 65.5L158.8 70ZM171.4 70.1L171.4 70.1Q170.7 70.1 170.1 69.8Q169.6 69.5 169.3 68.9Q169 68.3 169 67.4L169 67.4L169 62.9L170.1 62.9L170.1 67.3Q170.1 68.1 170.6 68.6Q171.0 69.1 171.7 69.1L171.7 69.1Q172.3 69.1 172.7 68.8Q173.1 68.6 173.3 68.2Q173.5 67.8 173.5 67.2L173.5 67.2L173.5 62.9L174.7 62.9L174.7 70L173.6 70L173.6 68.7Q173.3 69.4 172.8 69.7L172.8 69.7Q172.2 70.1 171.4 70.1ZM177.8 65.7L177.8 65.7L177.8 70L176.7 70L176.7 62.9L177.8 62.9L177.8 64.2Q178.1 63.6 178.6 63.2L178.6 63.2Q179.2 62.8 180.0 62.8L180.0 62.8Q180.7 62.8 181.2 63.1Q181.8 63.4 182.1 64.0Q182.4 64.6 182.4 65.5L182.4 65.5L182.4 70L181.2 70L181.2 65.6Q181.2 64.8 180.8 64.3Q180.4 63.8 179.6 63.8L179.6 63.8Q179.1 63.8 178.7 64.1Q178.3 64.3 178.1 64.7Q177.8 65.1 177.8 65.7ZM185.5 70L184.4 70L184.4 62.9L185.5 62.9L185.5 70ZM184.9 61.7L184.9 61.7Q184.6 61.7 184.4 61.5Q184.2 61.3 184.2 61.0L184.2 61.0Q184.2 60.7 184.4 60.4Q184.6 60.2 184.9 60.2L184.9 60.2Q185.3 60.2 185.5 60.4Q185.7 60.7 185.7 61.0L185.7 61.0Q185.7 61.3 185.5 61.5Q185.3 61.7 184.9 61.7ZM190.4 70.2L190.4 70.2Q189.4 70.2 188.7 69.7Q188.0 69.2 187.6 68.4Q187.2 67.6 187.2 66.5L187.2 66.5Q187.2 65.4 187.6 64.6Q188.0 63.7 188.7 63.3Q189.4 62.8 190.4 62.8L190.4 62.8Q190.9 62.8 191.4 62.9Q191.8 63.1 192.2 63.3Q192.6 63.6 192.9 63.9Q193.1 64.3 193.3 64.8L193.3 64.8L192.2 65.1Q192.1 64.8 191.9 64.6Q191.8 64.4 191.6 64.2Q191.3 64.0 191.0 63.9Q190.8 63.8 190.4 63.8L190.4 63.8Q189.7 63.8 189.2 64.2Q188.8 64.6 188.6 65.2Q188.3 65.8 188.3 66.5L188.3 66.5Q188.3 67.2 188.6 67.8Q188.8 68.4 189.2 68.8Q189.7 69.1 190.4 69.1L190.4 69.1Q190.8 69.1 191.1 69.0Q191.4 68.9 191.6 68.8Q191.8 68.6 192.0 68.3Q192.1 68.1 192.2 67.8L192.2 67.8L193.3 68.1Q193.2 68.6 192.9 69.0Q192.6 69.4 192.2 69.6Q191.9 69.9 191.4 70.0Q190.9 70.2 190.4 70.2ZM196.9 70.2L196.9 70.2Q196.3 70.2 195.7 69.9Q195.2 69.7 194.8 69.2Q194.5 68.7 194.5 68.0L194.5 68.0Q194.5 67.4 194.8 67.0Q195.0 66.6 195.4 66.4Q195.8 66.2 196.3 66.1Q196.8 66.0 197.3 65.9L197.3 65.9Q197.9 65.8 198.3 65.8Q198.7 65.7 198.9 65.6Q199.1 65.5 199.1 65.2L199.1 65.2L199.1 65.2Q199.1 64.8 198.9 64.5Q198.8 64.1 198.4 64.0Q198.1 63.8 197.6 63.8L197.6 63.8Q197.1 63.8 196.7 64.0Q196.4 64.1 196.2 64.4Q195.9 64.6 195.8 64.9L195.8 64.9L194.7 64.5Q195.0 63.8 195.5 63.5Q195.9 63.1 196.5 63.0Q197.0 62.8 197.6 62.8L197.6 62.8Q197.9 62.8 198.4 62.9Q198.8 63.0 199.3 63.2Q199.7 63.5 200.0 64.0Q200.2 64.5 200.2 65.3L200.2 65.3L200.2 70L199.1 70L199.1 69.0L199.0 69.0Q198.9 69.3 198.6 69.5Q198.4 69.8 198.0 70.0Q197.5 70.2 196.9 70.2ZM197.1 69.2L197.1 69.2Q197.8 69.2 198.2 68.9Q198.6 68.7 198.9 68.3Q199.1 67.9 199.1 67.4L199.1 67.4L199.1 66.5Q199.0 66.5 198.8 66.6Q198.6 66.7 198.3 66.7Q198.0 66.8 197.7 66.8Q197.4 66.8 197.2 66.9L197.2 66.9Q196.8 66.9 196.5 67.0Q196.1 67.2 195.9 67.4Q195.7 67.6 195.7 68.0L195.7 68.0Q195.7 68.4 195.9 68.7Q196.0 68.9 196.4 69.0Q196.7 69.2 197.1 69.2ZM203.6 62.9L205.0 62.9L205.0 63.9L203.6 63.9L203.6 68.2Q203.6 68.6 203.8 68.9Q204.0 69.1 204.4 69.1L204.4 69.1Q204.5 69.1 204.7 69.0Q204.9 69.0 205.0 69.0L205.0 69.0L205.2 70.0Q205.1 70.0 204.8 70.1Q204.6 70.1 204.4 70.1L204.4 70.1Q203.5 70.1 202.9 69.6Q202.4 69.1 202.4 68.2L202.4 68.2L202.4 63.9L201.4 63.9L201.4 62.9L202.4 62.9L202.4 61.2L203.6 61.2L203.6 62.9ZM207.6 70L206.5 70L206.5 62.9L207.6 62.9L207.6 70ZM207.1 61.7L207.1 61.7Q206.7 61.7 206.5 61.5Q206.3 61.3 206.3 61.0L206.3 61.0Q206.3 60.7 206.5 60.4Q206.7 60.2 207.1 60.2L207.1 60.2Q207.4 60.2 207.6 60.4Q207.9 60.7 207.9 61.0L207.9 61.0Q207.9 61.3 207.6 61.5Q207.4 61.7 207.1 61.7ZM212.5 70.2L212.5 70.2Q211.6 70.2 210.8 69.7Q210.1 69.2 209.7 68.4Q209.3 67.6 209.3 66.5L209.3 66.5Q209.3 65.4 209.7 64.6Q210.1 63.7 210.8 63.3Q211.6 62.8 212.5 62.8L212.5 62.8Q213.5 62.8 214.2 63.3Q215.0 63.7 215.4 64.6Q215.8 65.4 215.8 66.5L215.8 66.5Q215.8 67.6 215.4 68.4Q215.0 69.2 214.2 69.7Q213.5 70.2 212.5 70.2ZM212.5 69.1L212.5 69.1Q213.2 69.1 213.7 68.8Q214.2 68.4 214.4 67.8Q214.6 67.2 214.6 66.5L214.6 66.5Q214.6 65.8 214.4 65.2Q214.2 64.6 213.7 64.2Q213.2 63.8 212.5 63.8L212.5 63.8Q211.8 63.8 211.4 64.2Q210.9 64.6 210.7 65.2Q210.5 65.8 210.5 66.5L210.5 66.5Q210.5 67.2 210.7 67.8Q210.9 68.4 211.4 68.8Q211.8 69.1 212.5 69.1ZM218.6 65.7L218.6 65.7L218.6 70L217.4 70L217.4 62.9L218.5 62.9L218.5 64.2Q218.8 63.6 219.3 63.2L219.3 63.2Q219.9 62.8 220.7 62.8L220.7 62.8Q221.4 62.8 222.0 63.1Q222.5 63.4 222.8 64.0Q223.1 64.6 223.1 65.5L223.1 65.5L223.1 70L222.0 70L222.0 65.6Q222.0 64.8 221.5 64.3Q221.1 63.8 220.4 63.8L220.4 63.8Q219.9 63.8 219.5 64.1Q219.1 64.3 218.8 64.7Q218.6 65.1 218.6 65.7Z M230.1 72.7L229.0 72.7L229.0 62.9L230.1 62.9L230.1 64.0L230.2 64.0Q230.4 63.8 230.6 63.6Q230.8 63.3 231.2 63.0Q231.6 62.8 232.3 62.8L232.3 62.8Q233.2 62.8 233.9 63.3Q234.5 63.7 234.9 64.5Q235.3 65.3 235.3 66.5L235.3 66.5Q235.3 67.6 234.9 68.4Q234.5 69.3 233.9 69.7Q233.2 70.2 232.3 70.2L232.3 70.2Q231.6 70.2 231.2 69.9Q230.8 69.7 230.6 69.4Q230.4 69.1 230.2 68.9L230.2 68.9L230.1 68.9L230.1 72.7ZM232.1 69.1L232.1 69.1Q232.8 69.1 233.2 68.8Q233.7 68.4 233.9 67.8Q234.1 67.2 234.1 66.5L234.1 66.5Q234.1 65.7 233.9 65.1Q233.7 64.5 233.2 64.2Q232.8 63.8 232.1 63.8L232.1 63.8Q231.5 63.8 231.0 64.2Q230.6 64.5 230.4 65.1Q230.1 65.7 230.1 66.5L230.1 66.5Q230.1 67.2 230.4 67.8Q230.6 68.5 231.0 68.8Q231.5 69.1 232.1 69.1ZM237.0 60.5L238.1 60.5L238.1 70L237.0 70L237.0 60.5ZM242.1 70.2L242.1 70.2Q241.4 70.2 240.9 69.9Q240.3 69.7 240.0 69.2Q239.7 68.7 239.7 68.0L239.7 68.0Q239.7 67.4 239.9 67.0Q240.2 66.6 240.6 66.4Q241.0 66.2 241.5 66.1Q241.9 66.0 242.4 65.9L242.4 65.9Q243.1 65.8 243.5 65.8Q243.9 65.7 244.1 65.6Q244.3 65.5 244.3 65.2L244.3 65.2L244.3 65.2Q244.3 64.8 244.1 64.5Q243.9 64.1 243.6 64.0Q243.3 63.8 242.8 63.8L242.8 63.8Q242.3 63.8 241.9 64.0Q241.5 64.1 241.3 64.4Q241.1 64.6 241.0 64.9L241.0 64.9L239.9 64.5Q240.2 63.8 240.6 63.5Q241.1 63.1 241.6 63.0Q242.2 62.8 242.7 62.8L242.7 62.8Q243.1 62.8 243.6 62.9Q244.0 63.0 244.4 63.2Q244.9 63.5 245.1 64.0Q245.4 64.5 245.4 65.3L245.4 65.3L245.4 70L244.3 70L244.3 69.0L244.2 69.0Q244.1 69.3 243.8 69.5Q243.6 69.8 243.1 70.0Q242.7 70.2 242.1 70.2ZM242.3 69.2L242.3 69.2Q242.9 69.2 243.4 68.9Q243.8 68.7 244.0 68.3Q244.3 67.9 244.3 67.4L244.3 67.4L244.3 66.5Q244.2 66.5 244.0 66.6Q243.7 66.7 243.4 66.7Q243.1 66.8 242.8 66.8Q242.6 66.8 242.4 66.9L242.4 66.9Q242.0 66.9 241.6 67.0Q241.3 67.2 241.0 67.4Q240.8 67.6 240.8 68.0L240.8 68.0Q240.8 68.4 241.0 68.7Q241.2 68.9 241.5 69.0Q241.9 69.2 242.3 69.2ZM248.7 62.9L250.2 62.9L250.2 63.9L248.7 63.9L248.7 68.2Q248.7 68.6 248.9 68.9Q249.1 69.1 249.6 69.1L249.6 69.1Q249.7 69.1 249.9 69.0Q250.0 69.0 250.2 69.0L250.2 69.0L250.4 70.0Q250.2 70.0 250.0 70.1Q249.8 70.1 249.6 70.1L249.6 70.1Q248.6 70.1 248.1 69.6Q247.6 69.1 247.6 68.2L247.6 68.2L247.6 63.9L246.5 63.9L246.5 62.9L247.6 62.9L247.6 61.2L248.7 61.2L248.7 62.9ZM253.3 62.9L255.0 62.9L255.0 63.9L253.3 63.9L253.3 70L252.2 70L252.2 63.9L250.8 63.9L250.8 62.9L252.2 62.9L252.2 62.0Q252.2 61.3 252.5 60.9Q252.8 60.5 253.2 60.3Q253.7 60.1 254.2 60.1L254.2 60.1Q254.6 60.1 254.9 60.2Q255.1 60.2 255.3 60.3L255.3 60.3L255.0 61.3Q254.9 61.2 254.7 61.2Q254.6 61.2 254.3 61.2L254.3 61.2Q253.8 61.2 253.6 61.4Q253.3 61.7 253.3 62.2L253.3 62.2L253.3 62.9ZM259.4 70.2L259.4 70.2Q258.4 70.2 257.7 69.7Q256.9 69.2 256.5 68.4Q256.1 67.6 256.1 66.5L256.1 66.5Q256.1 65.4 256.5 64.6Q256.9 63.7 257.7 63.3Q258.4 62.8 259.4 62.8L259.4 62.8Q260.3 62.8 261.1 63.3Q261.8 63.7 262.2 64.6Q262.6 65.4 262.6 66.5L262.6 66.5Q262.6 67.6 262.2 68.4Q261.8 69.2 261.1 69.7Q260.3 70.2 259.4 70.2ZM259.4 69.1L259.4 69.1Q260.1 69.1 260.5 68.8Q261.0 68.4 261.2 67.8Q261.5 67.2 261.5 66.5L261.5 66.5Q261.5 65.8 261.2 65.2Q261.0 64.6 260.5 64.2Q260.1 63.8 259.4 63.8L259.4 63.8Q258.7 63.8 258.2 64.2Q257.7 64.6 257.5 65.2Q257.3 65.8 257.3 66.5L257.3 66.5Q257.3 67.2 257.5 67.8Q257.7 68.4 258.2 68.8Q258.7 69.1 259.4 69.1ZM265.4 70L264.3 70L264.3 62.9L265.4 62.9L265.4 64.0L265.5 64.0Q265.6 63.5 266.2 63.1Q266.7 62.8 267.3 62.8L267.3 62.8Q267.4 62.8 267.6 62.8Q267.8 62.8 267.9 62.8L267.9 62.8L267.9 64.0Q267.8 64.0 267.6 63.9Q267.4 63.9 267.2 63.9L267.2 63.9Q266.7 63.9 266.3 64.1Q265.9 64.3 265.6 64.7Q265.4 65.1 265.4 65.6L265.4 65.6L265.4 70ZM270.3 70L269.2 70L269.2 62.9L270.3 62.9L270.3 64.2Q270.4 63.8 270.7 63.5L270.7 63.5Q271.0 63.2 271.4 63.0Q271.8 62.8 272.3 62.8L272.3 62.8Q273.0 62.8 273.5 63.3L273.5 63.3Q273.9 63.6 274.1 64.2L274.1 64.2Q274.2 63.9 274.5 63.6L274.5 63.6Q274.8 63.2 275.3 63.0Q275.7 62.8 276.3 62.8L276.3 62.8Q276.9 62.8 277.4 63.0Q277.9 63.3 278.2 63.8Q278.5 64.4 278.5 65.2L278.5 65.2L278.5 70L277.4 70L277.4 65.2Q277.4 64.5 277.0 64.1Q276.5 63.8 276.0 63.8L276.0 63.8Q275.5 63.8 275.1 64.0Q274.8 64.2 274.6 64.6Q274.4 64.9 274.4 65.4L274.4 65.4L274.4 70L273.3 70L273.3 65.1Q273.3 64.5 272.9 64.2Q272.5 63.8 271.9 63.8L271.9 63.8Q271.5 63.8 271.1 64.0Q270.8 64.2 270.5 64.6Q270.3 65.0 270.3 65.5L270.3 65.5L270.3 70Z M287.3 70.2L287.3 70.2Q286.6 70.2 286.2 69.9Q285.8 69.7 285.6 69.4Q285.4 69.1 285.2 68.9L285.2 68.9L285.1 68.9L285.1 70L284.0 70L284.0 60.5L285.1 60.5L285.1 64.0L285.2 64.0Q285.4 63.8 285.6 63.6Q285.8 63.3 286.2 63.0Q286.6 62.8 287.3 62.8L287.3 62.8Q288.2 62.8 288.9 63.3Q289.5 63.7 289.9 64.5Q290.3 65.3 290.3 66.5L290.3 66.5Q290.3 67.6 289.9 68.4Q289.5 69.3 288.9 69.7Q288.2 70.2 287.3 70.2ZM287.1 69.1L287.1 69.1Q287.8 69.1 288.2 68.8Q288.7 68.4 288.9 67.8Q289.1 67.2 289.1 66.5L289.1 66.5Q289.1 65.7 288.9 65.1Q288.7 64.5 288.2 64.2Q287.8 63.8 287.1 63.8L287.1 63.8Q286.5 63.8 286.0 64.2Q285.6 64.5 285.4 65.1Q285.1 65.7 285.1 66.5L285.1 66.5Q285.1 67.2 285.4 67.8Q285.6 68.5 286.0 68.8Q286.5 69.1 287.1 69.1ZM294.4 70.1L294.4 70.1Q293.7 70.1 293.1 69.8Q292.6 69.5 292.3 68.9Q292.0 68.3 292.0 67.4L292.0 67.4L292.0 62.9L293.1 62.9L293.1 67.3Q293.1 68.1 293.5 68.6Q294.0 69.1 294.7 69.1L294.7 69.1Q295.2 69.1 295.6 68.8Q296.0 68.6 296.3 68.2Q296.5 67.8 296.5 67.2L296.5 67.2L296.5 62.9L297.6 62.9L297.6 70L296.5 70L296.5 68.7Q296.2 69.4 295.8 69.7L295.8 69.7Q295.1 70.1 294.4 70.1ZM300.8 70L299.6 70L299.6 62.9L300.8 62.9L300.8 70ZM300.2 61.7L300.2 61.7Q299.9 61.7 299.7 61.5Q299.4 61.3 299.4 61.0L299.4 61.0Q299.4 60.7 299.7 60.4Q299.9 60.2 300.2 60.2L300.2 60.2Q300.6 60.2 300.8 60.4Q301.0 60.7 301.0 61.0L301.0 61.0Q301.0 61.3 300.8 61.5Q300.6 61.7 300.2 61.7ZM302.8 60.5L303.9 60.5L303.9 70L302.8 70L302.8 60.5ZM307.3 62.9L308.7 62.9L308.7 63.9L307.3 63.9L307.3 68.2Q307.3 68.6 307.5 68.9Q307.7 69.1 308.1 69.1L308.1 69.1Q308.2 69.1 308.4 69.0Q308.6 69.0 308.7 69.0L308.7 69.0L308.9 70.0Q308.8 70.0 308.5 70.1Q308.3 70.1 308.1 70.1L308.1 70.1Q307.2 70.1 306.7 69.6Q306.1 69.1 306.1 68.2L306.1 68.2L306.1 63.9L305.1 63.9L305.1 62.9L306.1 62.9L306.1 61.2L307.3 61.2L307.3 62.9Z M315.3 62.9L316.8 62.9L316.8 63.9L315.3 63.9L315.3 68.2Q315.3 68.6 315.5 68.9Q315.7 69.1 316.2 69.1L316.2 69.1Q316.3 69.1 316.4 69.0Q316.6 69.0 316.8 69.0L316.8 69.0L317.0 70.0Q316.8 70.0 316.6 70.1Q316.4 70.1 316.1 70.1L316.1 70.1Q315.2 70.1 314.7 69.6Q314.2 69.1 314.2 68.2L314.2 68.2L314.2 63.9L313.1 63.9L313.1 62.9L314.2 62.9L314.2 61.2L315.3 61.2L315.3 62.9ZM321.1 70.2L321.1 70.2Q320.2 70.2 319.5 69.7Q318.7 69.2 318.3 68.4Q317.9 67.6 317.9 66.5L317.9 66.5Q317.9 65.4 318.3 64.6Q318.7 63.7 319.5 63.3Q320.2 62.8 321.1 62.8L321.1 62.8Q322.1 62.8 322.8 63.3Q323.6 63.7 324.0 64.6Q324.4 65.4 324.4 66.5L324.4 66.5Q324.4 67.6 324.0 68.4Q323.6 69.2 322.8 69.7Q322.1 70.2 321.1 70.2ZM321.1 69.1L321.1 69.1Q321.9 69.1 322.3 68.8Q322.8 68.4 323.0 67.8Q323.2 67.2 323.2 66.5L323.2 66.5Q323.2 65.8 323.0 65.2Q322.8 64.6 322.3 64.2Q321.9 63.8 321.1 63.8L321.1 63.8Q320.4 63.8 320.0 64.2Q319.5 64.6 319.3 65.2Q319.1 65.8 319.1 66.5L319.1 66.5Q319.1 67.2 319.3 67.8Q319.5 68.4 320.0 68.8Q320.4 69.1 321.1 69.1Z M330.1 65.7L330.1 65.7L330.1 70L329.0 70L329.0 60.5L330.1 60.5L330.1 64.1Q330.4 63.5 330.9 63.2L330.9 63.2Q331.5 62.8 332.3 62.8L332.3 62.8Q333.0 62.8 333.5 63.1Q334.1 63.4 334.4 64.0Q334.7 64.6 334.7 65.5L334.7 65.5L334.7 70L333.5 70L333.5 65.6Q333.5 64.8 333.1 64.3Q332.7 63.8 331.9 63.8L331.9 63.8Q331.4 63.8 331.0 64.1Q330.6 64.3 330.4 64.7Q330.1 65.1 330.1 65.7ZM339.7 70.2L339.7 70.2Q338.6 70.2 337.9 69.7Q337.2 69.2 336.8 68.4Q336.3 67.6 336.3 66.5Q336.3 65.4 336.7 64.6Q337.1 63.8 337.9 63.3Q338.6 62.8 339.5 62.8L339.5 62.8Q340.1 62.8 340.7 63.0Q341.2 63.2 341.7 63.6Q342.1 64.0 342.4 64.7Q342.6 65.4 342.6 66.4L342.6 66.4L342.6 66.8L337.5 66.8Q337.5 67.5 337.8 68.0L337.8 68.0Q338.0 68.6 338.5 68.9Q339.0 69.1 339.7 69.1L339.7 69.1Q340.1 69.1 340.4 69.0Q340.8 68.9 341.0 68.7Q341.3 68.4 341.4 68.0L341.4 68.0L342.5 68.3Q342.4 68.9 342.0 69.3Q341.6 69.7 341.0 69.9Q340.4 70.2 339.7 70.2ZM337.5 65.9L337.5 65.9L341.5 65.9Q341.4 65.4 341.3 65.0L341.3 65.0Q341.0 64.4 340.6 64.1Q340.2 63.8 339.5 63.8Q338.9 63.8 338.4 64.1Q338.0 64.5 337.7 65.0L337.7 65.0Q337.5 65.4 337.5 65.9ZM344.3 60.5L345.4 60.5L345.4 70L344.3 70L344.3 60.5ZM348.6 72.7L347.4 72.7L347.4 62.9L348.5 62.9L348.5 64.0L348.6 64.0Q348.8 63.8 349.0 63.6Q349.2 63.3 349.6 63.0Q350.0 62.8 350.7 62.8L350.7 62.8Q351.6 62.8 352.3 63.3Q352.9 63.7 353.3 64.5Q353.7 65.3 353.7 66.5L353.7 66.5Q353.7 67.6 353.3 68.4Q353.0 69.3 352.3 69.7Q351.6 70.2 350.7 70.2L350.7 70.2Q350.0 70.2 349.6 69.9Q349.2 69.7 349.0 69.4Q348.8 69.1 348.6 68.9L348.6 68.9L348.6 68.9L348.6 72.7ZM350.5 69.1L350.5 69.1Q351.2 69.1 351.7 68.8Q352.1 68.4 352.3 67.8Q352.6 67.2 352.6 66.5L352.6 66.5Q352.6 65.7 352.3 65.1Q352.1 64.5 351.7 64.2Q351.2 63.8 350.5 63.8L350.5 63.8Q349.9 63.8 349.4 64.2Q349.0 64.5 348.8 65.1Q348.5 65.7 348.5 66.5L348.5 66.5Q348.5 67.2 348.8 67.8Q349.0 68.5 349.5 68.8Q349.9 69.1 350.5 69.1Z M361.4 70.1L361.4 70.1Q360.7 70.1 360.1 69.8Q359.6 69.5 359.3 68.9Q359.0 68.3 359.0 67.4L359.0 67.4L359.0 62.9L360.1 62.9L360.1 67.3Q360.1 68.1 360.6 68.6Q361.0 69.1 361.8 69.1L361.8 69.1Q362.3 69.1 362.7 68.8Q363.1 68.6 363.3 68.2Q363.5 67.8 363.5 67.2L363.5 67.2L363.5 62.9L364.7 62.9L364.7 70L363.6 70L363.6 68.7Q363.3 69.4 362.8 69.7L362.8 69.7Q362.2 70.1 361.4 70.1ZM369.1 70.2L369.1 70.2Q368.4 70.2 367.8 69.9Q367.2 69.7 366.9 69.3Q366.5 68.9 366.4 68.3L366.4 68.3L367.5 68.0Q367.6 68.6 368.0 68.9Q368.5 69.1 369.1 69.1L369.1 69.1Q369.8 69.1 370.3 68.8Q370.7 68.5 370.7 68.1L370.7 68.1Q370.7 67.7 370.5 67.5Q370.2 67.2 369.7 67.1L369.7 67.1L368.5 66.8Q367.5 66.6 367.1 66.1Q366.6 65.6 366.6 64.9L366.6 64.9Q366.6 64.3 366.9 63.8Q367.3 63.3 367.9 63.1Q368.5 62.8 369.2 62.8L369.2 62.8Q369.9 62.8 370.5 63.0Q371.0 63.3 371.3 63.6Q371.6 64.0 371.8 64.5L371.8 64.5L370.7 64.8Q370.6 64.4 370.2 64.1Q369.9 63.8 369.2 63.8L369.2 63.8Q368.6 63.8 368.2 64.1Q367.7 64.4 367.7 64.8L367.7 64.8Q367.7 65.2 368.0 65.4Q368.3 65.7 368.9 65.8L368.9 65.8L370.0 66.1Q371.0 66.3 371.4 66.8Q371.9 67.3 371.9 68.0L371.9 68.0Q371.9 68.6 371.5 69.1Q371.2 69.6 370.6 69.9Q369.9 70.2 369.1 70.2ZM376.5 70.2L376.5 70.2Q375.5 70.2 374.8 69.7Q374.0 69.2 373.6 68.4Q373.2 67.6 373.2 66.5Q373.2 65.4 373.6 64.6Q374.0 63.8 374.7 63.3Q375.4 62.8 376.4 62.8L376.4 62.8Q377.0 62.8 377.5 63.0Q378.1 63.2 378.5 63.6Q379.0 64.0 379.2 64.7Q379.5 65.4 379.5 66.4L379.5 66.4L379.5 66.8L374.4 66.8Q374.4 67.5 374.6 68.0L374.6 68.0Q374.9 68.6 375.4 68.9Q375.9 69.1 376.5 69.1L376.5 69.1Q377.0 69.1 377.3 69.0Q377.6 68.9 377.9 68.7Q378.1 68.4 378.3 68.0L378.3 68.0L379.4 68.3Q379.2 68.9 378.8 69.3Q378.4 69.7 377.8 69.9Q377.3 70.2 376.5 70.2ZM374.4 65.9L374.4 65.9L378.3 65.9Q378.3 65.4 378.1 65.0L378.1 65.0Q377.9 64.4 377.5 64.1Q377.0 63.8 376.4 63.8Q375.8 63.8 375.3 64.1Q374.8 64.5 374.6 65.0L374.6 65.0Q374.4 65.4 374.4 65.9ZM382.3 70L381.1 70L381.1 62.9L382.2 62.9L382.2 64.0L382.3 64.0Q382.5 63.5 383.0 63.1Q383.5 62.8 384.2 62.8L384.2 62.8Q384.3 62.8 384.5 62.8Q384.6 62.8 384.7 62.8L384.7 62.8L384.7 64.0Q384.7 64.0 384.5 63.9Q384.3 63.9 384.0 63.9L384.0 63.9Q383.5 63.9 383.1 64.1Q382.7 64.3 382.5 64.7Q382.3 65.1 382.3 65.6L382.3 65.6L382.3 70ZM388.4 70.2L388.4 70.2Q387.7 70.2 387.1 69.9Q386.6 69.7 386.2 69.3Q385.8 68.9 385.7 68.3L385.7 68.3L386.8 68.0Q386.9 68.6 387.4 68.9Q387.8 69.1 388.4 69.1L388.4 69.1Q389.2 69.1 389.6 68.8Q390.0 68.5 390.0 68.1L390.0 68.1Q390.0 67.7 389.8 67.5Q389.5 67.2 389.0 67.1L389.0 67.1L387.8 66.8Q386.9 66.6 386.4 66.1Q385.9 65.6 385.9 64.9L385.9 64.9Q385.9 64.3 386.3 63.8Q386.6 63.3 387.2 63.1Q387.8 62.8 388.6 62.8L388.6 62.8Q389.3 62.8 389.8 63.0Q390.3 63.3 390.6 63.6Q390.9 64.0 391.1 64.5L391.1 64.5L390.1 64.8Q389.9 64.4 389.6 64.1Q389.2 63.8 388.6 63.8L388.6 63.8Q387.9 63.8 387.5 64.1Q387.1 64.4 387.1 64.8L387.1 64.8Q387.1 65.2 387.4 65.4Q387.6 65.7 388.3 65.8L388.3 65.8L389.3 66.1Q390.3 66.3 390.8 66.8Q391.2 67.3 391.2 68.0L391.2 68.0Q391.2 68.6 390.9 69.1Q390.5 69.6 389.9 69.9Q389.3 70.2 388.4 70.2Z M400.0 70.2L400.0 70.2Q399.0 70.2 398.2 69.7Q397.5 69.2 397.1 68.4Q396.7 67.6 396.7 66.5Q396.7 65.4 397.1 64.6Q397.4 63.8 398.2 63.3Q398.9 62.8 399.9 62.8L399.9 62.8Q400.4 62.8 401.0 63.0Q401.5 63.2 402.0 63.6Q402.4 64.0 402.7 64.7Q402.9 65.4 402.9 66.4L402.9 66.4L402.9 66.8L397.8 66.8Q397.8 67.5 398.1 68.0L398.1 68.0Q398.4 68.6 398.9 68.9Q399.3 69.1 400.0 69.1L400.0 69.1Q400.4 69.1 400.8 69.0Q401.1 68.9 401.3 68.7Q401.6 68.4 401.7 68.0L401.7 68.0L402.8 68.3Q402.7 68.9 402.3 69.3Q401.9 69.7 401.3 69.9Q400.7 70.2 400.0 70.2ZM397.8 65.9L397.8 65.9L401.8 65.9Q401.7 65.4 401.6 65.0L401.6 65.0Q401.4 64.4 400.9 64.1Q400.5 63.8 399.9 63.8Q399.2 63.8 398.8 64.1Q398.3 64.5 398.1 65.0L398.1 65.0Q397.9 65.4 397.8 65.9ZM405.3 70L404.0 70L406.5 66.4L404.1 62.9L405.5 62.9L406.4 64.3Q406.7 64.8 406.9 65.3L406.9 65.3Q407.1 65.5 407.2 65.7L407.2 65.7Q407.3 65.5 407.4 65.3L407.4 65.3Q407.6 64.8 407.9 64.3L407.9 64.3L408.8 62.9L410.1 62.9L407.8 66.4L410.3 70L408.9 70L407.9 68.4Q407.6 67.9 407.3 67.4L407.3 67.4Q407.2 67.3 407.1 67.1L407.1 67.1Q407.0 67.3 406.9 67.4L406.9 67.4Q406.7 67.9 406.4 68.4L406.4 68.4L405.3 70ZM412.8 72.7L411.7 72.7L411.7 62.9L412.8 62.9L412.8 64.0L412.9 64.0Q413.0 63.8 413.2 63.6Q413.5 63.3 413.9 63.0Q414.3 62.8 415.0 62.8L415.0 62.8Q415.9 62.8 416.5 63.3Q417.2 63.7 417.6 64.5Q418.0 65.3 418.0 66.5L418.0 66.5Q418.0 67.6 417.6 68.4Q417.2 69.3 416.5 69.7Q415.9 70.2 415.0 70.2L415.0 70.2Q414.3 70.2 413.9 69.9Q413.5 69.7 413.3 69.4Q413.0 69.1 412.9 68.9L412.9 68.9L412.8 68.9L412.8 72.7ZM414.8 69.1L414.8 69.1Q415.5 69.1 415.9 68.8Q416.4 68.4 416.6 67.8Q416.8 67.2 416.8 66.5L416.8 66.5Q416.8 65.7 416.6 65.1Q416.4 64.5 415.9 64.2Q415.5 63.8 414.8 63.8L414.8 63.8Q414.1 63.8 413.7 64.2Q413.3 64.5 413.0 65.1Q412.8 65.7 412.8 66.5L412.8 66.5Q412.8 67.2 413.0 67.8Q413.3 68.5 413.7 68.8Q414.2 69.1 414.8 69.1ZM420.8 70L419.6 70L419.6 62.9L420.7 62.9L420.7 64.0L420.8 64.0Q421.0 63.5 421.5 63.1Q422.0 62.8 422.7 62.8L422.7 62.8Q422.8 62.8 423.0 62.8Q423.1 62.8 423.2 62.8L423.2 62.8L423.2 64.0Q423.2 64.0 423.0 63.9Q422.8 63.9 422.6 63.9L422.6 63.9Q422.0 63.9 421.6 64.1Q421.2 64.3 421.0 64.7Q420.8 65.1 420.8 65.6L420.8 65.6L420.8 70ZM427.5 70.2L427.5 70.2Q426.5 70.2 425.7 69.7Q425.0 69.2 424.6 68.4Q424.2 67.6 424.2 66.5Q424.2 65.4 424.6 64.6Q425.0 63.8 425.7 63.3Q426.4 62.8 427.4 62.8L427.4 62.8Q427.9 62.8 428.5 63.0Q429.0 63.2 429.5 63.6Q429.9 64.0 430.2 64.7Q430.5 65.4 430.5 66.4L430.5 66.4L430.5 66.8L425.3 66.8Q425.4 67.5 425.6 68.0L425.6 68.0Q425.9 68.6 426.4 68.9Q426.9 69.1 427.5 69.1L427.5 69.1Q427.9 69.1 428.3 69.0Q428.6 68.9 428.9 68.7Q429.1 68.4 429.3 68.0L429.3 68.0L430.4 68.3Q430.2 68.9 429.8 69.3Q429.4 69.7 428.8 69.9Q428.2 70.2 427.5 70.2ZM425.4 65.9L425.4 65.9L429.3 65.9Q429.3 65.4 429.1 65.0L429.1 65.0Q428.9 64.4 428.5 64.1Q428.0 63.8 427.4 63.8Q426.7 63.8 426.3 64.1Q425.8 64.5 425.6 65.0L425.6 65.0Q425.4 65.4 425.4 65.9ZM434.5 70.2L434.5 70.2Q433.8 70.2 433.2 69.9Q432.7 69.7 432.3 69.3Q431.9 68.9 431.8 68.3L431.8 68.3L432.9 68.0Q433.0 68.6 433.5 68.9Q433.9 69.1 434.5 69.1L434.5 69.1Q435.3 69.1 435.7 68.8Q436.1 68.5 436.1 68.1L436.1 68.1Q436.1 67.7 435.9 67.5Q435.6 67.2 435.1 67.1L435.1 67.1L433.9 66.8Q432.9 66.6 432.5 66.1Q432.0 65.6 432.0 64.9L432.0 64.9Q432.0 64.3 432.4 63.8Q432.7 63.3 433.3 63.1Q433.9 62.8 434.6 62.8L434.6 62.8Q435.4 62.8 435.9 63.0Q436.4 63.3 436.7 63.6Q437.0 64.0 437.2 64.5L437.2 64.5L436.2 64.8Q436.0 64.4 435.7 64.1Q435.3 63.8 434.6 63.8L434.6 63.8Q434.0 63.8 433.6 64.1Q433.2 64.4 433.2 64.8L433.2 64.8Q433.2 65.2 433.5 65.4Q433.7 65.7 434.4 65.8L434.4 65.8L435.4 66.1Q436.4 66.3 436.9 66.8Q437.3 67.3 437.3 68.0L437.3 68.0Q437.3 68.6 437.0 69.1Q436.6 69.6 436.0 69.9Q435.4 70.2 434.5 70.2ZM441.4 70.2L441.4 70.2Q440.7 70.2 440.1 69.9Q439.5 69.7 439.2 69.3Q438.8 68.9 438.7 68.3L438.7 68.3L439.7 68.0Q439.9 68.6 440.3 68.9Q440.7 69.1 441.4 69.1L441.4 69.1Q442.1 69.1 442.6 68.8Q443.0 68.5 443.0 68.1L443.0 68.1Q443.0 67.7 442.7 67.5Q442.5 67.2 442.0 67.1L442.0 67.1L440.8 66.8Q439.8 66.6 439.3 66.1Q438.9 65.6 438.9 64.9L438.9 64.9Q438.9 64.3 439.2 63.8Q439.6 63.3 440.2 63.1Q440.7 62.8 441.5 62.8L441.5 62.8Q442.2 62.8 442.7 63.0Q443.3 63.3 443.6 63.6Q443.9 64.0 444.1 64.5L444.1 64.5L443.0 64.8Q442.9 64.4 442.5 64.1Q442.2 63.8 441.5 63.8L441.5 63.8Q440.9 63.8 440.4 64.1Q440.0 64.4 440.0 64.8L440.0 64.8Q440.0 65.2 440.3 65.4Q440.6 65.7 441.2 65.8L441.2 65.8L442.3 66.1Q443.3 66.3 443.7 66.8Q444.2 67.3 444.2 68.0L444.2 68.0Q444.2 68.6 443.8 69.1Q443.5 69.6 442.8 69.9Q442.2 70.2 441.4 70.2Z M450.1 70L449.0 70L449.0 62.9L450.1 62.9L450.1 70ZM449.6 61.7L449.6 61.7Q449.3 61.7 449.0 61.5Q448.8 61.3 448.8 61.0L448.8 61.0Q448.8 60.7 449.0 60.4Q449.3 60.2 449.6 60.2L449.6 60.2Q449.9 60.2 450.1 60.4Q450.4 60.7 450.4 61.0L450.4 61.0Q450.4 61.3 450.1 61.5Q449.9 61.7 449.6 61.7ZM454.8 70.2L454.8 70.2Q453.9 70.2 453.2 69.7Q452.6 69.3 452.2 68.4Q451.8 67.6 451.8 66.5L451.8 66.5Q451.8 65.3 452.2 64.5Q452.6 63.7 453.3 63.3Q453.9 62.8 454.8 62.8L454.8 62.8Q455.5 62.8 455.9 63.0Q456.3 63.3 456.5 63.6Q456.8 63.8 456.9 64.0L456.9 64.0L457.0 64.0L457.0 60.5L458.1 60.5L458.1 70L457.0 70L457.0 68.9L456.9 68.9Q456.8 69.1 456.5 69.4Q456.3 69.7 455.9 69.9Q455.5 70.2 454.8 70.2ZM455.0 69.1L455.0 69.1Q455.6 69.1 456.1 68.8Q456.5 68.5 456.7 67.8Q457.0 67.2 457.0 66.5L457.0 66.5Q457.0 65.7 456.8 65.1Q456.5 64.5 456.1 64.2Q455.6 63.8 455.0 63.8L455.0 63.8Q454.3 63.8 453.9 64.2Q453.4 64.5 453.2 65.1Q453.0 65.7 453.0 66.5L453.0 66.5Q453.0 67.2 453.2 67.8Q453.4 68.4 453.9 68.8Q454.3 69.1 455.0 69.1ZM463.1 70.2L463.1 70.2Q462.1 70.2 461.3 69.7Q460.6 69.2 460.2 68.4Q459.8 67.6 459.8 66.5Q459.8 65.4 460.2 64.6Q460.6 63.8 461.3 63.3Q462.0 62.8 463.0 62.8L463.0 62.8Q463.5 62.8 464.1 63.0Q464.6 63.2 465.1 63.6Q465.5 64.0 465.8 64.7Q466.1 65.4 466.1 66.4L466.1 66.4L466.1 66.8L460.9 66.8Q460.9 67.5 461.2 68.0L461.2 68.0Q461.5 68.6 462.0 68.9Q462.5 69.1 463.1 69.1L463.1 69.1Q463.5 69.1 463.9 69.0Q464.2 68.9 464.5 68.7Q464.7 68.4 464.8 68.0L464.8 68.0L465.9 68.3Q465.8 68.9 465.4 69.3Q465.0 69.7 464.4 69.9Q463.8 70.2 463.1 70.2ZM460.9 65.9L460.9 65.9L464.9 65.9Q464.8 65.4 464.7 65.0L464.7 65.0Q464.5 64.4 464.0 64.1Q463.6 63.8 463.0 63.8Q462.3 63.8 461.9 64.1Q461.4 64.5 461.2 65.0L461.2 65.0Q461.0 65.4 460.9 65.9ZM469.7 70.2L469.7 70.2Q469.0 70.2 468.5 69.9Q467.9 69.7 467.6 69.2Q467.3 68.7 467.3 68.0L467.3 68.0Q467.3 67.4 467.5 67.0Q467.7 66.6 468.1 66.4Q468.5 66.2 469.0 66.1Q469.5 66.0 470.0 65.9L470.0 65.9Q470.7 65.8 471.1 65.8Q471.5 65.7 471.6 65.6Q471.8 65.5 471.8 65.2L471.8 65.2L471.8 65.2Q471.8 64.8 471.7 64.5Q471.5 64.1 471.2 64.0Q470.9 63.8 470.4 63.8L470.4 63.8Q469.8 63.8 469.5 64.0Q469.1 64.1 468.9 64.4Q468.7 64.6 468.6 64.9L468.6 64.9L467.5 64.5Q467.7 63.8 468.2 63.5Q468.7 63.1 469.2 63.0Q469.8 62.8 470.3 62.8L470.3 62.8Q470.7 62.8 471.1 62.9Q471.6 63.0 472.0 63.2Q472.4 63.5 472.7 64.0Q473.0 64.5 473.0 65.3L473.0 65.3L473.0 70L471.9 70L471.9 69.0L471.8 69.0Q471.7 69.3 471.4 69.5Q471.1 69.8 470.7 70.0Q470.3 70.2 469.7 70.2ZM469.9 69.2L469.9 69.2Q470.5 69.2 470.9 68.9Q471.4 68.7 471.6 68.3Q471.8 67.9 471.8 67.4L471.8 67.4L471.8 66.5Q471.8 66.5 471.5 66.6Q471.3 66.7 471.0 66.7Q470.7 66.8 470.4 66.8Q470.1 66.8 470.0 66.9L470.0 66.9Q469.6 66.9 469.2 67.0Q468.8 67.2 468.6 67.4Q468.4 67.6 468.4 68.0L468.4 68.0Q468.4 68.4 468.6 68.7Q468.8 68.9 469.1 69.0Q469.4 69.2 469.9 69.2ZM477.4 70.2L477.4 70.2Q476.7 70.2 476.1 69.9Q475.5 69.7 475.2 69.3Q474.8 68.9 474.7 68.3L474.7 68.3L475.8 68.0Q475.9 68.6 476.3 68.9Q476.8 69.1 477.4 69.1L477.4 69.1Q478.1 69.1 478.6 68.8Q479.0 68.5 479.0 68.1L479.0 68.1Q479.0 67.7 478.8 67.5Q478.5 67.2 478.0 67.1L478.0 67.1L476.8 66.8Q475.8 66.6 475.4 66.1Q474.9 65.6 474.9 64.9L474.9 64.9Q474.9 64.3 475.2 63.8Q475.6 63.3 476.2 63.1Q476.8 62.8 477.5 62.8L477.5 62.8Q478.2 62.8 478.8 63.0Q479.3 63.3 479.6 63.6Q479.9 64.0 480.1 64.5L480.1 64.5L479.0 64.8Q478.9 64.4 478.5 64.1Q478.2 63.8 477.5 63.8L477.5 63.8Q476.9 63.8 476.5 64.1Q476.0 64.4 476.0 64.8L476.0 64.8Q476.0 65.2 476.3 65.4Q476.6 65.7 477.2 65.8L477.2 65.8L478.3 66.1Q479.3 66.3 479.7 66.8Q480.2 67.3 480.2 68.0L480.2 68.0Q480.2 68.6 479.8 69.1Q479.5 69.6 478.9 69.9Q478.2 70.2 477.4 70.2Z M487.1 70L486.0 70L486.0 62.9L487.1 62.9L487.1 64.2Q487.3 63.8 487.5 63.5L487.5 63.5Q487.8 63.2 488.2 63.0Q488.6 62.8 489.1 62.8L489.1 62.8Q489.9 62.8 490.4 63.3L490.4 63.3Q490.8 63.6 490.9 64.2L490.9 64.2Q491.0 63.9 491.3 63.6L491.3 63.6Q491.6 63.2 492.1 63.0Q492.6 62.8 493.2 62.8L493.2 62.8Q493.8 62.8 494.3 63.0Q494.8 63.3 495.1 63.8Q495.4 64.4 495.4 65.2L495.4 65.2L495.4 70L494.2 70L494.2 65.2Q494.2 64.5 493.8 64.1Q493.4 63.8 492.8 63.8L492.8 63.8Q492.3 63.8 492.0 64.0Q491.6 64.2 491.5 64.6Q491.3 64.9 491.3 65.4L491.3 65.4L491.3 70L490.1 70L490.1 65.1Q490.1 64.5 489.7 64.2Q489.3 63.8 488.7 63.8L488.7 63.8Q488.3 63.8 488.0 64.0Q487.6 64.2 487.4 64.6Q487.1 65.0 487.1 65.5L487.1 65.5L487.1 70ZM500.3 70.2L500.3 70.2Q499.3 70.2 498.6 69.7Q497.9 69.2 497.5 68.4Q497.0 67.6 497.0 66.5L497.0 66.5Q497.0 65.4 497.5 64.6Q497.9 63.7 498.6 63.3Q499.3 62.8 500.3 62.8L500.3 62.8Q501.3 62.8 502.0 63.3Q502.7 63.7 503.1 64.6Q503.5 65.4 503.5 66.5L503.5 66.5Q503.5 67.6 503.1 68.4Q502.7 69.2 502.0 69.7Q501.3 70.2 500.3 70.2ZM500.3 69.1L500.3 69.1Q501.0 69.1 501.5 68.8Q501.9 68.4 502.1 67.8Q502.4 67.2 502.4 66.5L502.4 66.5Q502.4 65.8 502.1 65.2Q501.9 64.6 501.5 64.2Q501.0 63.8 500.3 63.8L500.3 63.8Q499.6 63.8 499.1 64.2Q498.7 64.6 498.4 65.2Q498.2 65.8 498.2 66.5L498.2 66.5Q498.2 67.2 498.4 67.8Q498.7 68.4 499.1 68.8Q499.6 69.1 500.3 69.1ZM506.3 70L505.2 70L505.2 62.9L506.3 62.9L506.3 64.0L506.4 64.0Q506.6 63.5 507.1 63.1Q507.6 62.8 508.2 62.8L508.2 62.8Q508.3 62.8 508.5 62.8Q508.7 62.8 508.8 62.8L508.8 62.8L508.8 64.0Q508.7 64.0 508.5 63.9Q508.3 63.9 508.1 63.9L508.1 63.9Q507.6 63.9 507.2 64.1Q506.8 64.3 506.6 64.7Q506.3 65.1 506.3 65.6L506.3 65.6L506.3 70ZM513.1 70.2L513.1 70.2Q512.0 70.2 511.3 69.7Q510.5 69.2 510.1 68.4Q509.7 67.6 509.7 66.5Q509.7 65.4 510.1 64.6Q510.5 63.8 511.2 63.3Q512.0 62.8 512.9 62.8L512.9 62.8Q513.5 62.8 514.0 63.0Q514.6 63.2 515.0 63.6Q515.5 64.0 515.8 64.7Q516.0 65.4 516.0 66.4L516.0 66.4L516.0 66.8L510.9 66.8Q510.9 67.5 511.2 68.0L511.2 68.0Q511.4 68.6 511.9 68.9Q512.4 69.1 513.1 69.1L513.1 69.1Q513.5 69.1 513.8 69.0Q514.2 68.9 514.4 68.7Q514.7 68.4 514.8 68.0L514.8 68.0L515.9 68.3Q515.7 68.9 515.3 69.3Q515.0 69.7 514.4 69.9Q513.8 70.2 513.1 70.2ZM510.9 65.9L510.9 65.9L514.9 65.9Q514.8 65.4 514.7 65.0L514.7 65.0Q514.4 64.4 514.0 64.1Q513.6 63.8 512.9 63.8Q512.3 63.8 511.8 64.1Q511.4 64.5 511.1 65.0L511.1 65.0Q510.9 65.4 510.9 65.9Z M524.0 70.2L524.0 70.2Q523.0 70.2 522.2 69.7Q521.5 69.2 521.1 68.4Q520.7 67.6 520.7 66.5Q520.7 65.4 521.1 64.6Q521.4 63.8 522.2 63.3Q522.9 62.8 523.9 62.8L523.9 62.8Q524.4 62.8 525.0 63.0Q525.5 63.2 526.0 63.6Q526.4 64.0 526.7 64.7Q526.9 65.4 526.9 66.4L526.9 66.4L526.9 66.8L521.8 66.8Q521.8 67.5 522.1 68.0L522.1 68.0Q522.4 68.6 522.9 68.9Q523.3 69.1 524.0 69.1L524.0 69.1Q524.4 69.1 524.8 69.0Q525.1 68.9 525.3 68.7Q525.6 68.4 525.7 68.0L525.7 68.0L526.8 68.3Q526.7 68.9 526.3 69.3Q525.9 69.7 525.3 69.9Q524.7 70.2 524.0 70.2ZM521.8 65.9L521.8 65.9L525.8 65.9Q525.7 65.4 525.6 65.0L525.6 65.0Q525.4 64.4 524.9 64.1Q524.5 63.8 523.9 63.8Q523.2 63.8 522.8 64.1Q522.3 64.5 522.1 65.0L522.1 65.0Q521.9 65.4 521.8 65.9ZM530.2 62.9L531.9 62.9L531.9 63.9L530.2 63.9L530.2 70L529.1 70L529.1 63.9L527.7 63.9L527.7 62.9L529.1 62.9L529.1 62.0Q529.1 61.3 529.4 60.9Q529.7 60.5 530.1 60.3Q530.6 60.1 531.1 60.1L531.1 60.1Q531.5 60.1 531.8 60.2Q532.1 60.2 532.2 60.3L532.2 60.3L531.9 61.3Q531.8 61.2 531.6 61.2Q531.5 61.2 531.3 61.2L531.3 61.2Q530.7 61.2 530.5 61.4Q530.2 61.7 530.2 62.2L530.2 62.2L530.2 62.9ZM535.1 62.9L536.7 62.9L536.7 63.9L535.1 63.9L535.1 70L533.9 70L533.9 63.9L532.5 63.9L532.5 62.9L533.9 62.9L533.9 62.0Q533.9 61.3 534.2 60.9Q534.5 60.5 535.0 60.3Q535.4 60.1 535.9 60.1L535.9 60.1Q536.3 60.1 536.6 60.2Q536.9 60.2 537.0 60.3L537.0 60.3L536.7 61.3Q536.6 61.2 536.4 61.2Q536.3 61.2 536.1 61.2L536.1 61.2Q535.5 61.2 535.3 61.4Q535.1 61.7 535.1 62.2L535.1 62.2L535.1 62.9ZM541.2 70.2L541.2 70.2Q540.2 70.2 539.4 69.7Q538.7 69.2 538.3 68.4Q537.9 67.6 537.9 66.5Q537.9 65.4 538.3 64.6Q538.6 63.8 539.4 63.3Q540.1 62.8 541.1 62.8L541.1 62.8Q541.6 62.8 542.2 63.0Q542.7 63.2 543.2 63.6Q543.6 64.0 543.9 64.7Q544.1 65.4 544.1 66.4L544.1 66.4L544.1 66.8L539.0 66.8Q539.0 67.5 539.3 68.0L539.3 68.0Q539.6 68.6 540.1 68.9Q540.5 69.1 541.2 69.1L541.2 69.1Q541.6 69.1 542.0 69.0Q542.3 68.9 542.5 68.7Q542.8 68.4 542.9 68.0L542.9 68.0L544.0 68.3Q543.9 68.9 543.5 69.3Q543.1 69.7 542.5 69.9Q541.9 70.2 541.2 70.2ZM539.0 65.9L539.0 65.9L543.0 65.9Q542.9 65.4 542.8 65.0L542.8 65.0Q542.6 64.4 542.1 64.1Q541.7 63.8 541.1 63.8Q540.4 63.8 540.0 64.1Q539.5 64.5 539.3 65.0L539.3 65.0Q539.1 65.4 539.0 65.9ZM548.7 70.2L548.7 70.2Q547.7 70.2 547.0 69.7Q546.3 69.2 545.8 68.4Q545.4 67.6 545.4 66.5L545.4 66.5Q545.4 65.4 545.8 64.6Q546.3 63.7 547.0 63.3Q547.7 62.8 548.7 62.8L548.7 62.8Q549.2 62.8 549.6 62.9Q550.1 63.1 550.5 63.3Q550.9 63.6 551.1 63.9Q551.4 64.3 551.5 64.8L551.5 64.8L550.4 65.1Q550.4 64.8 550.2 64.6Q550.1 64.4 549.8 64.2Q549.6 64.0 549.3 63.9Q549.0 63.8 548.7 63.8L548.7 63.8Q548.0 63.8 547.5 64.2Q547.0 64.6 546.8 65.2Q546.6 65.8 546.6 66.5L546.6 66.5Q546.6 67.2 546.8 67.8Q547.0 68.4 547.5 68.8Q548.0 69.1 548.7 69.1L548.7 69.1Q549.0 69.1 549.3 69.0Q549.6 68.9 549.9 68.8Q550.1 68.6 550.2 68.3Q550.4 68.1 550.5 67.8L550.5 67.8L551.6 68.1Q551.4 68.6 551.2 69.0Q550.9 69.4 550.5 69.6Q550.1 69.9 549.7 70.0Q549.2 70.2 548.7 70.2ZM554.5 62.9L556.0 62.9L556.0 63.9L554.5 63.9L554.5 68.2Q554.5 68.6 554.7 68.9Q554.9 69.1 555.4 69.1L555.4 69.1Q555.5 69.1 555.7 69.0Q555.8 69.0 556.0 69.0L556.0 69.0L556.2 70.0Q556.0 70.0 555.8 70.1Q555.6 70.1 555.4 70.1L555.4 70.1Q554.4 70.1 553.9 69.6Q553.4 69.1 553.4 68.2L553.4 68.2L553.4 63.9L552.3 63.9L552.3 62.9L553.4 62.9L553.4 61.2L554.5 61.2L554.5 62.9ZM558.6 70L557.5 70L557.5 62.9L558.6 62.9L558.6 70ZM558.0 61.7L558.0 61.7Q557.7 61.7 557.5 61.5Q557.2 61.3 557.2 61.0L557.2 61.0Q557.2 60.7 557.5 60.4Q557.7 60.2 558.0 60.2L558.0 60.2Q558.4 60.2 558.6 60.4Q558.8 60.7 558.8 61.0L558.8 61.0Q558.8 61.3 558.6 61.5Q558.4 61.7 558.0 61.7ZM563.9 70L562.7 70L560.0 62.9L561.2 62.9L562.7 67.1Q563.0 67.8 563.1 68.4L563.1 68.4Q563.2 68.7 563.3 69.0L563.3 69.0Q563.3 68.7 563.4 68.4L563.4 68.4Q563.6 67.8 563.8 67.1L563.8 67.1L565.3 62.9L566.6 62.9L563.9 70ZM570.9 70.2L570.9 70.2Q569.9 70.2 569.1 69.7Q568.4 69.2 568.0 68.4Q567.6 67.6 567.6 66.5Q567.6 65.4 568.0 64.6Q568.4 63.8 569.1 63.3Q569.8 62.8 570.8 62.8L570.8 62.8Q571.3 62.8 571.9 63.0Q572.4 63.2 572.9 63.6Q573.3 64.0 573.6 64.7Q573.9 65.4 573.9 66.4L573.9 66.4L573.9 66.8L568.7 66.8Q568.8 67.5 569.0 68.0L569.0 68.0Q569.3 68.6 569.8 68.9Q570.3 69.1 570.9 69.1L570.9 69.1Q571.3 69.1 571.7 69.0Q572.0 68.9 572.3 68.7Q572.5 68.4 572.6 68.0L572.6 68.0L573.7 68.3Q573.6 68.9 573.2 69.3Q572.8 69.7 572.2 69.9Q571.6 70.2 570.9 70.2ZM568.7 65.9L568.7 65.9L572.7 65.9Q572.7 65.4 572.5 65.0L572.5 65.0Q572.3 64.4 571.8 64.1Q571.4 63.8 570.8 63.8Q570.1 63.8 569.7 64.1Q569.2 64.5 569.0 65.0L569.0 65.0Q568.8 65.4 568.7 65.9ZM575.5 60.5L576.6 60.5L576.6 70L575.5 70L575.5 60.5ZM578.5 72.6L578.5 72.6L578.8 71.6L578.9 71.6Q579.3 71.7 579.6 71.7Q579.9 71.6 580.1 71.4Q580.3 71.1 580.5 70.6L580.5 70.6L580.7 70.0L578.0 62.9L579.2 62.9L580.7 67.1Q581.0 67.8 581.2 68.4L581.2 68.4Q581.2 68.7 581.3 69.0L581.3 69.0Q581.4 68.7 581.4 68.4L581.4 68.4Q581.6 67.8 581.8 67.1L581.8 67.1L583.4 62.9L584.6 62.9L581.5 71.1Q581.3 71.6 581.0 72.0Q580.7 72.4 580.3 72.5Q579.9 72.7 579.4 72.7L579.4 72.7Q579.1 72.7 578.8 72.7Q578.6 72.6 578.5 72.6Z M592.0 70.2L592.0 70.2Q591.3 70.2 590.8 69.9Q590.2 69.7 589.9 69.2Q589.6 68.7 589.6 68.0L589.6 68.0Q589.6 67.4 589.8 67.0Q590.1 66.6 590.5 66.4Q590.9 66.2 591.3 66.1Q591.8 66.0 592.3 65.9L592.3 65.9Q593.0 65.8 593.4 65.8Q593.8 65.7 594.0 65.6Q594.2 65.5 594.2 65.2L594.2 65.2L594.2 65.2Q594.2 64.8 594.0 64.5Q593.8 64.1 593.5 64.0Q593.2 63.8 592.7 63.8L592.7 63.8Q592.2 63.8 591.8 64.0Q591.4 64.1 591.2 64.4Q591.0 64.6 590.9 64.9L590.9 64.9L589.8 64.5Q590.0 63.8 590.5 63.5Q591.0 63.1 591.5 63.0Q592.1 62.8 592.6 62.8L592.6 62.8Q593.0 62.8 593.4 62.9Q593.9 63.0 594.3 63.2Q594.7 63.5 595.0 64.0Q595.3 64.5 595.3 65.3L595.3 65.3L595.3 70L594.2 70L594.2 69.0L594.1 69.0Q594.0 69.3 593.7 69.5Q593.4 69.8 593.0 70.0Q592.6 70.2 592.0 70.2ZM592.2 69.2L592.2 69.2Q592.8 69.2 593.3 68.9Q593.7 68.7 593.9 68.3Q594.2 67.9 594.2 67.4L594.2 67.4L594.2 66.5Q594.1 66.5 593.8 66.6Q593.6 66.7 593.3 66.7Q593.0 66.8 592.7 66.8Q592.4 66.8 592.3 66.9L592.3 66.9Q591.9 66.9 591.5 67.0Q591.2 67.2 590.9 67.4Q590.7 67.6 590.7 68.0L590.7 68.0Q590.7 68.4 590.9 68.7Q591.1 68.9 591.4 69.0Q591.8 69.2 592.2 69.2ZM598.4 65.7L598.4 65.7L598.4 70L597.3 70L597.3 62.9L598.4 62.9L598.4 64.2Q598.7 63.6 599.2 63.2L599.2 63.2Q599.8 62.8 600.6 62.8L600.6 62.8Q601.3 62.8 601.8 63.1Q602.4 63.4 602.7 64.0Q603.0 64.6 603.0 65.5L603.0 65.5L603.0 70L601.8 70L601.8 65.6Q601.8 64.8 601.4 64.3Q601.0 63.8 600.2 63.8L600.2 63.8Q599.7 63.8 599.3 64.1Q598.9 64.3 598.7 64.7Q598.4 65.1 598.4 65.7ZM607.6 70.2L607.6 70.2Q606.8 70.2 606.1 69.7Q605.4 69.3 605.0 68.4Q604.6 67.6 604.6 66.5L604.6 66.5Q604.6 65.3 605.0 64.5Q605.4 63.7 606.1 63.3Q606.8 62.8 607.6 62.8L607.6 62.8Q608.3 62.8 608.7 63.0Q609.2 63.3 609.4 63.6Q609.6 63.8 609.7 64.0L609.7 64.0L609.8 64.0L609.8 60.5L610.9 60.5L610.9 70L609.8 70L609.8 68.9L609.7 68.9Q609.6 69.1 609.4 69.4Q609.1 69.7 608.7 69.9Q608.3 70.2 607.6 70.2ZM607.8 69.1L607.8 69.1Q608.5 69.1 608.9 68.8Q609.4 68.5 609.6 67.8Q609.8 67.2 609.8 66.5L609.8 66.5Q609.8 65.7 609.6 65.1Q609.4 64.5 608.9 64.2Q608.5 63.8 607.8 63.8L607.8 63.8Q607.1 63.8 606.7 64.2Q606.2 64.5 606.0 65.1Q605.8 65.7 605.8 66.5L605.8 66.5Q605.8 67.2 606.0 67.8Q606.3 68.4 606.7 68.8Q607.2 69.1 607.8 69.1Z M36.9 88.2L36.9 88.2Q35.9 88.2 35.2 87.7Q34.5 87.2 34.1 86.4Q33.7 85.6 33.7 84.5L33.7 84.5Q33.7 83.4 34.1 82.6Q34.5 81.7 35.2 81.3Q35.9 80.8 36.9 80.8L36.9 80.8Q37.4 80.8 37.9 80.9Q38.3 81.1 38.7 81.3Q39.1 81.6 39.3 81.9Q39.6 82.3 39.8 82.8L39.8 82.8L38.7 83.1Q38.6 82.8 38.4 82.6Q38.3 82.4 38.0 82.2Q37.8 82.0 37.5 81.9Q37.2 81.8 36.9 81.8L36.9 81.8Q36.2 81.8 35.7 82.2Q35.3 82.6 35.0 83.2Q34.8 83.8 34.8 84.5L34.8 84.5Q34.8 85.2 35.0 85.8Q35.3 86.4 35.7 86.8Q36.2 87.1 36.9 87.1L36.9 87.1Q37.2 87.1 37.5 87.0Q37.8 86.9 38.1 86.8Q38.3 86.6 38.5 86.3Q38.6 86.1 38.7 85.8L38.7 85.8L39.8 86.1Q39.7 86.6 39.4 87.0Q39.1 87.4 38.7 87.6Q38.3 87.9 37.9 88.0Q37.4 88.2 36.9 88.2ZM44.3 88.2L44.3 88.2Q43.4 88.2 42.6 87.7Q41.9 87.2 41.5 86.4Q41.1 85.6 41.1 84.5L41.1 84.5Q41.1 83.4 41.5 82.6Q41.9 81.7 42.6 81.3Q43.4 80.8 44.3 80.8L44.3 80.8Q45.3 80.8 46.0 81.3Q46.7 81.7 47.2 82.6Q47.6 83.4 47.6 84.5L47.6 84.5Q47.6 85.6 47.2 86.4Q46.7 87.2 46.0 87.7Q45.3 88.2 44.3 88.2ZM44.3 87.1L44.3 87.1Q45.0 87.1 45.5 86.8Q46.0 86.4 46.2 85.8Q46.4 85.2 46.4 84.5L46.4 84.5Q46.4 83.8 46.2 83.2Q46.0 82.6 45.5 82.2Q45.0 81.8 44.3 81.8L44.3 81.8Q43.6 81.8 43.1 82.2Q42.7 82.6 42.5 83.2Q42.2 83.8 42.2 84.5L42.2 84.5Q42.2 85.2 42.5 85.8Q42.7 86.4 43.1 86.8Q43.6 87.1 44.3 87.1ZM50.4 88L49.2 88L49.2 80.9L50.3 80.9L50.3 82.2Q50.5 81.8 50.7 81.5L50.7 81.5Q51.0 81.2 51.4 81.0Q51.9 80.8 52.3 80.8L52.3 80.8Q53.1 80.8 53.6 81.3L53.6 81.3Q54.0 81.6 54.1 82.2L54.1 82.2Q54.3 81.9 54.5 81.6L54.5 81.6Q54.8 81.2 55.3 81.0Q55.8 80.8 56.4 80.8L56.4 80.8Q57.0 80.8 57.5 81.0Q58.0 81.3 58.3 81.8Q58.6 82.4 58.6 83.2L58.6 83.2L58.6 88L57.5 88L57.5 83.2Q57.5 82.5 57.0 82.1Q56.6 81.8 56.0 81.8L56.0 81.8Q55.6 81.8 55.2 82.0Q54.9 82.2 54.7 82.6Q54.5 82.9 54.5 83.4L54.5 83.4L54.5 88L53.3 88L53.3 83.1Q53.3 82.5 53.0 82.2Q52.6 81.8 52.0 81.8L52.0 81.8Q51.5 81.8 51.2 82.0Q50.8 82.2 50.6 82.6Q50.4 83.0 50.4 83.5L50.4 83.5L50.4 88ZM61.8 88L60.6 88L60.6 80.9L61.7 80.9L61.7 82.2Q61.9 81.8 62.1 81.5L62.1 81.5Q62.4 81.2 62.8 81.0Q63.3 80.8 63.7 80.8L63.7 80.8Q64.5 80.8 65.0 81.3L65.0 81.3Q65.4 81.6 65.5 82.2L65.5 82.2Q65.7 81.9 65.9 81.6L65.9 81.6Q66.2 81.2 66.7 81.0Q67.2 80.8 67.8 80.8L67.8 80.8Q68.4 80.8 68.9 81.0Q69.4 81.3 69.7 81.8Q70.0 82.4 70.0 83.2L70.0 83.2L70.0 88L68.9 88L68.9 83.2Q68.9 82.5 68.4 82.1Q68.0 81.8 67.4 81.8L67.4 81.8Q66.9 81.8 66.6 82.0Q66.2 82.2 66.1 82.6Q65.9 82.9 65.9 83.4L65.9 83.4L65.9 88L64.7 88L64.7 83.1Q64.7 82.5 64.3 82.2Q63.9 81.8 63.3 81.8L63.3 81.8Q62.9 81.8 62.6 82.0Q62.2 82.2 62.0 82.6Q61.8 83.0 61.8 83.5L61.8 83.5L61.8 88ZM74.4 88.1L74.4 88.1Q73.7 88.1 73.1 87.8Q72.6 87.5 72.3 86.9Q72 86.3 72 85.4L72 85.4L72 80.9L73.1 80.9L73.1 85.3Q73.1 86.1 73.6 86.6Q74.0 87.1 74.7 87.1L74.7 87.1Q75.3 87.1 75.7 86.8Q76.1 86.6 76.3 86.2Q76.5 85.8 76.5 85.2L76.5 85.2L76.5 80.9L77.7 80.9L77.7 88L76.6 88L76.6 86.7Q76.3 87.4 75.8 87.7L75.8 87.7Q75.2 88.1 74.4 88.1ZM80.8 83.7L80.8 83.7L80.8 88L79.7 88L79.7 80.9L80.8 80.9L80.8 82.2Q81.1 81.6 81.6 81.2L81.6 81.2Q82.2 80.8 83.0 80.8L83.0 80.8Q83.7 80.8 84.2 81.1Q84.8 81.4 85.1 82.0Q85.4 82.6 85.4 83.5L85.4 83.5L85.4 88L84.2 88L84.2 83.6Q84.2 82.8 83.8 82.3Q83.4 81.8 82.6 81.8L82.6 81.8Q82.1 81.8 81.7 82.1Q81.3 82.3 81.1 82.7Q80.8 83.1 80.8 83.7ZM88.5 88L87.4 88L87.4 80.9L88.5 80.9L88.5 88ZM87.9 79.7L87.9 79.7Q87.6 79.7 87.4 79.5Q87.2 79.3 87.2 79.0L87.2 79.0Q87.2 78.7 87.4 78.4Q87.6 78.2 87.9 78.2L87.9 78.2Q88.3 78.2 88.5 78.4Q88.7 78.7 88.7 79.0L88.7 79.0Q88.7 79.3 88.5 79.5Q88.3 79.7 87.9 79.7ZM93.4 88.2L93.4 88.2Q92.4 88.2 91.7 87.7Q91.0 87.2 90.6 86.4Q90.2 85.6 90.2 84.5L90.2 84.5Q90.2 83.4 90.6 82.6Q91.0 81.7 91.7 81.3Q92.4 80.8 93.4 80.8L93.4 80.8Q93.9 80.8 94.4 80.9Q94.8 81.1 95.2 81.3Q95.6 81.6 95.9 81.9Q96.1 82.3 96.3 82.8L96.3 82.8L95.2 83.1Q95.1 82.8 94.9 82.6Q94.8 82.4 94.6 82.2Q94.3 82.0 94.0 81.9Q93.8 81.8 93.4 81.8L93.4 81.8Q92.7 81.8 92.2 82.2Q91.8 82.6 91.6 83.2Q91.3 83.8 91.3 84.5L91.3 84.5Q91.3 85.2 91.6 85.8Q91.8 86.4 92.2 86.8Q92.7 87.1 93.4 87.1L93.4 87.1Q93.8 87.1 94.1 87.0Q94.4 86.9 94.6 86.8Q94.8 86.6 95.0 86.3Q95.1 86.1 95.2 85.8L95.2 85.8L96.3 86.1Q96.2 86.6 95.9 87.0Q95.6 87.4 95.2 87.6Q94.9 87.9 94.4 88.0Q93.9 88.2 93.4 88.2ZM99.9 88.2L99.9 88.2Q99.3 88.2 98.7 87.9Q98.2 87.7 97.8 87.2Q97.5 86.7 97.5 86.0L97.5 86.0Q97.5 85.4 97.8 85.0Q98.0 84.6 98.4 84.4Q98.8 84.2 99.3 84.1Q99.8 84.0 100.3 83.9L100.3 83.9Q100.9 83.8 101.3 83.8Q101.7 83.7 101.9 83.6Q102.1 83.5 102.1 83.2L102.1 83.2L102.1 83.2Q102.1 82.8 101.9 82.5Q101.8 82.1 101.4 82.0Q101.1 81.8 100.6 81.8L100.6 81.8Q100.1 81.8 99.7 82.0Q99.4 82.1 99.2 82.4Q98.9 82.6 98.8 82.9L98.8 82.9L97.7 82.5Q98.0 81.8 98.5 81.5Q98.9 81.1 99.5 81.0Q100.0 80.8 100.6 80.8L100.6 80.8Q100.9 80.8 101.4 80.9Q101.8 81.0 102.3 81.2Q102.7 81.5 103.0 82.0Q103.2 82.5 103.2 83.3L103.2 83.3L103.2 88L102.1 88L102.1 87.0L102.0 87.0Q101.9 87.3 101.6 87.5Q101.4 87.8 101.0 88.0Q100.5 88.2 99.9 88.2ZM100.1 87.2L100.1 87.2Q100.8 87.2 101.2 86.9Q101.6 86.7 101.9 86.3Q102.1 85.9 102.1 85.4L102.1 85.4L102.1 84.5Q102.0 84.5 101.8 84.6Q101.6 84.7 101.3 84.7Q101.0 84.8 100.7 84.8Q100.4 84.8 100.2 84.9L100.2 84.9Q99.8 84.9 99.5 85.0Q99.1 85.2 98.9 85.4Q98.7 85.6 98.7 86.0L98.7 86.0Q98.7 86.4 98.9 86.7Q99.0 86.9 99.4 87.0Q99.7 87.2 100.1 87.2ZM106.6 80.9L108.0 80.9L108.0 81.9L106.6 81.9L106.6 86.2Q106.6 86.6 106.8 86.9Q107.0 87.1 107.4 87.1L107.4 87.1Q107.5 87.1 107.7 87.0Q107.9 87.0 108.0 87.0L108.0 87.0L108.2 88.0Q108.1 88.0 107.8 88.1Q107.6 88.1 107.4 88.1L107.4 88.1Q106.5 88.1 105.9 87.6Q105.4 87.1 105.4 86.2L105.4 86.2L105.4 81.9L104.4 81.9L104.4 80.9L105.4 80.9L105.4 79.2L106.6 79.2L106.6 80.9ZM112.5 88.2L112.5 88.2Q111.5 88.2 110.7 87.7Q110.0 87.2 109.6 86.4Q109.2 85.6 109.2 84.5Q109.2 83.4 109.5 82.6Q109.9 81.8 110.7 81.3Q111.4 80.8 112.3 80.8L112.3 80.8Q112.9 80.8 113.5 81.0Q114.0 81.2 114.5 81.6Q114.9 82.0 115.2 82.7Q115.4 83.4 115.4 84.4L115.4 84.4L115.4 84.8L110.3 84.8Q110.3 85.5 110.6 86.0L110.6 86.0Q110.9 86.6 111.3 86.9Q111.8 87.1 112.5 87.1L112.5 87.1Q112.9 87.1 113.2 87.0Q113.6 86.9 113.8 86.7Q114.1 86.4 114.2 86.0L114.2 86.0L115.3 86.3Q115.2 86.9 114.8 87.3Q114.4 87.7 113.8 87.9Q113.2 88.2 112.5 88.2ZM110.3 83.9L110.3 83.9L114.3 83.9Q114.2 83.4 114.1 83.0L114.1 83.0Q113.9 82.4 113.4 82.1Q113.0 81.8 112.3 81.8Q111.7 81.8 111.2 82.1Q110.8 82.5 110.5 83.0L110.5 83.0Q110.3 83.4 110.3 83.9Z M123.7 88L122.6 88L120.4 80.9L121.7 80.9L122.5 84.0Q122.7 84.6 122.9 85.4L122.9 85.4Q123.1 86.0 123.2 86.8L123.2 86.8Q123.3 86.1 123.5 85.5L123.5 85.5Q123.7 84.7 123.9 84.0L123.9 84.0L124.7 80.9L125.9 80.9L126.8 84.0Q127.0 84.7 127.2 85.5L127.2 85.5Q127.3 86.1 127.4 86.8L127.4 86.8Q127.6 86.1 127.7 85.5L127.7 85.5Q127.9 84.7 128.1 84.0L128.1 84.0L129.0 80.9L130.2 80.9L128.0 88L126.9 88L126.0 84.8Q125.8 84.3 125.7 83.8Q125.6 83.3 125.5 82.8L125.5 82.8Q125.4 82.5 125.3 82.2L125.3 82.2Q125.3 82.5 125.2 82.7L125.2 82.7Q125.1 83.3 124.9 83.8Q124.8 84.3 124.7 84.8L124.7 84.8L123.7 88ZM132.8 88L131.6 88L131.6 80.9L132.8 80.9L132.8 88ZM132.2 79.7L132.2 79.7Q131.9 79.7 131.7 79.5Q131.4 79.3 131.4 79.0L131.4 79.0Q131.4 78.7 131.7 78.4Q131.9 78.2 132.2 78.2L132.2 78.2Q132.5 78.2 132.8 78.4Q133.0 78.7 133.0 79.0L133.0 79.0Q133.0 79.3 132.8 79.5Q132.5 79.7 132.2 79.7ZM136.1 80.9L137.6 80.9L137.6 81.9L136.1 81.9L136.1 86.2Q136.1 86.6 136.3 86.9Q136.5 87.1 137.0 87.1L137.0 87.1Q137.1 87.1 137.2 87.0Q137.4 87.0 137.5 87.0L137.5 87.0L137.8 88.0Q137.6 88.0 137.4 88.1Q137.2 88.1 136.9 88.1L136.9 88.1Q136.0 88.1 135.5 87.6Q135.0 87.1 135.0 86.2L135.0 86.2L135.0 81.9L133.9 81.9L133.9 80.9L135.0 80.9L135.0 79.2L136.1 79.2L136.1 80.9ZM140.2 83.7L140.2 83.7L140.2 88L139.0 88L139.0 78.5L140.2 78.5L140.2 82.1Q140.5 81.5 140.9 81.2L140.9 81.2Q141.5 80.8 142.3 80.8L142.3 80.8Q143.0 80.8 143.6 81.1Q144.1 81.4 144.4 82.0Q144.7 82.6 144.7 83.5L144.7 83.5L144.7 88L143.6 88L143.6 83.6Q143.6 82.8 143.1 82.3Q142.7 81.8 142.0 81.8L142.0 81.8Q141.5 81.8 141.1 82.1Q140.7 82.3 140.4 82.7Q140.2 83.1 140.2 83.7Z M152.9 90.8L152.9 90.8Q152.1 90.8 151.5 90.6Q150.9 90.4 150.6 90.1Q150.2 89.7 150.0 89.4L150.0 89.4L150.9 88.8Q151.0 89.0 151.3 89.2Q151.5 89.5 151.9 89.6Q152.3 89.8 152.9 89.8L152.9 89.8Q153.7 89.8 154.3 89.4Q154.8 89.0 154.8 88.1L154.8 88.1L154.8 86.7L154.7 86.7Q154.6 86.9 154.4 87.2Q154.2 87.5 153.8 87.7Q153.3 87.9 152.7 87.9L152.7 87.9Q151.8 87.9 151.1 87.5Q150.4 87.1 150.1 86.3Q149.7 85.5 149.7 84.4L149.7 84.4Q149.7 83.3 150.0 82.5Q150.4 81.7 151.1 81.3Q151.8 80.8 152.7 80.8L152.7 80.8Q153.4 80.8 153.8 81.0Q154.2 81.3 154.4 81.6Q154.6 81.8 154.8 82.0L154.8 82.0L154.9 82.0L154.9 80.9L156.0 80.9L156.0 88.2Q156.0 89.1 155.6 89.7Q155.1 90.3 154.4 90.5Q153.7 90.8 152.9 90.8ZM152.8 86.9L152.8 86.9Q153.5 86.9 153.9 86.6Q154.4 86.3 154.6 85.7Q154.8 85.2 154.8 84.4L154.8 84.4Q154.8 83.6 154.6 83.1Q154.4 82.5 153.9 82.2Q153.5 81.8 152.8 81.8L152.8 81.8Q152.2 81.8 151.7 82.2Q151.3 82.5 151.0 83.1Q150.8 83.7 150.8 84.4L150.8 84.4Q150.8 85.1 151.1 85.7Q151.3 86.2 151.7 86.6Q152.2 86.9 152.8 86.9ZM159.1 88L158.0 88L158.0 80.9L159.1 80.9L159.1 82.0L159.2 82.0Q159.4 81.5 159.9 81.1Q160.4 80.8 161.0 80.8L161.0 80.8Q161.1 80.8 161.3 80.8Q161.5 80.8 161.6 80.8L161.6 80.8L161.6 82.0Q161.5 82.0 161.3 81.9Q161.1 81.9 160.9 81.9L160.9 81.9Q160.4 81.9 160.0 82.1Q159.6 82.3 159.3 82.7Q159.1 83.1 159.1 83.6L159.1 83.6L159.1 88ZM165.9 88.2L165.9 88.2Q164.8 88.2 164.1 87.7Q163.3 87.2 162.9 86.4Q162.5 85.6 162.5 84.5Q162.5 83.4 162.9 82.6Q163.3 81.8 164.0 81.3Q164.8 80.8 165.7 80.8L165.7 80.8Q166.3 80.8 166.8 81.0Q167.4 81.2 167.8 81.6Q168.3 82.0 168.5 82.7Q168.8 83.4 168.8 84.4L168.8 84.4L168.8 84.8L163.7 84.8Q163.7 85.5 164.0 86.0L164.0 86.0Q164.2 86.6 164.7 86.9Q165.2 87.1 165.9 87.1L165.9 87.1Q166.3 87.1 166.6 87.0Q167.0 86.9 167.2 86.7Q167.5 86.4 167.6 86.0L167.6 86.0L168.7 86.3Q168.5 86.9 168.1 87.3Q167.7 87.7 167.2 87.9Q166.6 88.2 165.9 88.2ZM163.7 83.9L163.7 83.9L167.6 83.9Q167.6 83.4 167.4 83.0L167.4 83.0Q167.2 82.4 166.8 82.1Q166.4 81.8 165.7 81.8Q165.1 81.8 164.6 82.1Q164.2 82.5 163.9 83.0L163.9 83.0Q163.7 83.4 163.7 83.9ZM172.4 88.2L172.4 88.2Q171.8 88.2 171.2 87.9Q170.7 87.7 170.3 87.2Q170.0 86.7 170.0 86.0L170.0 86.0Q170.0 85.4 170.3 85.0Q170.5 84.6 170.9 84.4Q171.3 84.2 171.8 84.1Q172.3 84.0 172.8 83.9L172.8 83.9Q173.4 83.8 173.8 83.8Q174.2 83.7 174.4 83.6Q174.6 83.5 174.6 83.2L174.6 83.2L174.6 83.2Q174.6 82.8 174.4 82.5Q174.3 82.1 173.9 82.0Q173.6 81.8 173.1 81.8L173.1 81.8Q172.6 81.8 172.2 82.0Q171.9 82.1 171.7 82.4Q171.4 82.6 171.3 82.9L171.3 82.9L170.2 82.5Q170.5 81.8 171.0 81.5Q171.4 81.1 172.0 81.0Q172.5 80.8 173.1 80.8L173.1 80.8Q173.4 80.8 173.9 80.9Q174.3 81.0 174.8 81.2Q175.2 81.5 175.5 82.0Q175.7 82.5 175.7 83.3L175.7 83.3L175.7 88L174.6 88L174.6 87.0L174.5 87.0Q174.4 87.3 174.2 87.5Q173.9 87.8 173.5 88.0Q173.0 88.2 172.4 88.2ZM172.6 87.2L172.6 87.2Q173.3 87.2 173.7 86.9Q174.1 86.7 174.4 86.3Q174.6 85.9 174.6 85.4L174.6 85.4L174.6 84.5Q174.5 84.5 174.3 84.6Q174.1 84.7 173.8 84.7Q173.5 84.8 173.2 84.8Q172.9 84.8 172.7 84.9L172.7 84.9Q172.3 84.9 172.0 85.0Q171.6 85.2 171.4 85.4Q171.2 85.6 171.2 86.0L171.2 86.0Q171.2 86.4 171.4 86.7Q171.5 86.9 171.9 87.0Q172.2 87.2 172.6 87.2ZM179.1 80.9L180.5 80.9L180.5 81.9L179.1 81.9L179.1 86.2Q179.1 86.6 179.3 86.9Q179.5 87.1 179.9 87.1L179.9 87.1Q180.0 87.1 180.2 87.0Q180.4 87.0 180.5 87.0L180.5 87.0L180.7 88.0Q180.6 88.0 180.3 88.1Q180.1 88.1 179.9 88.1L179.9 88.1Q179.0 88.1 178.5 87.6Q177.9 87.1 177.9 86.2L177.9 86.2L177.9 81.9L176.9 81.9L176.9 80.9L177.9 80.9L177.9 79.2L179.1 79.2L179.1 80.9ZM185.0 88.2L185.0 88.2Q184.0 88.2 183.2 87.7Q182.5 87.2 182.1 86.4Q181.7 85.6 181.7 84.5Q181.7 83.4 182.1 82.6Q182.4 81.8 183.2 81.3Q183.9 80.8 184.9 80.8L184.9 80.8Q185.4 80.8 186.0 81.0Q186.5 81.2 187.0 81.6Q187.4 82.0 187.7 82.7Q187.9 83.4 187.9 84.4L187.9 84.4L187.9 84.8L182.8 84.8Q182.8 85.5 183.1 86.0L183.1 86.0Q183.4 86.6 183.9 86.9Q184.3 87.1 185.0 87.1L185.0 87.1Q185.4 87.1 185.8 87.0Q186.1 86.9 186.3 86.7Q186.6 86.4 186.7 86.0L186.7 86.0L187.8 86.3Q187.7 86.9 187.3 87.3Q186.9 87.7 186.3 87.9Q185.7 88.2 185.0 88.2ZM182.8 83.9L182.8 83.9L186.8 83.9Q186.7 83.4 186.6 83.0L186.6 83.0Q186.4 82.4 185.9 82.1Q185.5 81.8 184.9 81.8Q184.2 81.8 183.8 82.1Q183.3 82.5 183.1 83.0L183.1 83.0Q182.9 83.4 182.8 83.9ZM190.7 88L189.6 88L189.6 80.9L190.7 80.9L190.7 82.0L190.8 82.0Q191.0 81.5 191.5 81.1Q192.0 80.8 192.6 80.8L192.6 80.8Q192.7 80.8 192.9 80.8Q193.1 80.8 193.2 80.8L193.2 80.8L193.2 82.0Q193.1 82.0 192.9 81.9Q192.7 81.9 192.5 81.9L192.5 81.9Q192.0 81.9 191.6 82.1Q191.2 82.3 191.0 82.7Q190.7 83.1 190.7 83.6L190.7 83.6L190.7 88Z M200.9 88.2L200.9 88.2Q199.9 88.2 199.2 87.7Q198.5 87.2 198.1 86.4Q197.7 85.6 197.7 84.5L197.7 84.5Q197.7 83.4 198.1 82.6Q198.5 81.7 199.2 81.3Q199.9 80.8 200.9 80.8L200.9 80.8Q201.4 80.8 201.9 80.9Q202.3 81.1 202.7 81.3Q203.1 81.6 203.3 81.9Q203.6 82.3 203.8 82.8L203.8 82.8L202.7 83.1Q202.6 82.8 202.4 82.6Q202.3 82.4 202.0 82.2Q201.8 82.0 201.5 81.9Q201.2 81.8 200.9 81.8L200.9 81.8Q200.2 81.8 199.7 82.2Q199.3 82.6 199.0 83.2Q198.8 83.8 198.8 84.5L198.8 84.5Q198.8 85.2 199.0 85.8Q199.3 86.4 199.7 86.8Q200.2 87.1 200.9 87.1L200.9 87.1Q201.2 87.1 201.5 87.0Q201.8 86.9 202.1 86.8Q202.3 86.6 202.5 86.3Q202.6 86.1 202.7 85.8L202.7 85.8L203.8 86.1Q203.7 86.6 203.4 87.0Q203.1 87.4 202.7 87.6Q202.3 87.9 201.9 88.0Q201.4 88.2 200.9 88.2ZM205.4 78.5L206.6 78.5L206.6 88L205.4 88L205.4 78.5ZM210.6 88.2L210.6 88.2Q209.9 88.2 209.3 87.9Q208.8 87.7 208.5 87.2Q208.1 86.7 208.1 86.0L208.1 86.0Q208.1 85.4 208.4 85.0Q208.6 84.6 209.0 84.4Q209.4 84.2 209.9 84.1Q210.4 84.0 210.9 83.9L210.9 83.9Q211.5 83.8 211.9 83.8Q212.3 83.7 212.5 83.6Q212.7 83.5 212.7 83.2L212.7 83.2L212.7 83.2Q212.7 82.8 212.6 82.5Q212.4 82.1 212.1 82.0Q211.7 81.8 211.2 81.8L211.2 81.8Q210.7 81.8 210.4 82.0Q210.0 82.1 209.8 82.4Q209.6 82.6 209.4 82.9L209.4 82.9L208.3 82.5Q208.6 81.8 209.1 81.5Q209.5 81.1 210.1 81.0Q210.7 80.8 211.2 80.8L211.2 80.8Q211.6 80.8 212.0 80.9Q212.5 81.0 212.9 81.2Q213.3 81.5 213.6 82.0Q213.9 82.5 213.9 83.3L213.9 83.3L213.9 88L212.7 88L212.7 87.0L212.7 87.0Q212.6 87.3 212.3 87.5Q212.0 87.8 211.6 88.0Q211.2 88.2 210.6 88.2ZM210.8 87.2L210.8 87.2Q211.4 87.2 211.8 86.9Q212.3 86.7 212.5 86.3Q212.7 85.9 212.7 85.4L212.7 85.4L212.7 84.5Q212.7 84.5 212.4 84.6Q212.2 84.7 211.9 84.7Q211.6 84.8 211.3 84.8Q211.0 84.8 210.9 84.9L210.9 84.9Q210.4 84.9 210.1 85.0Q209.7 85.2 209.5 85.4Q209.3 85.6 209.3 86.0L209.3 86.0Q209.3 86.4 209.5 86.7Q209.7 86.9 210.0 87.0Q210.3 87.2 210.8 87.2ZM217.0 88L215.9 88L215.9 80.9L217.0 80.9L217.0 82.0L217.1 82.0Q217.3 81.5 217.8 81.1Q218.3 80.8 218.9 80.8L218.9 80.8Q219.0 80.8 219.2 80.8Q219.4 80.8 219.5 80.8L219.5 80.8L219.5 82.0Q219.4 82.0 219.2 81.9Q219.0 81.9 218.8 81.9L218.8 81.9Q218.3 81.9 217.9 82.1Q217.5 82.3 217.2 82.7Q217.0 83.1 217.0 83.6L217.0 83.6L217.0 88ZM221.9 88L220.8 88L220.8 80.9L221.9 80.9L221.9 88ZM221.3 79.7L221.3 79.7Q221.0 79.7 220.8 79.5Q220.6 79.3 220.6 79.0L220.6 79.0Q220.6 78.7 220.8 78.4Q221.0 78.2 221.3 78.2L221.3 78.2Q221.7 78.2 221.9 78.4Q222.1 78.7 222.1 79.0L222.1 79.0Q222.1 79.3 221.9 79.5Q221.7 79.7 221.3 79.7ZM225.3 80.9L226.7 80.9L226.7 81.9L225.3 81.9L225.3 86.2Q225.3 86.6 225.4 86.9Q225.6 87.1 226.1 87.1L226.1 87.1Q226.2 87.1 226.4 87.0Q226.5 87.0 226.7 87.0L226.7 87.0L226.9 88.0Q226.7 88.0 226.5 88.1Q226.3 88.1 226.1 88.1L226.1 88.1Q225.1 88.1 224.6 87.6Q224.1 87.1 224.1 86.2L224.1 86.2L224.1 81.9L223.0 81.9L223.0 80.9L224.1 80.9L224.1 79.2L225.3 79.2L225.3 80.9ZM228.1 90.6L228.1 90.6L228.4 89.6L228.5 89.6Q228.8 89.7 229.1 89.7Q229.4 89.6 229.6 89.4Q229.8 89.1 230.0 88.6L230.0 88.6L230.2 88.0L227.5 80.9L228.8 80.9L230.3 85.1Q230.5 85.8 230.7 86.4L230.7 86.4Q230.8 86.7 230.8 87.0L230.8 87.0Q230.9 86.7 231.0 86.4L231.0 86.4Q231.1 85.8 231.4 85.1L231.4 85.1L232.9 80.9L234.1 80.9L231.0 89.1Q230.8 89.6 230.5 90.0Q230.2 90.4 229.8 90.5Q229.4 90.7 228.9 90.7L228.9 90.7Q228.6 90.7 228.4 90.7Q228.1 90.6 228.1 90.6ZM236.3 88.1L236.3 88.1Q236.0 88.1 235.7 87.8Q235.5 87.6 235.5 87.2L235.5 87.2Q235.5 86.9 235.7 86.6Q236.0 86.4 236.3 86.4L236.3 86.4Q236.7 86.4 237.0 86.6Q237.2 86.9 237.2 87.2L237.2 87.2Q237.2 87.6 237.0 87.8Q236.7 88.1 236.3 88.1Z "/></g><mask id="satori_om-id-2"><rect x="647" y="39" width="180" height="43" fill="#fff" mask="url(#satori_om-id)"/></mask><mask id="satori_om-id-2-0"><rect x="726" y="39" width="101" height="20" fill="#fff" mask="url(#satori_om-id)"/></mask><defs><clipPath id="satori_bc-id-2-0-0" clip-path="url(#satori_cp-id)"><path x="726" y="39" width="29" height="20" d="M730,39 h21 a4,4 0 0 1 4,4 v12 a4,4 0 0 1 -4,4 h-21 a4,4 0 0 1 -4,-4 v-12 a4,4 0 0 1 4,-4"/></clipPath></defs><mask id="satori_om-id-2-0-0"><rect x="727" y="40" width="27" height="18" fill="#fff" mask="url(#satori_om-id)"/><path width="29" height="20" fill="none" stroke="#000" stroke-width="2" d="M727.172,40.172 A4,4 0 0 1 730,39 h21 a4,4 0 0 1 4,4 v12 a4,4 0 0 1 -4,4 h-21 a4,4 0 0 1 -4,-4 v-12 A4,4 0 0 1 727.172,40.172"/></mask><path x="726" y="39" width="29" height="20" fill="rgba(147,51,234,0.06)" d="M730,39 h21 a4,4 0 0 1 4,4 v12 a4,4 0 0 1 -4,4 h-21 a4,4 0 0 1 -4,-4 v-12 a4,4 0 0 1 4,-4" clip-path="url(#satori_cp-id)" mask="url(#satori_om-id)"/><path width="29" height="20" clip-path="url(#satori_bc-id-2-0-0)" fill="none" stroke="rgba(147,51,234,0.25)" stroke-width="2" d="M727.172,40.172 A4,4 0 0 1 730,39 h21 a4,4 0 0 1 4,4 v12 a4,4 0 0 1 -4,4 h-21 a4,4 0 0 1 -4,-4 v-12 A4,4 0 0 1 727.172,40.172"/><g mask="url(#satori_om-id)" clip-path="url(#satori_cp-id)"><path fill="rgba(230,200,255,0.85)" d="M736.9 53L735.2 53L737.7 45.7L739.7 45.7L742.2 53L740.6 53L740.0 51.3L737.4 51.3L736.9 53ZM737.8 50.1L739.6 50.1L739.4 49.5Q739.2 48.8 739.0 48L739.0 48Q738.8 47.5 738.7 46.9L738.7 46.9Q738.5 47.5 738.4 48.0L738.4 48.0Q738.2 48.8 738.0 49.5L738.0 49.5L737.8 50.1ZM743.1 45.7L744.6 45.7L744.6 53L743.1 53L743.1 45.7Z "/></g><defs><clipPath id="satori_bc-id-2-0-1" clip-path="url(#satori_cp-id)"><path x="761" y="39" width="66" height="20" d="M765,39 h58 a4,4 0 0 1 4,4 v12 a4,4 0 0 1 -4,4 h-58 a4,4 0 0 1 -4,-4 v-12 a4,4 0 0 1 4,-4"/></clipPath></defs><mask id="satori_om-id-2-0-1"><rect x="762" y="40" width="64" height="18" fill="#fff" mask="url(#satori_om-id)"/><path width="66" height="20" fill="none" stroke="#000" stroke-width="2" d="M762.172,40.172 A4,4 0 0 1 765,39 h58 a4,4 0 0 1 4,4 v12 a4,4 0 0 1 -4,4 h-58 a4,4 0 0 1 -4,-4 v-12 A4,4 0 0 1 762.172,40.172"/></mask><path x="761" y="39" width="66" height="20" fill="rgba(147,51,234,0.06)" d="M765,39 h58 a4,4 0 0 1 4,4 v12 a4,4 0 0 1 -4,4 h-58 a4,4 0 0 1 -4,-4 v-12 a4,4 0 0 1 4,-4" clip-path="url(#satori_cp-id)" mask="url(#satori_om-id)"/><path width="66" height="20" clip-path="url(#satori_bc-id-2-0-1)" fill="none" stroke="rgba(147,51,234,0.25)" stroke-width="2" d="M762.172,40.172 A4,4 0 0 1 765,39 h58 a4,4 0 0 1 4,4 v12 a4,4 0 0 1 -4,4 h-58 a4,4 0 0 1 -4,-4 v-12 A4,4 0 0 1 762.172,40.172"/><g mask="url(#satori_om-id)" clip-path="url(#satori_cp-id)"><path fill="rgba(230,200,255,0.85)" d="M772.1 53L770.7 53L770.7 45.7L775.4 45.7L775.4 47.0L772.1 47.0L772.1 49.0L775.1 49.0L775.1 50.2L772.1 50.2L772.1 53ZM778.4 53.1L778.4 53.1Q777.8 53.1 777.4 52.8Q777.0 52.6 776.7 52.1Q776.5 51.7 776.5 51.0L776.5 51.0L776.5 47.5L778.0 47.5L778.0 50.8Q778.0 51.3 778.2 51.6Q778.5 51.8 778.9 51.8L778.9 51.8Q779.3 51.8 779.5 51.7Q779.7 51.6 779.9 51.3Q780.0 51.1 780.0 50.7L780.0 50.7L780.0 47.5L781.5 47.5L781.5 53L780.1 53L780.1 51.9Q779.9 52.4 779.5 52.7L779.5 52.7Q779.1 53.1 778.4 53.1ZM782.7 45.7L784.2 45.7L784.2 53L782.7 53L782.7 45.7ZM785.4 45.7L786.9 45.7L786.9 53L785.4 53L785.4 45.7Z M793.2 53.1L793.2 53.1Q792.3 53.1 791.7 52.8Q791.0 52.6 790.7 52.0Q790.3 51.5 790.3 50.7L790.3 50.7L791.7 50.7Q791.8 51.1 792.0 51.4Q792.2 51.6 792.5 51.7Q792.8 51.8 793.2 51.8L793.2 51.8Q793.6 51.8 793.9 51.7Q794.2 51.6 794.4 51.4Q794.5 51.2 794.5 50.9L794.5 50.9Q794.5 50.7 794.4 50.5Q794.2 50.3 793.9 50.2Q793.7 50.1 793.3 50.0L793.3 50.0L792.5 49.8Q791.5 49.6 791.0 49.1Q790.5 48.6 790.5 47.8L790.5 47.8Q790.5 47.2 790.8 46.7Q791.2 46.2 791.8 45.9Q792.4 45.6 793.2 45.6L793.2 45.6Q794.0 45.6 794.6 45.9Q795.2 46.2 795.6 46.7Q795.9 47.2 795.9 47.8L795.9 47.8L794.5 47.8Q794.4 47.4 794.1 47.1Q793.8 46.9 793.2 46.9L793.2 46.9Q792.8 46.9 792.6 47.0Q792.3 47.1 792.2 47.3Q792.0 47.5 792.0 47.7L792.0 47.7Q792.0 48.0 792.2 48.2Q792.3 48.3 792.6 48.5Q792.9 48.6 793.2 48.6L793.2 48.6L793.8 48.8Q794.3 48.9 794.7 49.1Q795.1 49.3 795.4 49.5Q795.7 49.8 795.9 50.1Q796.0 50.5 796.0 50.9L796.0 50.9Q796.0 51.6 795.7 52.1Q795.4 52.6 794.7 52.8Q794.1 53.1 793.2 53.1ZM798.7 47.5L799.8 47.5L799.8 48.7L798.7 48.7L798.7 51.4Q798.7 51.7 798.9 51.8Q799.0 51.9 799.2 51.9L799.2 51.9Q799.3 51.9 799.5 51.9Q799.6 51.9 799.7 51.8L799.7 51.8L799.9 52.9Q799.7 53.0 799.4 53.0Q799.2 53.1 799.0 53.1L799.0 53.1Q798.1 53.1 797.7 52.7Q797.3 52.3 797.3 51.5L797.3 51.5L797.3 48.7L796.5 48.7L796.5 47.5L797.3 47.5L797.3 46.2L798.7 46.2L798.7 47.5ZM802.2 53.1L802.2 53.1Q801.7 53.1 801.3 52.9Q800.9 52.7 800.7 52.4Q800.4 52.0 800.4 51.5L800.4 51.5Q800.4 51.0 800.6 50.7Q800.8 50.4 801.1 50.2Q801.3 50.0 801.7 49.9Q802.1 49.8 802.5 49.8L802.5 49.8Q803.0 49.7 803.2 49.7Q803.5 49.7 803.7 49.6Q803.8 49.5 803.8 49.3L803.8 49.3L803.8 49.3Q803.8 49.0 803.7 48.9Q803.6 48.7 803.4 48.6Q803.2 48.6 803.0 48.6L803.0 48.6Q802.7 48.6 802.5 48.6Q802.3 48.7 802.1 48.9Q802.0 49.0 801.9 49.2L801.9 49.2L800.6 49.0Q800.7 48.5 801.0 48.2Q801.4 47.8 801.9 47.6Q802.3 47.5 803.0 47.5L803.0 47.5Q803.4 47.5 803.8 47.6Q804.2 47.7 804.6 47.9Q804.9 48.1 805.1 48.5Q805.3 48.8 805.3 49.3L805.3 49.3L805.3 53L803.9 53L803.9 52.2L803.8 52.2Q803.7 52.5 803.5 52.7Q803.3 52.9 803.0 53.0Q802.6 53.1 802.2 53.1ZM802.7 52.1L802.7 52.1Q803.0 52.1 803.3 51.9Q803.5 51.8 803.7 51.6Q803.8 51.3 803.8 51.0L803.8 51.0L803.8 50.5Q803.8 50.5 803.6 50.5Q803.5 50.6 803.3 50.6Q803.2 50.6 803.0 50.7Q802.9 50.7 802.7 50.7L802.7 50.7Q802.5 50.7 802.3 50.8Q802.1 50.9 801.9 51.1Q801.8 51.2 801.8 51.4L801.8 51.4Q801.8 51.6 801.9 51.8Q802.0 51.9 802.2 52.0Q802.4 52.1 802.7 52.1ZM809.0 53.1L809.0 53.1Q808.1 53.1 807.5 52.8Q806.9 52.4 806.6 51.8Q806.3 51.1 806.3 50.3L806.3 50.3Q806.3 49.4 806.6 48.8Q806.9 48.2 807.5 47.8Q808.1 47.5 809.0 47.5L809.0 47.5Q809.4 47.5 809.9 47.6Q810.3 47.7 810.6 48.0Q810.9 48.2 811.1 48.5Q811.3 48.9 811.4 49.3L811.4 49.3L810.0 49.5Q810.0 49.3 809.9 49.2Q809.8 49.0 809.7 48.9Q809.5 48.8 809.4 48.7Q809.2 48.6 809.0 48.6L809.0 48.6Q808.6 48.6 808.3 48.8Q808.1 49.0 807.9 49.4Q807.8 49.8 807.8 50.3L807.8 50.3Q807.8 50.8 807.9 51.1Q808.1 51.5 808.3 51.7Q808.6 52.0 809.0 52.0L809.0 52.0Q809.2 52.0 809.4 51.9Q809.5 51.8 809.7 51.7Q809.8 51.6 809.9 51.4Q810 51.2 810.0 51.0L810.0 51.0L811.4 51.3Q811.3 51.7 811.1 52.0Q810.9 52.4 810.6 52.6Q810.3 52.9 809.9 53.0Q809.5 53.1 809.0 53.1ZM813.9 53L812.4 53L812.4 45.7L813.9 45.7L813.9 49.6L814.0 49.6L815.7 47.5L817.4 47.5L815.4 49.9L817.5 53L815.8 53L814.3 50.8L813.9 51.2L813.9 53Z "/></g><mask id="satori_om-id-2-1"><rect x="728" y="69" width="99" height="13" fill="#fff" mask="url(#satori_om-id)"/></mask><g mask="url(#satori_om-id)" clip-path="url(#satori_cp-id)"><path fill="#a855f7" d="M733.2 80L731.1 80L728.3 72.0L730.1 72.0L731.4 75.9Q731.6 76.6 731.8 77.5L731.8 77.5Q732.0 78.0 732.1 78.7L732.1 78.7Q732.3 78.0 732.5 77.5L732.5 77.5Q732.7 76.6 732.9 75.9L732.9 75.9L734.1 72.0L735.9 72.0L733.2 80ZM738.5 80L736.9 80L736.9 74.0L738.5 74.0L738.5 80ZM737.7 73.2L737.7 73.2Q737.3 73.2 737.1 73.0Q736.8 72.7 736.8 72.4L736.8 72.4Q736.8 72.0 737.1 71.8Q737.3 71.6 737.7 71.6L737.7 71.6Q738.1 71.6 738.3 71.8Q738.6 72.0 738.6 72.4L738.6 72.4Q738.6 72.7 738.3 73.0Q738.1 73.2 737.7 73.2ZM742.6 80.1L742.6 80.1Q741.7 80.1 741.0 79.7Q740.3 79.4 740.0 78.7Q739.6 78.0 739.6 77.0L739.6 77.0Q739.6 76.1 740.0 75.4Q740.3 74.7 741.0 74.3Q741.6 73.9 742.5 73.9L742.5 73.9Q743.1 73.9 743.6 74.1Q744.1 74.3 744.5 74.7Q744.9 75.1 745.1 75.6Q745.3 76.2 745.3 77.0L745.3 77.0L745.3 77.4L741.2 77.4Q741.2 77.9 741.4 78.2L741.4 78.2Q741.6 78.5 741.9 78.7Q742.2 78.9 742.6 78.9L742.6 78.9Q742.9 78.9 743.1 78.8Q743.4 78.7 743.5 78.6Q743.7 78.4 743.8 78.2L743.8 78.2L745.2 78.5Q745.1 79.0 744.7 79.3Q744.4 79.7 743.8 79.9Q743.3 80.1 742.6 80.1ZM741.2 76.4L741.2 76.4L743.8 76.4Q743.7 76.1 743.7 75.9L743.7 75.9Q743.5 75.5 743.2 75.3Q742.9 75.1 742.5 75.1L742.5 75.1Q742.1 75.1 741.8 75.3Q741.5 75.5 741.4 75.8L741.4 75.8Q741.3 76.1 741.2 76.4ZM749.3 80L747.7 80L745.9 74.0L747.6 74.0L748.1 76.2Q748.3 76.8 748.4 77.5L748.4 77.5Q748.5 78.0 748.6 78.5L748.6 78.5Q748.7 78.0 748.8 77.5L748.8 77.5Q749.0 76.8 749.1 76.2L749.1 76.2L749.7 74.0L751.2 74.0L751.7 76.2Q751.8 76.8 752.0 77.5L752.0 77.5Q752.1 78.0 752.2 78.5L752.2 78.5Q752.3 78.0 752.4 77.5L752.4 77.5Q752.6 76.8 752.7 76.2L752.7 76.2L753.2 74.0L754.9 74.0L753.1 80L751.5 80L750.8 77.7Q750.7 77.3 750.6 76.9Q750.6 76.5 750.5 76.1L750.5 76.1Q750.4 76.0 750.4 75.8L750.4 75.8Q750.4 76.0 750.4 76.1L750.4 76.1Q750.3 76.5 750.2 76.9Q750.1 77.3 750.0 77.7L750.0 77.7L749.3 80Z M760.1 80L758.4 80L758.4 72.0L761.5 72.0Q762.5 72.0 763.1 72.3Q763.7 72.6 764.1 73.2Q764.4 73.8 764.4 74.6Q764.4 75.4 764.1 76.0Q763.7 76.5 763.1 76.8L763.1 76.8Q763.0 76.9 763.0 76.9L763.0 76.9L764.7 80L762.9 80L761.3 77.1L760.1 77.1L760.1 80ZM760.1 73.4L760.1 75.8L761.2 75.8Q761.8 75.8 762.1 75.7Q762.4 75.5 762.6 75.3Q762.7 75.0 762.7 74.6L762.7 74.6Q762.7 74.2 762.6 73.9Q762.4 73.6 762.1 73.5Q761.7 73.4 761.2 73.4L761.2 73.4L760.1 73.4ZM768.3 80.1L768.3 80.1Q767.4 80.1 766.7 79.7Q766.1 79.4 765.7 78.7Q765.4 78.0 765.4 77.0L765.4 77.0Q765.4 76.1 765.7 75.4Q766.1 74.7 766.7 74.3Q767.4 73.9 768.2 73.9L768.2 73.9Q768.8 73.9 769.3 74.1Q769.9 74.3 770.2 74.7Q770.6 75.1 770.8 75.6Q771.1 76.2 771.1 77.0L771.1 77.0L771.1 77.4L767.0 77.4Q767.0 77.9 767.1 78.2L767.1 78.2Q767.3 78.5 767.6 78.7Q767.9 78.9 768.4 78.9L768.4 78.9Q768.6 78.9 768.9 78.8Q769.1 78.7 769.3 78.6Q769.4 78.4 769.5 78.2L769.5 78.2L771.0 78.5Q770.8 79.0 770.5 79.3Q770.1 79.7 769.6 79.9Q769.0 80.1 768.3 80.1ZM767.0 76.4L767.0 76.4L769.5 76.4Q769.5 76.1 769.4 75.9L769.4 75.9Q769.2 75.5 769.0 75.3Q768.7 75.1 768.3 75.1L768.3 75.1Q767.8 75.1 767.6 75.3Q767.3 75.5 767.1 75.8L767.1 75.8Q767.0 76.1 767.0 76.4ZM773.8 82.2L772.2 82.2L772.2 74.0L773.8 74.0L773.8 75.0L773.8 75.0Q773.9 74.8 774.1 74.5Q774.4 74.3 774.7 74.1Q775.0 73.9 775.5 73.9L775.5 73.9Q776.2 73.9 776.8 74.3Q777.3 74.6 777.6 75.3Q778.0 76.0 778.0 77.0L778.0 77.0Q778.0 78.0 777.7 78.7Q777.3 79.4 776.8 79.7Q776.2 80.1 775.5 80.1L775.5 80.1Q775.0 80.1 774.7 79.9Q774.4 79.8 774.2 79.5Q773.9 79.3 773.8 79.0L773.8 79.0L773.8 79.0L773.8 82.2ZM775.0 78.8L775.0 78.8Q775.5 78.8 775.7 78.6Q776.0 78.3 776.2 77.9Q776.3 77.5 776.3 77.0L776.3 77.0Q776.3 76.5 776.2 76.1Q776.0 75.7 775.7 75.4Q775.5 75.2 775.0 75.2L775.0 75.2Q774.6 75.2 774.3 75.4Q774.0 75.7 773.9 76.1Q773.7 76.5 773.7 77.0L773.7 77.0Q773.7 77.5 773.9 78.0Q774.0 78.4 774.3 78.6Q774.6 78.8 775.0 78.8ZM781.8 80.1L781.8 80.1Q780.9 80.1 780.2 79.7Q779.6 79.3 779.2 78.6Q778.8 77.9 778.8 77.0L778.8 77.0Q778.8 76.1 779.2 75.4Q779.6 74.7 780.2 74.3Q780.9 73.9 781.8 73.9L781.8 73.9Q782.7 73.9 783.4 74.3Q784.0 74.7 784.4 75.4Q784.7 76.1 784.7 77.0L784.7 77.0Q784.7 77.9 784.4 78.6Q784.0 79.3 783.4 79.7Q782.7 80.1 781.8 80.1ZM781.8 78.9L781.8 78.9Q782.2 78.9 782.5 78.6Q782.8 78.4 782.9 78.0Q783.1 77.5 783.1 77.0L783.1 77.0Q783.1 76.5 782.9 76.1Q782.8 75.7 782.5 75.4Q782.2 75.2 781.8 75.2L781.8 75.2Q781.4 75.2 781.1 75.4Q780.8 75.7 780.6 76.1Q780.5 76.5 780.5 77.0L780.5 77.0Q780.5 77.5 780.6 78.0Q780.8 78.4 781.1 78.6Q781.4 78.9 781.8 78.9ZM788.2 80.1L788.2 80.1Q787.5 80.1 786.9 79.9Q786.4 79.7 786.0 79.3Q785.7 78.9 785.6 78.4L785.6 78.4L787.1 78.1Q787.2 78.5 787.5 78.7Q787.8 78.9 788.3 78.9L788.3 78.9Q788.7 78.9 789.0 78.8Q789.3 78.6 789.3 78.3L789.3 78.3Q789.3 78.1 789.1 77.9Q788.9 77.8 788.5 77.7L788.5 77.7L787.5 77.5Q786.6 77.3 786.2 76.9Q785.7 76.5 785.7 75.8L785.7 75.8Q785.7 75.2 786.1 74.8Q786.4 74.4 786.9 74.1Q787.5 73.9 788.3 73.9L788.3 73.9Q789.0 73.9 789.5 74.1Q790.0 74.3 790.3 74.7Q790.7 75.0 790.8 75.5L790.8 75.5L789.3 75.8Q789.2 75.5 789.0 75.3Q788.7 75.1 788.3 75.1L788.3 75.1Q787.9 75.1 787.6 75.2Q787.3 75.4 787.3 75.7L787.3 75.7Q787.3 75.9 787.5 76.1Q787.7 76.2 788.1 76.3L788.1 76.3L789.2 76.5Q790.1 76.7 790.5 77.1Q790.9 77.5 790.9 78.1L790.9 78.1Q790.9 78.7 790.6 79.2Q790.2 79.6 789.6 79.9Q789.0 80.1 788.2 80.1ZM793.6 80L792.0 80L792.0 74.0L793.6 74.0L793.6 80ZM792.8 73.2L792.8 73.2Q792.4 73.2 792.2 73.0Q791.9 72.7 791.9 72.4L791.9 72.4Q791.9 72.0 792.2 71.8Q792.4 71.6 792.8 71.6L792.8 71.6Q793.2 71.6 793.4 71.8Q793.7 72.0 793.7 72.4L793.7 72.4Q793.7 72.7 793.4 73.0Q793.2 73.2 792.8 73.2ZM796.8 74.0L798.0 74.0L798.0 75.2L796.8 75.2L796.8 78.2Q796.8 78.5 797.0 78.7Q797.1 78.8 797.4 78.8L797.4 78.8Q797.5 78.8 797.7 78.8Q797.8 78.8 797.9 78.7L797.9 78.7L798.1 79.9Q797.9 80.0 797.6 80.1Q797.3 80.1 797.1 80.1L797.1 80.1Q796.2 80.1 795.7 79.6Q795.2 79.2 795.2 78.4L795.2 78.4L795.2 75.2L794.4 75.2L794.4 74.0L795.2 74.0L795.2 72.6L796.8 72.6L796.8 74.0ZM801.7 80.1L801.7 80.1Q800.8 80.1 800.1 79.7Q799.5 79.3 799.1 78.6Q798.8 77.9 798.8 77.0L798.8 77.0Q798.8 76.1 799.1 75.4Q799.5 74.7 800.1 74.3Q800.8 73.9 801.7 73.9L801.7 73.9Q802.6 73.9 803.3 74.3Q803.9 74.7 804.3 75.4Q804.6 76.1 804.6 77.0L804.6 77.0Q804.6 77.9 804.3 78.6Q803.9 79.3 803.3 79.7Q802.6 80.1 801.7 80.1ZM801.7 78.9L801.7 78.9Q802.1 78.9 802.4 78.6Q802.7 78.4 802.9 78.0Q803.0 77.5 803.0 77.0L803.0 77.0Q803.0 76.5 802.9 76.1Q802.7 75.7 802.4 75.4Q802.1 75.2 801.7 75.2L801.7 75.2Q801.3 75.2 801.0 75.4Q800.7 75.7 800.6 76.1Q800.4 76.5 800.4 77.0L800.4 77.0Q800.4 77.5 800.6 78.0Q800.7 78.4 801.0 78.6Q801.3 78.9 801.7 78.9ZM807.4 80L805.8 80L805.8 74.0L807.3 74.0L807.3 75.0L807.4 75.0Q807.6 74.5 807.9 74.2Q808.3 73.9 808.8 73.9L808.8 73.9Q809.0 73.9 809.1 73.9Q809.2 73.9 809.4 74.0L809.4 74.0L809.4 75.4Q809.2 75.4 809.0 75.3Q808.8 75.3 808.7 75.3L808.7 75.3Q808.3 75.3 808.0 75.5Q807.7 75.6 807.5 75.9Q807.4 76.2 807.4 76.6L807.4 76.6L807.4 80ZM810.2 82.1L810.2 82.1L810.6 80.9L810.8 81.0Q811.1 81.0 811.3 81.0Q811.6 81.0 811.7 80.8Q811.9 80.6 811.9 80.3L811.9 80.3L812.0 80.0L809.7 74.0L811.4 74.0L812.4 77.1Q812.6 77.7 812.7 78.3L812.7 78.3Q812.8 78.5 812.8 78.7L812.8 78.7Q812.9 78.5 812.9 78.3L812.9 78.3Q813.1 77.7 813.3 77.1L813.3 77.1L814.3 74.0L816.0 74.0L813.5 80.7Q813.3 81.2 813.0 81.5Q812.7 81.9 812.3 82.1Q811.9 82.3 811.3 82.3L811.3 82.3Q810.9 82.3 810.7 82.2Q810.4 82.2 810.2 82.1Z M824.2 70.0L824.2 82.2L820.5 82.2L820.5 70.0L824.2 70.0ZM822.7 80.3L821.5 81.0L821.5 81.4L823.3 81.4L823.3 81.0L822.1 81.0L823.3 80.3L823.3 80L821.5 80L821.5 80.3L822.7 80.3ZM823.3 78.3L821.5 78.3L821.5 79.7L823.3 79.7L823.3 78.3ZM822.9 78.6L822.9 79.3L821.9 79.3L821.9 78.6L822.9 78.6ZM821.9 76.2L821.5 76.2L821.5 77.6L823.3 77.6L823.3 76.2L822.2 76.2L822.2 76.9L822.6 76.9L822.6 76.6L822.9 76.6L822.9 77.3L821.9 77.3L821.9 76.2ZM822.9 75.5L821.5 75.5L821.5 75.9L823.3 75.9L823.3 74.7L822.9 74.7L822.9 75.5ZM822.2 74.8L821.5 74.8L821.5 75.2L822.6 75.2L822.6 74.3L823.3 74.3L823.3 74.0L821.5 74.0L821.5 74.3L822.2 74.3L822.2 74.8ZM822.2 72.8L822.2 73.3L821.9 73.3L821.9 72.8L822.2 72.8ZM822.6 72.4L821.5 72.4L821.5 73.6L823.3 73.6L823.3 73.3L822.6 73.3L822.6 72.4ZM822.1 71.8L821.5 71.8L821.5 72.1L823.3 72.1L823.3 71.8L822.5 71.8L822.5 71.2L823.3 71.2L823.3 70.9L821.5 70.9L821.5 71.2L822.1 71.2L822.1 71.8Z "/></g></svg>