<!-- Generated by readme-aura https://github.com/collectioneur/readme-aura -->
<svg width="860" height="140" viewBox="0 0 860 140" xmlns="http://www.w3.org/2000/svg"><defs><clipPath id="satori_bc-id"><path x="0" y="0" width="860" height="140" d="M16,0 h828 a16,16 0 0 1 16,16 v108 a16,16 0 0 1 -16,16 h-828 a16,16 0 0 1 -16,-16 v-108 a16,16 0 0 1 16,-16"/></clipPath></defs><clipPath id="satori_cp-id"><path x="0" y="0" width="860" height="140" d="M16,0 h828 a16,16 0 0 1 16,16 v108 a16,16 0 0 1 -16,16 h-828 a16,16 0 0 1 -16,-16 v-108 a16,16 0 0 1 16,-16"/></clipPath><mask id="satori_om-id"><rect x="1" y="1" width="858" height="138" fill="#fff"/><path width="860" height="140" fill="none" stroke="#000" stroke-width="2" d="M4.686,4.686 A16,16 0 0 1 16,0 h828 a16,16 0 0 1 16,16 v108 a16,16 0 0 1 -16,16 h-828 a16,16 0 0 1 -16,-16 v-108 A16,16 0 0 1 4.686,4.686"/></mask><path x="0" y="0" width="860" height="140" fill="#09050d" d="M16,0 h828 a16,16 0 0 1 16,16 v108 a16,16 0 0 1 -16,16 h-828 a16,16 0 0 1 -16,-16 v-108 a16,16 0 0 1 16,-16"/><path width="860" height="140" clip-path="url(#satori_bc-id)" fill="none" stroke="rgba(255, 0, 127, 0.48)" stroke-width="2" d="M4.686,4.686 A16,16 0 0 1 16,0 h828 a16,16 0 0 1 16,16 v108 a16,16 0 0 1 -16,16 h-828 a16,16 0 0 1 -16,-16 v-108 A16,16 0 0 1 4.686,4.686"/><clipPath id="satori_cp-id-0" clip-path="url(#satori_cp-id)"><rect x="1" y="1" width="860" height="140"/></clipPath><mask id="satori_om-id-0"><rect x="1" y="1" width="860" height="140" fill="#fff" mask="url(#satori_om-id)"/></mask><svg x="1" y="1" width="860" height="140" preserveAspectRatio="none" clip-path="url(#satori_cp-id-0)" mask="url(#satori_om-id-0)"><defs><radialGradient id="n4" cx="50%" cy="50%" r="50%"><stop offset="0%" stop-color="rgba(255, 0, 127, 0.5)"></stop><stop offset="100%" stop-color="rgba(255, 0, 127, 0)"></stop></radialGradient><radialGradient id="n5" cx="50%" cy="50%" r="50%"><stop offset="0%" stop-color="rgba(176, 38, 255, 0.5)"></stop><stop offset="100%" stop-color="rgba(176, 38, 255, 0)"></stop></radialGradient></defs><g><circle cx="120" cy="20" r="1.5" fill="#fff" style="animation:pulse 3s infinite 0.5s"></circle><circle cx="450" cy="110" r="1" fill="#fff" style="animation:pulse 4s infinite 2s"></circle><circle cx="780" cy="30" r="2" fill="#fff" style="animation:pulse 5s infinite 1s"></circle></g><g stroke="rgba(255,255,255,0.2)" stroke-width="1" fill="none"><path d="M0,40 Q250,70 450,30 T860,60" style="animation:flowFast 10s linear infinite"></path></g><g style="animation:driftA 18s ease-in-out infinite"><ellipse cx="150" cy="70" rx="130" ry="50" fill="url(#n5)"></ellipse></g><g style="animation:driftB 22s ease-in-out infinite"><ellipse cx="710" cy="70" rx="140" ry="60" fill="url(#n4)"></ellipse></g><style>

      @keyframes driftA { 0%,100%{transform:translate(0,0)} 50%{transform:translate(-30px,15px)} }
      @keyframes driftB { 0%,100%{transform:translate(0,0)} 50%{transform:translate(40px,-10px)} }
      @keyframes pulse { 0%,100%{opacity:0.1;transform:scale(0.8)} 50%{opacity:0.8;transform:scale(1.2)} }
      @keyframes flowFast { 0%{transform:translateX(-10%);opacity:0} 20%{opacity:0.25} 80%{opacity:0.25} 100%{transform:translateX(100%);opacity:0} }
    
</style>
</svg><mask id="satori_om-id-0-0"><rect x="1" y="1" width="0" height="140" fill="#fff" mask="url(#satori_om-id)"/></mask><mask id="satori_om-id-0-0-0"><rect x="1" y="1" width="0" height="140" fill="#fff" mask="url(#satori_om-id)"/></mask><mask id="satori_om-id-0-0-0-0"><rect x="1" y="1" width="0" height="140" fill="#fff" mask="url(#satori_om-id)"/></mask><mask id="satori_om-id-0-0-0-1"><rect x="1" y="1" width="0" height="140" fill="#fff" mask="url(#satori_om-id)"/></mask><mask id="satori_om-id-0-0-1"><rect x="1" y="1" width="0" height="140" fill="#fff" mask="url(#satori_om-id)"/></mask><mask id="satori_om-id-0-0-1-0"><rect x="1" y="1" width="0" height="140" fill="#fff" mask="url(#satori_om-id)"/></mask><mask id="satori_om-id-0-0-1-1"><rect x="1" y="1" width="0" height="140" fill="#fff" mask="url(#satori_om-id)"/></mask><mask id="satori_om-id-0-1"><rect x="1" y="1" width="0" height="140" fill="#fff" mask="url(#satori_om-id)"/></mask><mask id="satori_om-id-0-1-0"><rect x="1" y="1" width="0" height="140" fill="#fff" mask="url(#satori_om-id)"/></mask><mask id="satori_om-id-0-1-1"><rect x="1" y="1" width="0" height="140" fill="#fff" mask="url(#satori_om-id)"/></mask><mask id="satori_om-id-0-1-2"><rect x="1" y="1" width="0" height="140" fill="#fff" mask="url(#satori_om-id)"/></mask><mask id="satori_om-id-0-2"><rect x="1" y="1" width="0" height="140" fill="#fff" mask="url(#satori_om-id)"/></mask><mask id="satori_om-id-0-2-0"><rect x="1" y="1" width="0" height="140" fill="#fff" mask="url(#satori_om-id)"/></mask><mask id="satori_om-id-0-3"><rect x="1" y="1" width="0" height="140" fill="#fff" mask="url(#satori_om-id)"/></mask><mask id="satori_om-id-0-3-0"><rect x="1" y="1" width="0" height="140" fill="#fff" mask="url(#satori_om-id)"/></mask><mask id="satori_om-id-0-4"><rect x="1" y="1" width="0" height="140" fill="#fff" mask="url(#satori_om-id)"/></mask><mask id="satori_om-id-0-4-0"><rect x="1" y="1" width="0" height="140" fill="#fff" mask="url(#satori_om-id)"/></mask><defs><clipPath id="satori_bc-id-1" clip-path="url(#satori_cp-id)"><rect x="1" y="26" width="279" height="88"/></clipPath></defs><mask id="satori_om-id-1"><rect x="1" y="26" width="278" height="88" fill="#fff" mask="url(#satori_om-id)"/><path width="279" height="88" fill="none" stroke="#000" stroke-width="2" d="M280,26 A0,0 0 0 1 280,26 v88 A0,0 0 0 1 280,114"/></mask><path width="279" height="88" clip-path="url(#satori_bc-id-1)" fill="none" stroke="rgba(255,255,255,0.08)" stroke-width="2" d="M280,26 A0,0 0 0 1 280,26 v88 A0,0 0 0 1 280,114"/><mask id="satori_om-id-1-0"><rect x="128" y="42" width="25" height="38" fill="#fff" mask="url(#satori_om-id)"/></mask><g mask="url(#satori_om-id)" clip-path="url(#satori_cp-id)"><path fill="#ff2a85" d="M140.4 75.4L140.4 75.4Q137.3 75.4 134.9 74.4Q132.5 73.3 131.1 71.6Q129.7 69.8 129.7 67.6L129.7 67.6Q129.7 65.9 130.5 64.4Q131.3 62.9 132.7 62.0Q134.0 61.0 135.7 60.7L135.7 60.7L135.7 60.5Q133.5 60.1 132.1 58.4Q130.7 56.7 130.7 54.4L130.7 54.4Q130.7 52.3 132.0 50.6Q133.2 48.9 135.4 47.9Q137.6 47.0 140.4 47.0L140.4 47.0Q143.1 47.0 145.3 47.9Q147.5 48.9 148.7 50.6Q150.0 52.3 150.0 54.4L150.0 54.4Q150.0 56.7 148.6 58.4Q147.2 60.1 145.1 60.5L145.1 60.5L145.1 60.7Q146.7 61.0 148.0 62.0Q149.4 62.9 150.2 64.4Q151.0 65.9 151.0 67.6L151.0 67.6Q151.0 69.8 149.6 71.6Q148.3 73.3 145.9 74.4Q143.5 75.4 140.4 75.4ZM140.4 71.2L140.4 71.2Q141.8 71.2 142.8 70.7Q143.9 70.2 144.5 69.2Q145.1 68.3 145.1 67.1L145.1 67.1Q145.1 65.9 144.5 65.0Q143.9 64.0 142.8 63.5Q141.7 62.9 140.4 62.9L140.4 62.9Q139.0 62.9 137.9 63.5Q136.9 64.0 136.2 65.0Q135.6 65.9 135.6 67.1L135.6 67.1Q135.6 68.3 136.2 69.2Q136.8 70.1 137.9 70.7Q138.9 71.2 140.4 71.2ZM140.4 58.8L140.4 58.8Q141.5 58.8 142.5 58.3Q143.4 57.8 143.9 57.0Q144.4 56.1 144.4 55.0L144.4 55.0Q144.4 53.9 143.9 53.1Q143.4 52.2 142.5 51.8Q141.6 51.3 140.4 51.3L140.4 51.3Q139.2 51.3 138.2 51.8Q137.3 52.2 136.8 53.1Q136.3 53.9 136.3 55.0L136.3 55.0Q136.3 56.1 136.8 57.0Q137.3 57.8 138.2 58.3Q139.2 58.8 140.4 58.8Z "/></g><mask id="satori_om-id-1-1"><rect x="118" y="85" width="45" height="13" fill="#fff" mask="url(#satori_om-id)"/></mask><g mask="url(#satori_om-id)" clip-path="url(#satori_cp-id)"><path fill="rgba(255,190,230,0.85)" d="M120.4 96L118.7 96L118.7 88.0L121.8 88.0Q122.8 88.0 123.4 88.3Q124.0 88.6 124.4 89.2Q124.7 89.8 124.7 90.6Q124.7 91.4 124.4 92.0Q124.0 92.5 123.4 92.8L123.4 92.8Q123.3 92.9 123.3 92.9L123.3 92.9L125.0 96L123.2 96L121.6 93.1L120.4 93.1L120.4 96ZM120.4 89.4L120.4 91.8L121.5 91.8Q122.0 91.8 122.4 91.7Q122.7 91.5 122.9 91.3Q123.0 91.0 123.0 90.6L123.0 90.6Q123.0 90.2 122.9 89.9Q122.7 89.6 122.4 89.5Q122.0 89.4 121.5 89.4L121.5 89.4L120.4 89.4ZM132.8 96L127.4 96L127.4 88.0L132.8 88.0L132.8 89.4L129.1 89.4L129.1 91.3L132.5 91.3L132.5 92.6L129.1 92.6L129.1 94.6L132.8 94.6L132.8 96ZM137.3 96L135.6 96L135.6 88.0L138.8 88.0Q139.7 88.0 140.3 88.3Q140.9 88.7 141.3 89.3Q141.6 89.9 141.6 90.7L141.6 90.7Q141.6 91.5 141.3 92.1Q140.9 92.7 140.3 93.0Q139.6 93.4 138.7 93.4L138.7 93.4L137.3 93.4L137.3 96ZM137.3 89.4L137.3 92.1L138.5 92.1Q139.0 92.1 139.3 91.9Q139.6 91.7 139.8 91.4Q139.9 91.1 139.9 90.7Q139.9 90.3 139.8 90.0Q139.6 89.7 139.3 89.5Q139.0 89.4 138.4 89.4L138.4 89.4L137.3 89.4ZM147.8 96.1L147.8 96.1Q146.7 96.1 145.9 95.6Q145.0 95.1 144.5 94.2Q144.0 93.3 144.0 92.0L144.0 92.0Q144.0 90.7 144.5 89.8Q145.0 88.9 145.9 88.4Q146.7 87.9 147.8 87.9L147.8 87.9Q148.8 87.9 149.7 88.4Q150.5 88.9 151.0 89.8Q151.5 90.7 151.5 92.0L151.5 92.0Q151.5 93.3 151.0 94.2Q150.5 95.1 149.7 95.6Q148.8 96.1 147.8 96.1ZM147.8 94.7L147.8 94.7Q148.4 94.7 148.9 94.3Q149.3 94.0 149.6 93.5Q149.8 92.9 149.8 92.0L149.8 92.0Q149.8 91.1 149.6 90.5Q149.3 90.0 148.9 89.6Q148.4 89.3 147.8 89.3L147.8 89.3Q147.2 89.3 146.7 89.7Q146.2 90.0 146.0 90.6Q145.7 91.1 145.7 92.0L145.7 92.0Q145.7 92.9 146.0 93.4Q146.2 94.0 146.7 94.3Q147.2 94.7 147.8 94.7ZM157.2 96.1L157.2 96.1Q156.2 96.1 155.5 95.8Q154.8 95.5 154.4 94.9Q154.0 94.4 154.0 93.5L154.0 93.5L155.6 93.5Q155.6 93.9 155.8 94.2Q156.0 94.5 156.4 94.6Q156.7 94.7 157.2 94.7L157.2 94.7Q157.6 94.7 157.9 94.6Q158.2 94.5 158.4 94.2Q158.6 94.0 158.6 93.7L158.6 93.7Q158.6 93.4 158.4 93.3Q158.3 93.1 158.0 92.9Q157.7 92.8 157.2 92.7L157.2 92.7L156.3 92.5Q155.3 92.2 154.8 91.7Q154.2 91.2 154.2 90.3L154.2 90.3Q154.2 89.6 154.6 89.0Q155.0 88.5 155.6 88.2Q156.3 87.9 157.2 87.9L157.2 87.9Q158.1 87.9 158.7 88.2Q159.4 88.5 159.8 89.0Q160.1 89.6 160.1 90.3L160.1 90.3L158.6 90.3Q158.5 89.8 158.2 89.5Q157.8 89.3 157.2 89.3L157.2 89.3Q156.8 89.3 156.5 89.4Q156.2 89.5 156.0 89.7Q155.9 89.9 155.9 90.2L155.9 90.2Q155.9 90.5 156.0 90.7Q156.2 90.9 156.5 91.0Q156.8 91.1 157.1 91.2L157.1 91.2L157.9 91.4Q158.4 91.5 158.8 91.7Q159.2 91.9 159.6 92.2Q159.9 92.4 160.1 92.8Q160.3 93.2 160.3 93.7L160.3 93.7Q160.3 94.4 159.9 95.0Q159.5 95.5 158.8 95.8Q158.1 96.1 157.2 96.1Z "/></g><defs><clipPath id="satori_bc-id-2" clip-path="url(#satori_cp-id)"><rect x="280" y="26" width="280" height="88"/></clipPath></defs><mask id="satori_om-id-2"><rect x="280" y="26" width="279" height="88" fill="#fff" mask="url(#satori_om-id)"/><path width="280" height="88" fill="none" stroke="#000" stroke-width="2" d="M560,26 A0,0 0 0 1 560,26 v88 A0,0 0 0 1 560,114"/></mask><path width="280" height="88" clip-path="url(#satori_bc-id-2)" fill="none" stroke="rgba(255,255,255,0.08)" stroke-width="2" d="M560,26 A0,0 0 0 1 560,26 v88 A0,0 0 0 1 560,114"/><mask id="satori_om-id-2-0"><rect x="406" y="42" width="26" height="38" fill="#fff" mask="url(#satori_om-id)"/></mask><g mask="url(#satori_om-id)" clip-path="url(#satori_cp-id)"><path fill="#b026ff" d="M418.8 75.4L418.8 75.4Q415.3 75.4 412.8 73.7Q410.4 72.0 409.1 68.8Q407.7 65.7 407.7 61.2L407.7 61.2Q407.7 56.7 409.1 53.5Q410.4 50.4 412.8 48.7Q415.3 47.0 418.8 47.0L418.8 47.0Q422.3 47.0 424.8 48.7Q427.2 50.4 428.6 53.6Q429.9 56.7 429.9 61.2L429.9 61.2Q429.9 65.7 428.6 68.8Q427.3 72.0 424.8 73.7Q422.3 75.4 418.8 75.4ZM418.8 70.7L418.8 70.7Q420.5 70.7 421.7 69.6Q422.9 68.5 423.5 66.3Q424.1 64.2 424.1 61.2L424.1 61.2Q424.1 58.2 423.5 56.0Q422.9 53.9 421.7 52.8Q420.5 51.7 418.8 51.7L418.8 51.7Q417.1 51.7 415.9 52.8Q414.7 53.9 414.1 56.0Q413.5 58.2 413.5 61.2L413.5 61.2Q413.5 64.2 414.1 66.3Q414.7 68.5 415.9 69.6Q417.1 70.7 418.8 70.7Z "/></g><mask id="satori_om-id-2-1"><rect x="397" y="85" width="45" height="13" fill="#fff" mask="url(#satori_om-id)"/></mask><g mask="url(#satori_om-id)" clip-path="url(#satori_cp-id)"><path fill="rgba(255,190,230,0.85)" d="M400.7 96.1L400.7 96.1Q399.7 96.1 399.0 95.8Q398.3 95.5 397.9 94.9Q397.5 94.4 397.5 93.5L397.5 93.5L399.1 93.5Q399.1 93.9 399.3 94.2Q399.5 94.5 399.9 94.6Q400.2 94.7 400.6 94.7L400.6 94.7Q401.1 94.7 401.4 94.6Q401.7 94.5 401.9 94.2Q402.1 94.0 402.1 93.7L402.1 93.7Q402.1 93.4 401.9 93.3Q401.8 93.1 401.5 92.9Q401.2 92.8 400.7 92.7L400.7 92.7L399.8 92.5Q398.8 92.2 398.2 91.7Q397.7 91.2 397.7 90.3L397.7 90.3Q397.7 89.6 398.1 89.0Q398.5 88.5 399.1 88.2Q399.8 87.9 400.7 87.9L400.7 87.9Q401.6 87.9 402.2 88.2Q402.9 88.5 403.3 89.0Q403.6 89.6 403.6 90.3L403.6 90.3L402.1 90.3Q402.0 89.8 401.6 89.5Q401.3 89.3 400.7 89.3L400.7 89.3Q400.2 89.3 400.0 89.4Q399.7 89.5 399.5 89.7Q399.4 89.9 399.4 90.2L399.4 90.2Q399.4 90.5 399.5 90.7Q399.7 90.9 400.0 91.0Q400.3 91.1 400.6 91.2L400.6 91.2L401.4 91.4Q401.9 91.5 402.3 91.7Q402.7 91.9 403.1 92.2Q403.4 92.4 403.6 92.8Q403.7 93.2 403.7 93.7L403.7 93.7Q403.7 94.4 403.4 95.0Q403.0 95.5 402.3 95.8Q401.6 96.1 400.7 96.1ZM408.6 89.4L406.1 89.4L406.1 88.0L412.6 88.0L412.6 89.4L410.2 89.4L410.2 96L408.6 96L408.6 89.4ZM416.6 96L414.8 96L417.5 88.0L419.7 88.0L422.5 96L420.7 96L420.1 94.1L417.2 94.1L416.6 96ZM417.6 92.9L419.6 92.9L419.4 92.1Q419.2 91.4 418.9 90.5L418.9 90.5Q418.8 89.9 418.6 89.3L418.6 89.3Q418.4 89.9 418.3 90.5L418.3 90.5Q418.1 91.4 417.9 92.1L417.9 92.1L417.6 92.9ZM426.6 96L425.0 96L425.0 88.0L428.1 88.0Q429.0 88.0 429.7 88.3Q430.3 88.6 430.6 89.2Q431.0 89.8 431.0 90.6Q431.0 91.4 430.6 92.0Q430.3 92.5 429.6 92.8L429.6 92.8Q429.6 92.9 429.5 92.9L429.5 92.9L431.3 96L429.4 96L427.9 93.1L426.6 93.1L426.6 96ZM426.6 89.4L426.6 91.8L427.8 91.8Q428.3 91.8 428.6 91.7Q429.0 91.5 429.1 91.3Q429.3 91.0 429.3 90.6L429.3 90.6Q429.3 90.2 429.1 89.9Q429.0 89.6 428.6 89.5Q428.3 89.4 427.8 89.4L427.8 89.4L426.6 89.4ZM436.6 96.1L436.6 96.1Q435.7 96.1 435.0 95.8Q434.3 95.5 433.9 94.9Q433.5 94.4 433.4 93.5L433.4 93.5L435.0 93.5Q435.1 93.9 435.3 94.2Q435.5 94.5 435.8 94.6Q436.2 94.7 436.6 94.7L436.6 94.7Q437.1 94.7 437.4 94.6Q437.7 94.5 437.9 94.2Q438.1 94.0 438.1 93.7L438.1 93.7Q438.1 93.4 437.9 93.3Q437.8 93.1 437.4 92.9Q437.1 92.8 436.7 92.7L436.7 92.7L435.8 92.5Q434.8 92.2 434.2 91.7Q433.7 91.2 433.7 90.3L433.7 90.3Q433.7 89.6 434.0 89.0Q434.4 88.5 435.1 88.2Q435.8 87.9 436.7 87.9L436.7 87.9Q437.5 87.9 438.2 88.2Q438.9 88.5 439.2 89.0Q439.6 89.6 439.6 90.3L439.6 90.3L438.0 90.3Q438.0 89.8 437.6 89.5Q437.3 89.3 436.6 89.3L436.6 89.3Q436.2 89.3 435.9 89.4Q435.6 89.5 435.5 89.7Q435.3 89.9 435.3 90.2L435.3 90.2Q435.3 90.5 435.5 90.7Q435.7 90.9 436.0 91.0Q436.3 91.1 436.6 91.2L436.6 91.2L437.3 91.4Q437.8 91.5 438.3 91.7Q438.7 91.9 439.0 92.2Q439.4 92.4 439.5 92.8Q439.7 93.2 439.7 93.7L439.7 93.7Q439.7 94.4 439.4 95.0Q439.0 95.5 438.3 95.8Q437.6 96.1 436.6 96.1Z "/></g><mask id="satori_om-id-3"><rect x="560" y="26" width="299" height="88" fill="#fff" mask="url(#satori_om-id)"/></mask><mask id="satori_om-id-3-0"><rect x="685" y="42" width="49" height="38" fill="#fff" mask="url(#satori_om-id)"/></mask><g mask="url(#satori_om-id)" clip-path="url(#satori_cp-id)"><path fill="#ff007f" d="M696.7 75.4L696.7 75.4Q693.8 75.4 691.6 74.3Q689.4 73.3 688.1 71.4Q686.8 69.6 686.7 67.2L686.7 67.2L692.3 67.2Q692.3 68.3 692.9 69.1Q693.5 70.0 694.5 70.4Q695.5 70.9 696.7 70.9L696.7 70.9Q698.0 70.9 699.1 70.3Q700.2 69.6 700.8 68.5Q701.4 67.4 701.4 65.9L701.4 65.9Q701.4 64.5 700.8 63.3Q700.2 62.2 699.1 61.6Q698.0 60.9 696.6 60.9L696.6 60.9Q695.3 60.9 694.2 61.4Q693.0 61.9 692.4 62.8L692.4 62.8L687.3 61.9L688.6 47.4L705.4 47.4L705.4 52.0L693.3 52.0L692.6 59.0L692.8 59.0Q693.5 58.0 695.0 57.4Q696.4 56.7 698.2 56.7L698.2 56.7Q700.1 56.7 701.7 57.4Q703.3 58.1 704.4 59.3Q705.6 60.5 706.2 62.2Q706.9 63.8 706.9 65.8L706.9 65.8Q706.9 68.6 705.6 70.8Q704.3 72.9 702.0 74.1Q699.7 75.4 696.7 75.4ZM721.3 75.4L721.3 75.4Q719.2 75.4 717.3 74.7Q715.3 74.0 713.8 72.4Q712.2 70.8 711.3 68.2Q710.4 65.6 710.4 61.8L710.4 61.8Q710.4 58.3 711.2 55.6Q711.9 52.8 713.4 50.9Q714.9 49.0 716.9 48.0Q719.0 47.0 721.5 47.0L721.5 47.0Q724.3 47.0 726.4 48.0Q728.5 49.1 729.7 50.9Q731.0 52.7 731.3 55.0L731.3 55.0L725.7 55.0Q725.4 53.6 724.3 52.7Q723.2 51.9 721.5 51.9L721.5 51.9Q719.7 51.9 718.5 52.9Q717.2 54.0 716.6 56.0Q715.9 58.0 715.9 60.7L715.9 60.7L716.1 60.7Q716.8 59.5 717.8 58.6Q718.9 57.7 720.2 57.3Q721.6 56.8 723.1 56.8L723.1 56.8Q725.5 56.8 727.4 58.0Q729.4 59.1 730.5 61.1Q731.6 63.2 731.6 65.8L731.6 65.8Q731.6 68.6 730.3 70.7Q729.0 72.9 726.7 74.1Q724.4 75.4 721.3 75.4ZM721.3 70.9L721.3 70.9Q722.7 70.9 723.7 70.2Q724.8 69.6 725.4 68.4Q726.1 67.3 726.1 65.9L726.1 65.9Q726.1 64.5 725.5 63.4Q724.9 62.3 723.8 61.6Q722.7 61.0 721.3 61.0L721.3 61.0Q720.3 61.0 719.4 61.4Q718.6 61.8 717.9 62.4Q717.2 63.1 716.9 64.0Q716.5 64.9 716.5 65.9L716.5 65.9Q716.5 67.3 717.1 68.4Q717.7 69.5 718.8 70.2Q719.9 70.9 721.3 70.9Z "/></g><mask id="satori_om-id-3-1"><rect x="677" y="85" width="66" height="13" fill="#fff" mask="url(#satori_om-id)"/></mask><g mask="url(#satori_om-id)" clip-path="url(#satori_cp-id)"><path fill="rgba(255,190,230,0.85)" d="M681.2 96.1L681.2 96.1Q680.2 96.1 679.3 95.6Q678.5 95.1 678.0 94.2Q677.5 93.3 677.5 92.0L677.5 92.0Q677.5 90.7 678.0 89.8Q678.5 88.9 679.3 88.4Q680.2 87.9 681.2 87.9L681.2 87.9Q681.9 87.9 682.5 88.1Q683.1 88.3 683.5 88.6Q684.0 89.0 684.3 89.5Q684.6 90.1 684.7 90.7L684.7 90.7L683.0 90.7Q683.0 90.4 682.8 90.1Q682.6 89.9 682.4 89.7Q682.2 89.5 681.9 89.4Q681.6 89.3 681.3 89.3L681.3 89.3Q680.6 89.3 680.2 89.7Q679.7 90.0 679.4 90.6Q679.2 91.2 679.2 92.0L679.2 92.0Q679.2 92.9 679.4 93.5Q679.7 94.1 680.2 94.4Q680.6 94.7 681.2 94.7L681.2 94.7Q681.6 94.7 681.9 94.6Q682.2 94.5 682.4 94.3Q682.6 94.1 682.8 93.8Q683.0 93.6 683.0 93.3L683.0 93.3L684.7 93.3Q684.6 93.8 684.3 94.3Q684.1 94.8 683.6 95.2Q683.2 95.6 682.6 95.9Q682.0 96.1 681.2 96.1ZM690.9 96.1L690.9 96.1Q689.8 96.1 689.0 95.6Q688.1 95.1 687.6 94.2Q687.1 93.3 687.1 92.0L687.1 92.0Q687.1 90.7 687.6 89.8Q688.1 88.9 689.0 88.4Q689.8 87.9 690.9 87.9L690.9 87.9Q691.9 87.9 692.8 88.4Q693.6 88.9 694.1 89.8Q694.6 90.7 694.6 92.0L694.6 92.0Q694.6 93.3 694.1 94.2Q693.6 95.1 692.8 95.6Q691.9 96.1 690.9 96.1ZM690.9 94.7L690.9 94.7Q691.5 94.7 692.0 94.3Q692.4 94.0 692.7 93.5Q692.9 92.9 692.9 92.0L692.9 92.0Q692.9 91.1 692.7 90.5Q692.4 90.0 692.0 89.6Q691.5 89.3 690.9 89.3L690.9 89.3Q690.3 89.3 689.8 89.7Q689.3 90.0 689.1 90.6Q688.8 91.1 688.8 92.0L688.8 92.0Q688.8 92.9 689.1 93.4Q689.3 94.0 689.8 94.3Q690.3 94.7 690.9 94.7ZM699.0 96L697.3 96L697.3 88.0L699.9 88.0L701.2 91.7Q701.2 91.9 701.3 92.3Q701.4 92.7 701.5 93.2L701.5 93.2Q701.7 93.7 701.7 94.1L701.7 94.1Q701.8 93.7 701.9 93.2L701.9 93.2Q702.0 92.8 702.2 92.3Q702.3 91.9 702.3 91.7L702.3 91.7L703.6 88.0L706.1 88.0L706.1 96L704.5 96L704.5 92.2Q704.5 92.0 704.5 91.6Q704.5 91.2 704.5 90.7Q704.5 90.3 704.5 89.8L704.5 89.8Q704.6 89.6 704.6 89.4L704.6 89.4Q704.5 89.6 704.4 89.9L704.4 89.9Q704.3 90.3 704.2 90.8Q704.1 91.2 703.9 91.6Q703.8 92.0 703.8 92.2L703.8 92.2L702.4 96L701.0 96L699.7 92.2Q699.6 92.0 699.5 91.6Q699.4 91.2 699.3 90.8Q699.1 90.4 699.0 89.9L699.0 89.9Q699.0 89.7 698.9 89.5L698.9 89.5Q698.9 89.6 698.9 89.8L698.9 89.8Q698.9 90.2 698.9 90.7Q698.9 91.2 699.0 91.6Q699.0 92.0 699.0 92.2L699.0 92.2L699.0 96ZM710.7 96L709.1 96L709.1 88.0L711.6 88.0L712.9 91.7Q713.0 91.9 713.1 92.3Q713.2 92.7 713.3 93.2L713.3 93.2Q713.4 93.7 713.5 94.1L713.5 94.1Q713.6 93.7 713.7 93.2L713.7 93.2Q713.8 92.8 713.9 92.3Q714.0 91.9 714.1 91.7L714.1 91.7L715.4 88.0L717.9 88.0L717.9 96L716.2 96L716.2 92.2Q716.2 92.0 716.2 91.6Q716.3 91.2 716.3 90.7Q716.3 90.3 716.3 89.8L716.3 89.8Q716.3 89.6 716.3 89.4L716.3 89.4Q716.2 89.6 716.2 89.9L716.2 89.9Q716.1 90.3 715.9 90.8Q715.8 91.2 715.7 91.6Q715.6 92.0 715.5 92.2L715.5 92.2L714.2 96L712.8 96L711.4 92.2Q711.4 92.0 711.3 91.6Q711.1 91.2 711.0 90.8Q710.9 90.4 710.8 89.9L710.8 89.9Q710.7 89.7 710.7 89.5L710.7 89.5Q710.7 89.6 710.7 89.8L710.7 89.8Q710.7 90.2 710.7 90.7Q710.7 91.2 710.7 91.6Q710.7 92.0 710.7 92.2L710.7 92.2L710.7 96ZM720.8 88.0L722.5 88.0L722.5 96L720.8 96L720.8 88.0ZM727.5 89.4L725.1 89.4L725.1 88.0L731.6 88.0L731.6 89.4L729.2 89.4L729.2 96L727.5 96L727.5 89.4ZM737.2 96.1L737.2 96.1Q736.2 96.1 735.5 95.8Q734.8 95.5 734.4 94.9Q734.0 94.4 734.0 93.5L734.0 93.5L735.6 93.5Q735.6 93.9 735.8 94.2Q736.0 94.5 736.4 94.6Q736.7 94.7 737.2 94.7L737.2 94.7Q737.6 94.7 737.9 94.6Q738.3 94.5 738.5 94.2Q738.6 94.0 738.6 93.7L738.6 93.7Q738.6 93.4 738.5 93.3Q738.3 93.1 738.0 92.9Q737.7 92.8 737.3 92.7L737.3 92.7L736.4 92.5Q735.4 92.2 734.8 91.7Q734.2 91.2 734.2 90.3L734.2 90.3Q734.2 89.6 734.6 89.0Q735.0 88.5 735.7 88.2Q736.3 87.9 737.2 87.9L737.2 87.9Q738.1 87.9 738.8 88.2Q739.4 88.5 739.8 89.0Q740.2 89.6 740.2 90.3L740.2 90.3L738.6 90.3Q738.6 89.8 738.2 89.5Q737.8 89.3 737.2 89.3L737.2 89.3Q736.8 89.3 736.5 89.4Q736.2 89.5 736.0 89.7Q735.9 89.9 735.9 90.2L735.9 90.2Q735.9 90.5 736.1 90.7Q736.2 90.9 736.5 91.0Q736.8 91.1 737.2 91.2L737.2 91.2L737.9 91.4Q738.4 91.5 738.8 91.7Q739.3 91.9 739.6 92.2Q739.9 92.4 740.1 92.8Q740.3 93.2 740.3 93.7L740.3 93.7Q740.3 94.4 739.9 95.0Q739.6 95.5 738.9 95.8Q738.2 96.1 737.2 96.1Z "/></g></svg>